<svg xmlns="http://www.w3.org/2000/svg" width="208.17" height="265.452" viewBox="0 0 208.17 265.452">
  <g id="main_page_illust" data-name="main page illust" transform="translate(-25.33 -0.3)">
    <g id="그룹_100" data-name="그룹 100">
      <g id="그룹_1" data-name="그룹 1">
        <path id="패스_1" data-name="패스 1" d="M223.9,26.3,214.7,45,203.6,72.6a13.611,13.611,0,0,0,4,16.6l3.1,2.4-77.2,174h99.9l.1-239.3" fill="#ffefcc"/>
      </g>
      <g id="그룹_3" data-name="그룹 3">
        <g id="그룹_2" data-name="그룹 2">
          <path id="패스_2" data-name="패스 2" d="M126.7,39.1c-.4-2.9-3.1-6.5-5.4-8.4-3.7-3-5.9-4.1-10.7-4.4-2.2-.1-6.1.4-8,1.5-1.6.9-4.6,2.8-5.7,4.2-2.1,2.7-3.3,3.7-4.7,6.9-1.7,3.8-1.5,9.2-3.1,13-3.4,8-10.3,14.5-18.6,16.7-4.9,1.3-10.6,1.4-14.2,4.9-1.2,1.1-2,3-.9,4.2A7.847,7.847,0,0,1,61.7,75c-5.1,3.4-8.2,9.3-9,15.4s.5,12.3,2.8,18c2.2-1.3,4.9-3.2,7.3-2.2,2.3,1,3.1,3,3.9,5.4s.7,6.2-.7,8.3c3.8.7,9.9,1.3,13.7,2,.3-5.5.7-8.3,3.2-12.3a6.321,6.321,0,0,1,4.2-3.3,6.992,6.992,0,0,1,7.7,3.3,48.264,48.264,0,0,1,8.9-4.2c-2.5-7.1-2.3-15-2.1-20.1s.9-15.6,4.5-20a23.955,23.955,0,0,0,2-3.9s-.3-4.6-.4-5.3a17.848,17.848,0,0,1,1.7-8.4,8.61,8.61,0,0,1,6-4.2c1-.2,4.3.9,5.8,2.7A15.406,15.406,0,0,1,126.7,39.1Z" fill="#3697ff"/>
        </g>
      </g>
      <g id="그룹_4" data-name="그룹 4">
        <path id="패스_3" data-name="패스 3" d="M138.6,68.9a7.239,7.239,0,0,0,5.6-6.2,7.357,7.357,0,0,0-4.3-7.2c-2.8-1.1-5.8-.7-9.3-.3-6.4.8-10.8,2.1-17,3.8a15.281,15.281,0,0,0-5.1,2.1,12.493,12.493,0,0,0-2.6,3C95.7,79,88.8,90.5,82.6,107.4c-2.9,8.1-5,15.8-5,22.2,0,8.6,9.5,16.2,18,17.6a25.361,25.361,0,0,0,10.9-1,89.969,89.969,0,0,0,10-3.3,17.506,17.506,0,0,0,5.8-3.3c5.2-4.6,2.1-4.6,2.5-11.5C125.9,108.3,134.7,91.8,138.6,68.9Z" fill="#ffe5a6"/>
      </g>
      <g id="그룹_5" data-name="그룹 5">
        <path id="패스_4" data-name="패스 4" d="M108.1,135.5a15.32,15.32,0,0,0-2.2,8.1,41.826,41.826,0,0,0,.8,4.7s-8.2,24.6-8.7,26c-3.6,11.2-6.5,20.8-10.5,33.1a10.513,10.513,0,0,0-.8,3.4,4.413,4.413,0,0,0,1.7,2.8c4.9,5.2,11.2,5.2,18.4,5,1.4,0,4.9.6,5.3-.8.7-2,1.1-2.9,4-11.4,5.5-16.1,11.6-32.1,17.5-47.8.5-1.3,1.9-5.2,1.9-5.2s4.4-3.1,7-5c.7.9-.1,2.4,3.7,6.2.7.7,13.4,6.5,14.4,6.6.9.1,1.5.4,3-1.6,4-5.7,9.5-12.2,13.5-17.8,4.5-6.4,7.4-12.8,7.6-19.7.2-6.8-5.3-13-11.7-15.4a24.07,24.07,0,0,0-13.3-.8C139.5,110.1,118.1,118.5,108.1,135.5Z" fill="#ffe19a"/>
      </g>
      <g id="그룹_6" data-name="그룹 6">
        <path id="패스_5" data-name="패스 5" d="M142.8,110.5a38.734,38.734,0,0,0-2.9,11.1,36.276,36.276,0,0,0,1.4,14.5,27.923,27.923,0,0,0,4.1,8.7s-4,5.1-5.4,5.6c-3.6-3.6-6-10-7.2-15.5-2.5-11.3,1.7-21.1,2.4-21.4C137.3,112.5,142.8,110.5,142.8,110.5Z" fill="#191a1c"/>
      </g>
      <g id="그룹_9" data-name="그룹 9">
        <g id="그룹_7" data-name="그룹 7">
          <path id="패스_6" data-name="패스 6" d="M87.3,207.8c1.7,1.8,8.3,5.9,13.1,7,2.7.6,8.2,1.3,12.7,0-.9,4-1.8,8.6.2,12.3a14.408,14.408,0,0,0,3.5,4.3c3,2.6,6.9,4.2,11.4,6.1a21.365,21.365,0,0,1,3.2,2,6.615,6.615,0,0,1,1.9,3.7,13.327,13.327,0,0,1-1,6.8,6.893,6.893,0,0,1-.7,1.5,3.045,3.045,0,0,1-1.3.9c-5.2,2.6-11.5,2-17,.3-5.6-1.7-8.7-5.5-14.4-6.8a26.984,26.984,0,0,0-6.3-1.2c-2.4-.2-6.8-.9-8.9-2.2-1.7-1-4-2.4-5-4.1a11.972,11.972,0,0,1-1.2-4.2,9.454,9.454,0,0,1,1.1-4.6A94.516,94.516,0,0,0,87.3,207.8Z" fill="#3697ff"/>
        </g>
        <g id="그룹_8" data-name="그룹 8">
          <path id="패스_7" data-name="패스 7" d="M144.3,143.2a34.692,34.692,0,0,0,7.9,9.3,38.388,38.388,0,0,0,12.3,6.2c-2.5,3.3-5.1,6.7-5.5,9.2-.3,1.9-.1,4.8,3.8,6.9.3.2,6.9-1.9,11.3,2.4a34,34,0,0,1,2.3,3,5.817,5.817,0,0,1,.4,4.1,7.727,7.727,0,0,1-2.2,3.1c-.4.4-2,1.5-2.7,2-.6.4-1.1.7-2.2,1.3-2.5,1.4-13.2,5.6-17.8,2.1-4.6-3.6-6.2-8.2-11-11.5-2.5-1.6-2.8-2.1-5.4-3.3-2.2-1-6.1-3.3-7.6-5.3-1.2-1.5-2.9-3.7-3.1-5.6a10.517,10.517,0,0,1,.4-4.3,11.416,11.416,0,0,1,2.7-3.9C134,153.2,138.8,150.5,144.3,143.2Z" fill="#3697ff"/>
        </g>
      </g>
      <g id="그룹_18" data-name="그룹 18">
        <g id="그룹_10" data-name="그룹 10">
          <path id="패스_8" data-name="패스 8" d="M129.6,65.6C114.2,69,99.4,74.8,90.3,80.3c-3.9,2.3-7.3,4.7-9,9.5-2,5.5,1.2,11.7,5.7,15.4s10.7,6,16.3,7.6c2.9.9,6.6,2.2,9.5,3-4.3,8.2-7.5,17.5-6.9,25.9,2.5-10.8,10.1-15.8,18.7-21.5,5.3-3.5,20-11.1,30.2-12.7-2.2-1.2-3.1-2.9-3.6-5.3,1.5-1.5,1.1-2.9-.1-5.8-1.2-2.7-3-5.5-4-8.4,10.5-.9,14.9-.4,30.7-4.3.6-.1,21.2-6.9,29.4-12.4.6-.4.5-3.4.4-4.5a22.407,22.407,0,0,0-.9-4.9,23,23,0,0,0-3.4-6.9c-1.3-1.9-3.7-4.5-6-5.5-5.7,3.2-12.4,6.9-19.3,8.9s-12.8,4.2-19.9,4.7C147.2,63.8,135,64.4,129.6,65.6Z" fill="#ff786b"/>
        </g>
        <g id="그룹_11" data-name="그룹 11">
          <circle id="타원_1" data-name="타원 1" cx="11" cy="11" r="11" transform="translate(123.2 41.2)" fill="#ffcdbd"/>
        </g>
        <g id="그룹_13" data-name="그룹 13">
          <g id="그룹_12" data-name="그룹 12">
            <path id="패스_9" data-name="패스 9" d="M144.2,77c-.4-1.1,1.3-2.9,1-3.7-3.1,2.2-9.2,2.7-12.9,2.9-.3,1.2.1,1.7.1,3a24.752,24.752,0,0,0,7.2-.5,17.163,17.163,0,0,1,.8,5.9c.7-.2,1.8-.4,2.7-.6a21.7,21.7,0,0,0-.7-6.1A3.373,3.373,0,0,0,144.2,77Z" fill="#111112"/>
          </g>
        </g>
        <g id="그룹_14" data-name="그룹 14">
          <path id="패스_10" data-name="패스 10" d="M137.8,64.9a4.212,4.212,0,0,1,5.6-.6c1.9,1.3,2.5,4.1,2.6,5.5.3,2.9-.3,5.3-2.4,8.3C144.3,72.9,141.6,66.1,137.8,64.9Z" fill="#ffe5a6"/>
        </g>
        <g id="그룹_15" data-name="그룹 15">
          <path id="패스_11" data-name="패스 11" d="M139.2,61.4c.1,3.4.3,6.8.4,10.2a1.7,1.7,0,0,1-.1.7c-.3.9-1.6.6-2.4.1a37.464,37.464,0,0,1-6.9-4.9,5.5,5.5,0,0,1-.7-.9,2.768,2.768,0,0,1-.1-.9v-4h.3" fill="#ffcdbd"/>
        </g>
        <g id="그룹_16" data-name="그룹 16">
          <path id="패스_12" data-name="패스 12" d="M164.1,159c.5-.6,1.2-1.6,1.7-2.1-1.5.1-7.5-1.8-12-5.4-4.7-3.8-7.5-8.3-8.1-10-.8,1.1-1.2,1.5-1.7,2.1.7,2,4.7,7.1,8.4,9.8A39.543,39.543,0,0,0,164.1,159Z" fill="#ff887d"/>
        </g>
        <g id="그룹_17" data-name="그룹 17">
          <path id="패스_13" data-name="패스 13" d="M113,215.3a25.823,25.823,0,0,0,.8-2.6c-1.5.7-8.2,1.1-14-.8a30.681,30.681,0,0,1-11.7-6.8,27.765,27.765,0,0,1-.9,2.7c1.5,1.7,6.8,5.3,12,6.8A33.182,33.182,0,0,0,113,215.3Z" fill="#ff887d"/>
        </g>
      </g>
      <g id="그룹_19" data-name="그룹 19">
        <path id="패스_14" data-name="패스 14" d="M134.5,50.5c-.1.8.8,1.5,1.6,1.6a4.141,4.141,0,0,0,2.3-.9,9.555,9.555,0,0,0,3.5-5.7,3.615,3.615,0,0,0,3.4,1.4c.5-.1,1-1.2.8-2.2-.6-3-2.9-4.5-5.5-5.9a12.805,12.805,0,0,0-6.9-2,10.891,10.891,0,0,0-6.1,1.7,11.287,11.287,0,0,0-3.6,3.3,18.115,18.115,0,0,0-2.6,5.4,14.914,14.914,0,0,0,.5,7.5,13.71,13.71,0,0,0,4.9,5.6,9.162,9.162,0,0,1-1.8-2.2,3.873,3.873,0,0,1-.3-2.8,2.248,2.248,0,0,1,2.2-1.5,1.743,1.743,0,0,1,1.4,2.1A7.352,7.352,0,0,0,134.5,50.5Z" fill="#3697ff"/>
      </g>
      <g id="그룹_20" data-name="그룹 20">
        <path id="패스_15" data-name="패스 15" d="M118.9,68.2a5.4,5.4,0,0,1,4.5-2.6c2.9-.1,7.2,1.1,9.1,8.6a22.08,22.08,0,0,1,.4,6.8c-.3,3.2-2.3,7.6-3.9,9.2,0-3.8.4-7.2-1.3-12.1A18.28,18.28,0,0,0,118.9,68.2Z" fill="#ffe5a6"/>
      </g>
      <g id="그룹_21" data-name="그룹 21">
        <path id="패스_16" data-name="패스 16" d="M219.9,36.1c2.7.4,4.3,2.3,3.9,3.3a3.379,3.379,0,0,1,2.8,4.7c-1.1,2-3.8,2.3-6,3a10.114,10.114,0,0,0-5,3.9,3.125,3.125,0,0,0-.5,3.3c.8,1.2,2.6,1,3.9.5s2.7-1.3,4.1-1c1.6.4,2.5,2.4,2.2,4.1a8.794,8.794,0,0,1-2.6,4.3,33.467,33.467,0,0,1-16,9.4c1.8-8.4-2.8-18.3-9.6-22.2,3.3-3.9,6-7.2,10.3-9.9C211.7,36.9,215.7,35.7,219.9,36.1Z"/>
      </g>
      <g id="그룹_29" data-name="그룹 29">
        <g id="그룹_22" data-name="그룹 22">
          <path id="패스_17" data-name="패스 17" d="M154.5,175.7c-.1,0-.2,0-.2-.1a.446.446,0,0,1,0-.5,8.766,8.766,0,0,1,5.7-2.9c.2,0,.3.1.4.3,0,.2-.1.3-.3.4a8.028,8.028,0,0,0-5.2,2.7A.756.756,0,0,1,154.5,175.7Z" fill="#217cde"/>
        </g>
        <g id="그룹_23" data-name="그룹 23">
          <path id="패스_18" data-name="패스 18" d="M156.7,181.4h0c-.3-.1-.4-.2-.3-.4.6-2.6,3.2-4.9,5.4-6.2a.361.361,0,1,1,.4.6c-2.1,1.2-4.6,3.4-5.1,5.7C157,181.3,156.9,181.4,156.7,181.4Z" fill="#217cde"/>
        </g>
        <g id="그룹_24" data-name="그룹 24">
          <path id="패스_19" data-name="패스 19" d="M152.8,172.2c-.1,0-.2,0-.2-.1a.446.446,0,0,1,0-.5,8.1,8.1,0,0,1,6.3-2.1c.2,0,.3.2.3.4s-.2.3-.4.3a7.592,7.592,0,0,0-5.8,1.9C153,172.2,152.9,172.2,152.8,172.2Z" fill="#217cde"/>
        </g>
        <g id="그룹_25" data-name="그룹 25">
          <path id="패스_20" data-name="패스 20" d="M108.6,232.8c-.1,0-.2,0-.2-.1a.446.446,0,0,1,0-.5,8.628,8.628,0,0,1,6.4-2.8h.1a.3.3,0,0,1,0,.6h0a8.262,8.262,0,0,0-5.9,2.6C108.8,232.7,108.7,232.8,108.6,232.8Z" fill="#217cde"/>
        </g>
        <g id="그룹_26" data-name="그룹 26">
          <path id="패스_21" data-name="패스 21" d="M113.3,237.6h-.2c-.2-.1-.2-.3-.1-.5a8.075,8.075,0,0,1,6-3.8c.2,0,.3.1.4.3,0,.2-.1.3-.3.4a7.2,7.2,0,0,0-5.5,3.5A.438.438,0,0,1,113.3,237.6Z" fill="#217cde"/>
        </g>
        <g id="그룹_27" data-name="그룹 27">
          <path id="패스_22" data-name="패스 22" d="M105.7,230h-.2a2.092,2.092,0,0,1-2.2-1.6,2.3,2.3,0,0,1,.8-1.9,6.881,6.881,0,0,1,8.1-1.4h0c.1,0,.1.1.2.1.2-.2.4-.3.6-.5a12.224,12.224,0,0,1,6.3-2.4,3.124,3.124,0,0,1,2.4.6,2.851,2.851,0,0,1,0,3.5,4.322,4.322,0,0,1-3,1.5c-2,.3-3.7-.5-5.9-1.8-.1,0-.2-.1-.3-.2a6.469,6.469,0,0,1-.9.8c-.5.5-1.1,1-1.6,1.5A6.93,6.93,0,0,1,105.7,230Zm3.5-5.1a6.287,6.287,0,0,0-4.6,2,1.572,1.572,0,0,0-.6,1.4c.1.6.9,1,1.6,1a6.644,6.644,0,0,0,4-1.6,10.7,10.7,0,0,0,1.6-1.4l.7-.7A6.766,6.766,0,0,0,109.2,224.9Zm3.9.6h0c2.3,1.2,3.8,2,5.6,1.7a3.81,3.81,0,0,0,2.6-1.3,2.107,2.107,0,0,0,.1-2.6,2.55,2.55,0,0,0-1.9-.5,10.817,10.817,0,0,0-5.9,2.3A2.736,2.736,0,0,0,113.1,225.5Z" fill="#217cde"/>
        </g>
        <g id="그룹_28" data-name="그룹 28">
          <path id="패스_23" data-name="패스 23" d="M163.6,172a2.233,2.233,0,0,1-1.7-1.1,5.669,5.669,0,0,1-.8-1.3,23.706,23.706,0,0,0-1.5-2.1h0c-.2-.1-.3-.3-.5-.4a11.176,11.176,0,0,0-2.5,1.1c-.4.2-.8.4-1.3.6-1.6.7-3.6,1.1-4.8.1a1.751,1.751,0,0,1-.6-1.7,3.32,3.32,0,0,1,1.7-2.5,5.692,5.692,0,0,1,4.9-.3,7.735,7.735,0,0,1,2.8,1.9.367.367,0,0,0,.3-.1,5.811,5.811,0,0,1,3.4.5c1.6.7,3,2.2,2.4,3.8a1.845,1.845,0,0,1-1.5,1.3C163.7,172,163.6,172,163.6,172Zm-3.7-5h0a10.563,10.563,0,0,1,1.7,2.3c.3.4.5.8.8,1.2.4.6.8.9,1.3.8a1.5,1.5,0,0,0,1-.9c.5-1.3-.7-2.4-2-3A7.044,7.044,0,0,0,159.9,167Zm-5.7-2.2a4.645,4.645,0,0,0-2.3.6,2.507,2.507,0,0,0-1.3,2,1.277,1.277,0,0,0,.4,1.1c.9.8,2.7.5,4.1-.2l1.2-.6a16.27,16.27,0,0,1,2.3-1.1,6.775,6.775,0,0,0-2.3-1.4A7.788,7.788,0,0,0,154.2,164.8Z" fill="#217cde"/>
        </g>
      </g>
      <g id="그룹_40" data-name="그룹 40">
        <g id="그룹_30" data-name="그룹 30">
          <path id="패스_24" data-name="패스 24" d="M88.6,208.8h-.1a.4.4,0,0,1-.2-.4l.7-1.5a.316.316,0,0,1,.6.2l-.7,1.5C88.9,208.7,88.8,208.8,88.6,208.8Z" fill="#d9584c"/>
        </g>
        <g id="그룹_31" data-name="그룹 31">
          <path id="패스_25" data-name="패스 25" d="M90.9,210.1h-.1c-.2-.1-.3-.3-.2-.4l.6-1.3a.4.4,0,0,1,.4-.2c.2.1.3.3.2.4l-.6,1.3C91.2,210.1,91,210.1,90.9,210.1Z" fill="#d9584c"/>
        </g>
        <g id="그룹_32" data-name="그룹 32">
          <path id="패스_26" data-name="패스 26" d="M93.5,211.7h-.1c-.2-.1-.3-.3-.2-.4l.5-1.3c.1-.2.3-.3.4-.2.2.1.3.3.2.4l-.5,1.3C93.7,211.6,93.6,211.7,93.5,211.7Z" fill="#d9584c"/>
        </g>
        <g id="그룹_33" data-name="그룹 33">
          <path id="패스_27" data-name="패스 27" d="M95.7,213h0c-.3-.1-.4-.2-.3-.4a4.714,4.714,0,0,1,.6-1.5c.1-.2.3-.2.5-.1s.2.3.1.5a6.943,6.943,0,0,0-.5,1.3A.758.758,0,0,1,95.7,213Z" fill="#d9584c"/>
        </g>
        <g id="그룹_34" data-name="그룹 34">
          <path id="패스_28" data-name="패스 28" d="M98.2,213.8h0c-.2,0-.4-.2-.3-.4l.3-1.3c0-.2.2-.3.4-.3s.3.2.3.4l-.3,1.3A.536.536,0,0,1,98.2,213.8Z" fill="#d9584c"/>
        </g>
        <g id="그룹_35" data-name="그룹 35">
          <path id="패스_29" data-name="패스 29" d="M100.9,214.6h0a.319.319,0,0,1-.3-.3,3.529,3.529,0,0,1,.3-1.4c.1-.2.3-.3.4-.2.2.1.3.3.2.4a5.019,5.019,0,0,0-.2,1.2C101.2,214.5,101.1,214.6,100.9,214.6Z" fill="#d9584c"/>
        </g>
        <g id="그룹_36" data-name="그룹 36">
          <path id="패스_30" data-name="패스 30" d="M103.7,215.2h0c-.2,0-.3-.2-.3-.4a5.853,5.853,0,0,1,.2-1.3c.1-.2.2-.3.4-.2s.3.2.2.4a4.253,4.253,0,0,0-.2,1.1C104,215,103.9,215.2,103.7,215.2Z" fill="#d9584c"/>
        </g>
        <g id="그룹_37" data-name="그룹 37">
          <path id="패스_31" data-name="패스 31" d="M106.4,215.6h0c-.2,0-.3-.2-.3-.4l.1-1.3c0-.2.2-.3.4-.3s.3.2.3.4l-.1,1.3A.536.536,0,0,1,106.4,215.6Z" fill="#d9584c"/>
        </g>
        <g id="그룹_38" data-name="그룹 38">
          <path id="패스_32" data-name="패스 32" d="M108.7,215.6h0c-.2,0-.3-.2-.3-.4l.1-1.1c0-.2.2-.3.4-.3s.3.2.3.4l-.1,1.1C109,215.5,108.9,215.6,108.7,215.6Z" fill="#d9584c"/>
        </g>
        <g id="그룹_39" data-name="그룹 39">
          <path id="패스_33" data-name="패스 33" d="M111.2,215.1h0c-.2,0-.3-.2-.3-.4l.1-.9c0-.2.2-.3.4-.3s.3.2.3.4l-.1.9C111.5,215,111.4,215.1,111.2,215.1Z" fill="#d9584c"/>
        </g>
      </g>
      <g id="그룹_54" data-name="그룹 54">
        <g id="그룹_41" data-name="그룹 41">
          <path id="패스_34" data-name="패스 34" d="M145,144.6c-.1,0-.2,0-.2-.1a.446.446,0,0,1,0-.5l1-1a.354.354,0,0,1,.5.5l-1,1A.367.367,0,0,1,145,144.6Z" fill="#d9584c"/>
        </g>
        <g id="그룹_42" data-name="그룹 42">
          <path id="패스_35" data-name="패스 35" d="M146.4,146.4c-.1,0-.1,0-.2-.1a.44.44,0,0,1-.1-.5l.7-1a.361.361,0,0,1,.6.4l-.7,1C146.6,146.4,146.5,146.4,146.4,146.4Z" fill="#d9584c"/>
        </g>
        <g id="그룹_43" data-name="그룹 43">
          <path id="패스_36" data-name="패스 36" d="M147.7,148.2c-.1,0-.2,0-.2-.1a.446.446,0,0,1,0-.5l.8-.9a.354.354,0,0,1,.5.5l-.8.9C147.9,148.1,147.8,148.2,147.7,148.2Z" fill="#d9584c"/>
        </g>
        <g id="그룹_44" data-name="그룹 44">
          <path id="패스_37" data-name="패스 37" d="M148.9,149.5c-.1,0-.1,0-.2-.1a.44.44,0,0,1-.1-.5l.9-.9a.361.361,0,0,1,.4.6,3.043,3.043,0,0,0-.8.8A.349.349,0,0,1,148.9,149.5Z" fill="#d9584c"/>
        </g>
        <g id="그룹_45" data-name="그룹 45">
          <path id="패스_38" data-name="패스 38" d="M150.5,151c-.1,0-.1,0-.2-.1a.44.44,0,0,1-.1-.5l.6-.8a.361.361,0,1,1,.6.4l-.6.8C150.7,150.9,150.6,151,150.5,151Z" fill="#d9584c"/>
        </g>
        <g id="그룹_46" data-name="그룹 46">
          <path id="패스_39" data-name="패스 39" d="M151.8,152.2c-.1,0-.2,0-.2-.1a.446.446,0,0,1,0-.5l.7-.7a.354.354,0,0,1,.5.5l-.7.7A.367.367,0,0,1,151.8,152.2Z" fill="#d9584c"/>
        </g>
        <g id="그룹_47" data-name="그룹 47">
          <path id="패스_40" data-name="패스 40" d="M153.3,153.7c-.1,0-.1,0-.2-.1-.2-.1-.2-.3-.1-.5l.7-1.1c.1-.2.3-.2.5-.1s.2.3.1.5l-.7,1.1C153.6,153.6,153.5,153.7,153.3,153.7Z" fill="#d9584c"/>
        </g>
        <g id="그룹_48" data-name="그룹 48">
          <path id="패스_41" data-name="패스 41" d="M155.1,154.7c-.1,0-.1,0-.2-.1-.2-.1-.2-.3-.1-.5l.6-1c.1-.2.3-.2.5-.1s.2.3.1.5l-.6,1C155.3,154.7,155.2,154.7,155.1,154.7Z" fill="#d9584c"/>
        </g>
        <g id="그룹_49" data-name="그룹 49">
          <path id="패스_42" data-name="패스 42" d="M156.4,155.6c-.1,0-.1,0-.2-.1-.2-.1-.2-.3-.1-.5l.7-1c.1-.2.3-.2.5-.1s.2.3.1.5l-.7,1C156.6,155.5,156.5,155.6,156.4,155.6Z" fill="#d9584c"/>
        </g>
        <g id="그룹_50" data-name="그룹 50">
          <path id="패스_43" data-name="패스 43" d="M158.1,156.3h-.2c-.2-.1-.2-.3-.1-.5l.5-.8c.1-.2.3-.2.5-.1s.2.3.1.5l-.5.8A.367.367,0,0,1,158.1,156.3Z" fill="#d9584c"/>
        </g>
        <g id="그룹_51" data-name="그룹 51">
          <path id="패스_44" data-name="패스 44" d="M159.8,156.8c-.1,0-.2,0-.2-.1a.33.33,0,0,1,0-.5l.5-.6a.354.354,0,0,1,.5.5l-.5.6A.367.367,0,0,1,159.8,156.8Z" fill="#d9584c"/>
        </g>
        <g id="그룹_52" data-name="그룹 52">
          <path id="패스_45" data-name="패스 45" d="M161.7,157.9c-.1,0-.1,0-.2-.1a.44.44,0,0,1-.1-.5l.7-.8a.361.361,0,1,1,.6.4l-.7.8C161.9,157.9,161.8,157.9,161.7,157.9Z" fill="#d9584c"/>
        </g>
        <g id="그룹_53" data-name="그룹 53">
          <path id="패스_46" data-name="패스 46" d="M163.1,158.3c-.1,0-.1,0-.2-.1-.2-.1-.2-.3-.1-.5l.5-.8c.1-.2.3-.2.5-.1s.2.3.1.5l-.5.8C163.3,158.3,163.2,158.3,163.1,158.3Z" fill="#d9584c"/>
        </g>
      </g>
      <g id="그룹_57" data-name="그룹 57">
        <g id="그룹_55" data-name="그룹 55">
          <path id="패스_47" data-name="패스 47" d="M145,102h-.2c-.2-.1-.2-.3-.1-.5a4.24,4.24,0,0,0,.1-3.8l-.2-.5c-1.9-3.9-3.8-7.8-4-12.1a.3.3,0,1,1,.6,0c.1,4.1,2.1,8,3.9,11.8l.2.5a5.223,5.223,0,0,1-.2,4.4C145.2,102,145.1,102,145,102Z" fill="#d9584c"/>
        </g>
        <g id="그룹_56" data-name="그룹 56">
          <path id="패스_48" data-name="패스 48" d="M144.6,109.8c-.1,0-.3-.1-.3-.2l-.5-1.9a.316.316,0,1,1,.6-.2l.5,1.9a.536.536,0,0,1-.3.4Z" fill="#d9584c"/>
        </g>
      </g>
      <g id="그룹_58" data-name="그룹 58">
        <path id="패스_49" data-name="패스 49" d="M118.5,92.6h0c-4.8-.1-9.6-.3-14.3-.7-.2,0-.3-.2-.3-.4s.2-.3.4-.3c4.7.4,9.5.6,14.3.7a.319.319,0,0,1,.3.3C118.8,92.4,118.6,92.6,118.5,92.6Z" fill="#d9584c"/>
      </g>
      <g id="그룹_59" data-name="그룹 59">
        <path id="패스_50" data-name="패스 50" d="M146.7,141c-.1,0-.1,0-.2-.1a.44.44,0,0,1-.1-.5c4.3-5.5,10.2-13.5,13.7-18.6.1-.2.3-.2.5-.1s.2.3.1.5c-3.5,5.1-9.4,13.2-13.7,18.7C146.9,140.9,146.8,141,146.7,141Z" fill="#d9ab41"/>
      </g>
      <g id="그룹_60" data-name="그룹 60">
        <path id="패스_51" data-name="패스 51" d="M116.7,67.6h0a.319.319,0,0,1-.3-.3,5.755,5.755,0,0,0-1.9-4.6,4.7,4.7,0,0,0-4.8-.7c-.2.1-.4,0-.4-.2-.1-.2,0-.4.2-.4a5.476,5.476,0,0,1,5.5.7,6.591,6.591,0,0,1,2.2,5.2A.914.914,0,0,1,116.7,67.6Z" fill="#d9ab41"/>
      </g>
      <g id="그룹_61" data-name="그룹 61">
        <path id="패스_52" data-name="패스 52" d="M121.6,158.7a14.757,14.757,0,0,1-6-1.2,19.645,19.645,0,0,1-8.6-8.6c-.1-.2,0-.4.2-.4.2-.1.4,0,.4.2a19.916,19.916,0,0,0,8.3,8.3c1.8.8,6.5,2.3,12.7-.4.2-.1.4,0,.4.2.1.2,0,.4-.2.4A18.941,18.941,0,0,1,121.6,158.7Z" fill="#d9ab41"/>
      </g>
      <g id="그룹_62" data-name="그룹 62">
        <path id="패스_53" data-name="패스 53" d="M102.4,60h0c-.2,0-.4-.2-.3-.4a24.187,24.187,0,0,1,2.9-9.7,13.074,13.074,0,0,1,7.8-6.4c.2,0,.4.1.4.2,0,.2-.1.4-.2.4a12.827,12.827,0,0,0-7.4,6.1,25.439,25.439,0,0,0-2.8,9.5C102.7,59.9,102.6,60,102.4,60Z" fill="#217cde"/>
      </g>
      <g id="그룹_63" data-name="그룹 63">
        <path id="패스_54" data-name="패스 54" d="M211.5,43c-.1,0-.2,0-.2-.1a.33.33,0,0,1,0-.5,11.888,11.888,0,0,1,11.6-3.9c.2,0,.3.2.3.4s-.2.3-.4.3a11.29,11.29,0,0,0-10.9,3.7A.756.756,0,0,1,211.5,43Z" fill="#ff786b"/>
      </g>
      <g id="그룹_64" data-name="그룹 64">
        <path id="패스_55" data-name="패스 55" d="M134.4,63.9h-.2a9.415,9.415,0,0,1-4.3-1.1c-.2-.1-.2-.3-.1-.5s.3-.2.5-.1a8.77,8.77,0,0,0,4,1,7.946,7.946,0,0,0,4.2-1.1c.2-.1.4-.1.5.1s.1.4-.1.5A9.412,9.412,0,0,1,134.4,63.9Z" fill="#ffad91"/>
      </g>
      <g id="그룹_65" data-name="그룹 65">
        <path id="패스_56" data-name="패스 56" d="M127.5,56.4a.319.319,0,0,1-.3-.3.55.55,0,0,0-.3-.5.661.661,0,0,0-.6-.1c-.2.1-.4,0-.4-.2-.1-.2,0-.4.2-.4a1.637,1.637,0,0,1,1.2.2,1.433,1.433,0,0,1,.5,1.1C127.8,56.3,127.7,56.4,127.5,56.4Z" fill="#ffad91"/>
      </g>
      <g id="그룹_66" data-name="그룹 66">
        <path id="패스_57" data-name="패스 57" d="M126.1,58c-.1,0-.3-.1-.3-.2a1.063,1.063,0,0,1,.2-1.2.354.354,0,0,1,.5.5c-.1.1-.2.4-.1.5.1.2,0,.4-.2.4Z" fill="#ffad91"/>
      </g>
      <g id="그룹_67" data-name="그룹 67">
        <path id="패스_58" data-name="패스 58" d="M142.6,64.3h-.2a3.659,3.659,0,0,0-2.3-.4c-.2,0-.4-.1-.4-.3s.1-.4.3-.4a4.039,4.039,0,0,1,2.8.5c.2.1.2.3.1.5C142.8,64.2,142.7,64.3,142.6,64.3Z" fill="#d9ab41"/>
      </g>
      <g id="그룹_68" data-name="그룹 68">
        <path id="패스_59" data-name="패스 59" d="M119.6,67.6h-.1a.4.4,0,0,1-.2-.4,4.214,4.214,0,0,1,2.2-1.9,7.169,7.169,0,0,1,5,0c.2.1.3.3.2.4-.1.2-.3.3-.4.2a6.936,6.936,0,0,0-4.5,0,3.468,3.468,0,0,0-1.8,1.5C119.8,67.6,119.7,67.6,119.6,67.6Z" fill="#d9ab41"/>
      </g>
      <g id="그룹_69" data-name="그룹 69">
        <path id="패스_60" data-name="패스 60" d="M125.8,161.2a7.033,7.033,0,0,1-2.7,3c.1,0,.2.2.3.4a4.661,4.661,0,0,1,.7,3.8c-.1.4-.2.7-.2.7a13.642,13.642,0,0,1,2,1.1c.6.8,0,2.7,0,2.7a6.419,6.419,0,0,1,2,.5,2.489,2.489,0,0,1,.2,2.5,4.357,4.357,0,0,1,2.6.3c.8.7.6,2.3.6,2.3s1.7-1,2.8-.2a2.111,2.111,0,0,1,.8,2.7,6.192,6.192,0,0,1,2.4.4c.4.3.6,2,.6,2s1.8-.5,2.2-.1c.8.8.6,1.7.3,2.7a3.424,3.424,0,0,1,2.2-.5c1.8.4,1.5,3,1.5,3s1.8-.9,3,0a3.048,3.048,0,0,1,.8,2.3,3.13,3.13,0,0,1,2.3.4c1,.7.8,2.5.8,2.5l.6-.2a2.026,2.026,0,0,1,2.5,1.3,1.087,1.087,0,0,1,.1.5c.4-.7,1.1-1.5,1.8-1.2a2.256,2.256,0,0,1,1.1,1.4s1.1-1.4,1.7-1.5c1.1-.2,1.7.5,2.4,1.1-.1-.8,1.1-1.5,1.8-1.7a2.166,2.166,0,0,1,2.3.6,1.814,1.814,0,0,1,1.5-1.4c.7-.2,1.2.3,1.9.5.1-1.9.9-2,2.1-1.5.3-1.8,2.4-1.2,2.4-1.2a6.006,6.006,0,0,1,.5-1.4c.7-1,1.4-.7,2.3-.4-.4-1.4,1.1-2.1,1.7-2.1a6.6,6.6,0,0,1-.9-2.8c-2.7,4-6.6,5.9-11.4,7.7a23.048,23.048,0,0,1-6.9,1,15.978,15.978,0,0,1-6.4-2c-3.1-2-5.2-5.4-7.5-7.5-5.9-5.3-9.5-6.3-12.7-9.2C128.8,171.1,125.2,167.1,125.8,161.2Z"/>
      </g>
      <g id="그룹_70" data-name="그룹 70">
        <path id="패스_61" data-name="패스 61" d="M77.8,232.4a8.2,8.2,0,0,1-1.7,4.1c.1,0,.2.1.4.2a4.737,4.737,0,0,1,1.9,3.4v.7a11.13,11.13,0,0,1,2.3.4c.8.6.9,2.5.9,2.5a6.191,6.191,0,0,1,2.1-.2c1.1.6,1,2.3,1,2.3s1.6-.9,2.5-.6c1,.4,1.3,1.9,1.3,1.9s1.3-1.5,2.6-1.1a2.188,2.188,0,0,1,1.7,2.3,6.529,6.529,0,0,1,2.4-.4c.5.2,1.3,1.7,1.3,1.7s1.6-1.1,2.1-.8c1.1.5,1.1,1.4,1.2,2.4a3.275,3.275,0,0,1,1.9-1.2c1.8-.2,2.4,2.3,2.4,2.3s1.4-1.5,2.8-1c1,.4,1.5,2,1.5,2s1.3-1.1,2.2-.7c1.1.3,1.6,2.1,1.6,2.1l.5-.4c.9-.6,1.7-.6,2.3.3a10.376,10.376,0,0,1,.4,1,1.566,1.566,0,0,1,2.1-.9c.8.3,1.2,1.7,1.2,1.7s.9-1,1.5-1a2.059,2.059,0,0,1,1.9,1.5c.4-1.3.9-1.1,1.2-1.3.4-.2,1.3-.2,1.7,1,.2-1.1.5-1.3,1-1.4a1.964,1.964,0,0,1,1.9.8c0-1.4.5-1.7,1.6-1.3.1-1.3,1.5-.7,1.5-.7a1.974,1.974,0,0,1-.1-.9c.3-.8.6-.6,1.3-.6,0-.8-.2-1.9,2.1-2.1a3.577,3.577,0,0,1-1.5-2.6c-.7,2.3-2.6,3.9-5.4,5.2a18.915,18.915,0,0,1-6.4.9c-2.4,0-5.5-1-7.8-1.6-3.6-.8-7.7-4-10.6-5.2-7.3-3-11.1-2.8-15-4.4C83.8,241.2,79.2,238.2,77.8,232.4Z"/>
      </g>
      <g id="그룹_71" data-name="그룹 71">
        <path id="패스_62" data-name="패스 62" d="M122.2,252.7a24.432,24.432,0,0,1-10.8-2.8c-1.3-.7-2.4-1.3-3.4-1.8-1.4-.8-2.8-1.5-4.5-2.4a27.514,27.514,0,0,0-8.6-2.3,35.4,35.4,0,0,1-10-3.2,10.445,10.445,0,0,1-6-7.6c0-.2.1-.3.3-.4.2,0,.3.1.4.3.3,2.8,2.4,5.5,5.6,7.1a31.125,31.125,0,0,0,9.8,3.1,26.317,26.317,0,0,1,8.8,2.4c1.8.8,3.1,1.6,4.6,2.4a35.078,35.078,0,0,0,3.4,1.8c6.3,3.2,14.7,4.3,19.4-.8a.354.354,0,0,1,.5.5A12.806,12.806,0,0,1,122.2,252.7Z" fill="#217cde"/>
      </g>
      <g id="그룹_72" data-name="그룹 72">
        <path id="패스_63" data-name="패스 63" d="M160.2,191.4a17.524,17.524,0,0,1-4-.5,14.6,14.6,0,0,1-5.6-3.3h0c-.7-.8-1.2-1.5-1.8-2.1a33.473,33.473,0,0,0-5.6-5.8,57.957,57.957,0,0,0-5.5-3.7,54.044,54.044,0,0,1-5.9-4.1,15.95,15.95,0,0,1-5-11.1.265.265,0,0,1,.3-.3h0a.265.265,0,0,1,.3.3,14.832,14.832,0,0,0,4.8,10.6,43.031,43.031,0,0,0,5.9,4c2,1.3,4.1,2.6,5.5,3.7a39,39,0,0,1,5.7,5.9c.5.6,1.1,1.3,1.7,2.1a14.209,14.209,0,0,0,5.4,3.1c6.3,1.7,14.3-1.1,19.4-6.9a.354.354,0,0,1,.5.5A22.129,22.129,0,0,1,160.2,191.4Z" fill="#217cde"/>
      </g>
      <g id="그룹_73" data-name="그룹 73">
        <path id="패스_64" data-name="패스 64" d="M90.4,140.2a4.868,4.868,0,0,1-1.2-.1,10.67,10.67,0,0,1-7.4-4.4c-.1-.2-.1-.4.1-.5s.4-.1.5.1a10.193,10.193,0,0,0,6.9,4.1A10.34,10.34,0,0,0,97,137a18.87,18.87,0,0,0,3.6-4.8,57.349,57.349,0,0,0,5.7-15.1c0-.2.2-.3.4-.3s.3.2.3.4a59.639,59.639,0,0,1-5.8,15.2,18.041,18.041,0,0,1-3.7,5A10.14,10.14,0,0,1,90.4,140.2Z" fill="#d9ab41"/>
      </g>
      <g id="그룹_74" data-name="그룹 74">
        <path id="패스_65" data-name="패스 65" d="M93.4,122.2a11.849,11.849,0,0,1-5.8-1.4c-2.8-1.6-4.4-4.7-3.9-7.4,0-.2.2-.3.4-.3s.3.2.3.4a6.6,6.6,0,0,0,3.5,6.7,13.242,13.242,0,0,0,8.1,1.1,21.637,21.637,0,0,0,6.1-1.9c.2-.1.4,0,.4.2.1.2,0,.4-.2.4a23.148,23.148,0,0,1-6.3,2A11.844,11.844,0,0,1,93.4,122.2Z" fill="#d9ab41"/>
      </g>
      <g id="그룹_75" data-name="그룹 75">
        <path id="패스_66" data-name="패스 66" d="M89.4,119.3a.265.265,0,0,1-.3-.3c0-.2.1-.4.3-.4l2.4-.5c.2,0,.4.1.4.3s-.1.4-.3.4l-2.5.5Z" fill="#d9ab41"/>
      </g>
      <g id="그룹_76" data-name="그룹 76">
        <path id="패스_67" data-name="패스 67" d="M91.1,119.9c-.1,0-.2-.1-.3-.1l-1.4-2c-.1-.2-.1-.4.1-.5s.4-.1.5.1l1.4,2c.1.2.1.4-.1.5Z" fill="#d9ab41"/>
      </g>
      <g id="그룹_77" data-name="그룹 77">
        <path id="패스_68" data-name="패스 68" d="M102.5,114.6h-.1c-4.5-1.7-9-3.3-13.5-4.9a4.216,4.216,0,0,0-1.9-.3,2.768,2.768,0,0,0-2.1,1.8,11.336,11.336,0,0,0-.6,3.1c0,.2-.2.3-.4.3s-.3-.2-.3-.4a10.29,10.29,0,0,1,.7-3.3,3.715,3.715,0,0,1,2.7-2.2,5.087,5.087,0,0,1,2.2.4c4.5,1.5,9.1,3.1,13.6,4.9.2.1.3.3.2.4C102.7,114.5,102.6,114.6,102.5,114.6Z" fill="#d9ab41"/>
      </g>
      <g id="그룹_78" data-name="그룹 78">
        <path id="패스_69" data-name="패스 69" d="M80.6,133.6c-.1,0-.3-.1-.3-.2a19.759,19.759,0,0,1,0-11.3c.1-.2.2-.3.4-.2s.3.2.2.4a20.177,20.177,0,0,0,0,10.9c.1.2,0,.4-.3.4Z" fill="#d9ab41"/>
      </g>
      <g id="그룹_79" data-name="그룹 79">
        <path id="패스_70" data-name="패스 70" d="M91.9,264.4l1.3-5.6a1,1,0,0,1,1.3-.8h0a1,1,0,0,1,.8,1.3L94,264.9a1,1,0,0,1-1.3.8h0A1.213,1.213,0,0,1,91.9,264.4Z" fill="#3697ff"/>
      </g>
      <g id="그룹_82" data-name="그룹 82">
        <g id="그룹_80" data-name="그룹 80">
          <path id="패스_71" data-name="패스 71" d="M118,116.8l-2.2-.4a57.316,57.316,0,0,0-5.8,5.7c-1.2,1.6-1.7,3.6-2.6,7.6,3-4.6,10.7-11.1,13.3-12.4C121.2,117,118,116.8,118,116.8Z" fill="#0e0e0f"/>
        </g>
        <g id="그룹_81" data-name="그룹 81">
          <path id="패스_72" data-name="패스 72" d="M139.3,107.9s9.3-2.3,12.8-2.8a7.157,7.157,0,0,1-1-2.9c-3.4.7-11.9,2.4-11.9,2.4Z" fill="#0e0e0f"/>
        </g>
      </g>
      <g id="그룹_83" data-name="그룹 83">
        <path id="패스_73" data-name="패스 73" d="M104.6,221.7c-.4,0-.8-.1-1.2-.1a45.559,45.559,0,0,1-8.8-1.7,16.331,16.331,0,0,1-7.6-4.8.354.354,0,0,1,.5-.5,15,15,0,0,0,7.2,4.6,43,43,0,0,0,8.7,1.6,4.5,4.5,0,0,0,2,0c1.3-.4,2.1-1.8,2.7-3.1a.316.316,0,0,1,.6.2c-.7,1.4-1.5,3-3.1,3.5A1.929,1.929,0,0,1,104.6,221.7Z" fill="#217cde"/>
      </g>
      <g id="그룹_84" data-name="그룹 84">
        <path id="패스_74" data-name="패스 74" d="M96.5,260.7,132,106.5a2.556,2.556,0,0,0-1.9-3.1h0a2.556,2.556,0,0,0-3.1,1.9L91.5,259.5a2.556,2.556,0,0,0,1.9,3.1h0A2.556,2.556,0,0,0,96.5,260.7Z"/>
      </g>
      <g id="그룹_85" data-name="그룹 85">
        <path id="패스_75" data-name="패스 75" d="M119.4,92.2a16.149,16.149,0,0,0,5.7-2,23.989,23.989,0,0,1,2.7-1.6c2.2-.8,3.7.1,5.3,1.9.8.9,0,1.9.9,2.7a6.533,6.533,0,0,1,4.8.9,2.843,2.843,0,0,1,.9,3.4,5.441,5.441,0,0,1,0,7c1.3,1.4.6,3.8-.5,5.4a17.345,17.345,0,0,1-10.8,6.8,26.914,26.914,0,0,1-12.6-.4c2.4-2,4.1-8.8,4.2-13.6C120.1,99.6,120.5,96.6,119.4,92.2Z"/>
      </g>
      <g id="그룹_86" data-name="그룹 86">
        <path id="패스_76" data-name="패스 76" d="M204.1,71.6h0c-.2,0-.3-.2-.3-.4.5-9.4-4.3-16.1-8.5-19-.2-.1-.2-.3-.1-.5s.3-.2.5-.1c4.4,3,9.3,10,8.8,19.6C204.4,71.4,204.3,71.6,204.1,71.6Z" fill="#d9584c"/>
      </g>
      <g id="그룹_87" data-name="그룹 87">
        <path id="패스_77" data-name="패스 77" d="M112.3,114.9h-.1a.4.4,0,0,1-.2-.4c2.3-5.1,4.5-13.6,3-20.7,0-.2.1-.4.3-.4s.4.1.4.3c1.6,7.3-.6,15.9-3,21.2C112.5,114.8,112.4,114.9,112.3,114.9Z" fill="#d9584c"/>
      </g>
      <g id="그룹_91" data-name="그룹 91">
        <g id="그룹_88" data-name="그룹 88">
          <path id="패스_78" data-name="패스 78" d="M135.3,103.5a.367.367,0,0,1-.3-.1.348.348,0,0,1,.1-.5,11.174,11.174,0,0,0,3.8-5c.1-.2.3-.3.4-.2.2.1.3.3.2.4a11.721,11.721,0,0,1-4,5.3C135.4,103.5,135.4,103.5,135.3,103.5Z" fill="#ff786b"/>
        </g>
        <g id="그룹_89" data-name="그룹 89">
          <path id="패스_79" data-name="패스 79" d="M134.3,110.4a.367.367,0,0,1-.3-.1.348.348,0,0,1,.1-.5,15.442,15.442,0,0,0,4.5-5c.1-.2.3-.2.5-.1s.2.3.1.5a17.6,17.6,0,0,1-4.6,5.2Z" fill="#ff786b"/>
        </g>
        <g id="그룹_90" data-name="그룹 90">
          <path id="패스_80" data-name="패스 80" d="M124,118a.319.319,0,0,1-.3-.3.265.265,0,0,1,.3-.3,19.847,19.847,0,0,0,5.7-.9.3.3,0,0,1,.4.2c0,.1-.1.4-.2.4A21.722,21.722,0,0,1,124,118Z" fill="#ff786b"/>
        </g>
      </g>
      <g id="그룹_92" data-name="그룹 92">
        <path id="패스_81" data-name="패스 81" d="M127.3,39.1a.8.8,0,0,0,.1-1.4c-.3-.3-.9-.4-2,.2a13.764,13.764,0,0,0-3.2,3,12.292,12.292,0,0,0-2.1,4.3,1.376,1.376,0,0,0,.1,1.1c.2.3.4.7.8.7a1.274,1.274,0,0,0,1.1-.5,3.582,3.582,0,0,0,.4-1.1,9.9,9.9,0,0,1,1.4-3.2,14.7,14.7,0,0,1,2.5-2.7A1.884,1.884,0,0,0,127.3,39.1Z" fill="#ff786b"/>
      </g>
      <g id="그룹_93" data-name="그룹 93">
        <path id="패스_82" data-name="패스 82" d="M146.5,87.7c-.1,0-.3-.1-.3-.2-.8-2.9-1.6-5.8-2.5-8.6-.1-.2,0-.4.2-.4.2-.1.4,0,.4.2.9,2.9,1.7,5.8,2.5,8.6.1.2-.1.3-.3.4Z" fill="#d9584c"/>
      </g>
      <g id="그룹_94" data-name="그룹 94">
        <path id="패스_83" data-name="패스 83" d="M111.2,222c-.1,0-.2-.1-.3-.2a6.413,6.413,0,0,1-.6-3.6c0-.2.2-.3.4-.3s.3.2.3.4a7.386,7.386,0,0,0,.5,3.3c.1.2,0,.4-.2.4C111.3,221.9,111.3,222,111.2,222Z" fill="#217cde"/>
      </g>
      <g id="그룹_95" data-name="그룹 95">
        <path id="패스_84" data-name="패스 84" d="M154.5,160.2a5.867,5.867,0,0,1-2.3-.4,16.628,16.628,0,0,1-5.7-3.4c-2.4-1.9-4.9-4.1-5.7-7.2,0-.2.1-.4.2-.4.2,0,.4.1.4.2.7,2.9,3.2,5,5.4,6.8a18.312,18.312,0,0,0,5.5,3.3,6.414,6.414,0,0,0,5.9-1,.354.354,0,0,1,.5.5A5.809,5.809,0,0,1,154.5,160.2Z" fill="#217cde"/>
      </g>
      <g id="그룹_96" data-name="그룹 96">
        <path id="패스_85" data-name="패스 85" d="M159.8,164.7a.265.265,0,0,1-.3-.3,8.984,8.984,0,0,1,.7-5.1.316.316,0,0,1,.6.2,8.356,8.356,0,0,0-.7,4.7.35.35,0,0,1-.3.5Z" fill="#217cde"/>
      </g>
      <g id="그룹_97" data-name="그룹 97">
        <circle id="타원_2" data-name="타원 2" cx="0.9" cy="0.9" r="0.9" transform="translate(142.3 52.9)" fill="#ff786b"/>
      </g>
      <g id="그룹_98" data-name="그룹 98">
        <path id="패스_86" data-name="패스 86" d="M132.5,79.3a5.531,5.531,0,0,0-5,3.6c-.1.2-.1.4-.2.6a3.6,3.6,0,0,0,.1,2.3c.2.5.7.9.8,1.5a3.715,3.715,0,0,1-.7,2.8,3.614,3.614,0,0,0-.2,2.8c.1.4.8,2.5,1.9,2.6a9.287,9.287,0,0,0,4.1-.5c1.3-.6,1.6-1.6,2-3.2s.5-1.9.9-3.8c.4-1.7.6-2.9.8-4,.4-2.6-.5-3.6-1-4A4.97,4.97,0,0,0,132.5,79.3Z" fill="#3697ff"/>
      </g>
      <g id="그룹_99" data-name="그룹 99">
        <path id="패스_87" data-name="패스 87" d="M131.2,84.9a5.918,5.918,0,0,1-2.9-.7c-.2-.1-.2-.3-.1-.5s.3-.2.5-.1a5.782,5.782,0,0,0,4.1.5,5.855,5.855,0,0,0,3.3-2.4c.1-.2.3-.2.5-.1s.2.3.1.5a6.35,6.35,0,0,1-3.7,2.7C132.3,84.8,131.8,84.9,131.2,84.9Z" fill="#217cde"/>
      </g>
    </g>
    <g id="그룹_101" data-name="그룹 101">
      <line id="선_1" data-name="선 1" y1="8" x2="4.5" transform="translate(177.8 15.5)" fill="#ff6557"/>
      <path id="패스_88" data-name="패스 88" d="M177.8,25.5a1.929,1.929,0,0,1-1-.3,1.9,1.9,0,0,1-.7-2.7l4.5-7.9a1.972,1.972,0,1,1,3.4,2l-4.5,7.9A1.936,1.936,0,0,1,177.8,25.5Z" fill="#3697ff"/>
    </g>
    <g id="그룹_102" data-name="그룹 102">
      <line id="선_2" data-name="선 2" y1="8" x2="4.5" transform="translate(38.8 119)" fill="#ff6557"/>
      <path id="패스_89" data-name="패스 89" d="M38.8,129a1.929,1.929,0,0,1-1-.3,1.9,1.9,0,0,1-.7-2.7l4.5-7.9a1.972,1.972,0,0,1,3.4,2L40.5,128A2.062,2.062,0,0,1,38.8,129Z" fill="#3697ff"/>
    </g>
    <g id="그룹_103" data-name="그룹 103">
      <line id="선_3" data-name="선 3" x1="6.5" y1="6.4" transform="translate(111.6 2.4)" fill="#ff6557"/>
      <path id="패스_90" data-name="패스 90" d="M118.1,10.8a1.974,1.974,0,0,1-1.4-.6l-6.4-6.5a1.933,1.933,0,0,1,0-2.8,1.933,1.933,0,0,1,2.8,0l6.4,6.5a1.933,1.933,0,0,1,0,2.8A1.974,1.974,0,0,1,118.1,10.8Z" fill="#3697ff"/>
    </g>
    <g id="그룹_104" data-name="그룹 104">
      <line id="선_4" data-name="선 4" x2="2" y2="8.9" transform="translate(62.9 21.9)" fill="#ff6557"/>
      <path id="패스_91" data-name="패스 91" d="M64.8,32.8a2.023,2.023,0,0,1-2-1.6L61,22.3a2,2,0,0,1,3.9-.9l1.9,8.9a2.065,2.065,0,0,1-1.5,2.4A.9.9,0,0,1,64.8,32.8Z" fill="#ff786b"/>
    </g>
    <g id="그룹_105" data-name="그룹 105">
      <line id="선_5" data-name="선 5" x1="8.9" y1="2" transform="translate(27.3 92.4)" fill="#ff6557"/>
      <path id="패스_92" data-name="패스 92" d="M36.2,96.4h-.4l-8.9-2a2,2,0,0,1,.9-3.9l8.9,2a1.916,1.916,0,0,1,1.5,2.4A1.96,1.96,0,0,1,36.2,96.4Z" fill="#ff786b"/>
    </g>
    <g id="그룹_106" data-name="그룹 106">
      <line id="선_6" data-name="선 6" y1="2.5" x2="8.8" transform="translate(50.1 49.6)" fill="#ff6557"/>
      <path id="패스_93" data-name="패스 93" d="M50.1,54.1a1.927,1.927,0,0,1-1.9-1.5,2,2,0,0,1,1.4-2.5l8.8-2.5a2.026,2.026,0,0,1,1.1,3.9L50.7,54A1.268,1.268,0,0,1,50.1,54.1Z" fill="#ffd31a"/>
    </g>
    <g id="그룹_107" data-name="그룹 107">
      <line id="선_7" data-name="선 7" x1="8.9" y2="2.4" transform="translate(152.6 18.3)" fill="#ff6557"/>
      <path id="패스_94" data-name="패스 94" d="M152.6,22.7a1.927,1.927,0,0,1-1.9-1.5,2.08,2.08,0,0,1,1.4-2.5l8.8-2.3a2.026,2.026,0,0,1,1.1,3.9l-8.8,2.3A1.268,1.268,0,0,1,152.6,22.7Z" fill="#ffd31a"/>
    </g>
  </g>
</svg>
