<?xml version="1.0" encoding="utf-8"?>
<!-- Generator: Adobe Illustrator 25.0.1, SVG Export Plug-In . SVG Version: 6.00 Build 0)  -->
<svg version="1.1" id="Layer_1" xmlns="http://www.w3.org/2000/svg" xmlns:xlink="http://www.w3.org/1999/xlink" x="0px" y="0px"
	 viewBox="0 0 257 178.7" style="enable-background:new 0 0 257 178.7;" xml:space="preserve">
<style type="text/css">
	.st0{fill:#FFCDBD;}
	.st1{fill:#FF786A;}
	.st2{fill:#3697FF;}
	.st3{fill:#FFAD91;}
	.st4{fill:#FF786B;}
	.st5{fill:#217CDE;}
	.st6{fill:#FFE5A6;}
</style>
<g>
	<g>
		<path class="st0" d="M114.9,87.6c-14.2,4.7-23.7,15.6-33.2,30.6C55.6,58.6,39.7,65.6,37,67.9c-3.6,3.1,2.8,11.3-3.2,10.4
			c-15.3-2.1-32.6-3.2-32.6,7c0,3.9,2.2,4.5,2.6,5.9c1,3.1-2,2.7-2,6.6c0,3.7,3.5,5.4,3.7,7.2c0.5,3.7-0.8,10.7,14.8,15.9
			c4.6,1.5,9.9,0.8,13.9,3.4c3,1.9,5,4.9,6.9,7.9c14.7,22.6,20,40.1,45.9,41.8"/>
	</g>
	<g>
		<g>
			<path class="st1" d="M135.7,80.3c3.3,1.6,4.4,1.9,8.1,1.5c7.1-0.8,6-8.5,4.5-8.7c4.8,0.8,9.5-4.1,9.7-4.4
				c4.8-6.2,1.4-16.4-4.8-17c4.6-2.7-2.9-25.8-34.7-22c-15.7,1.9-16.6,11-14.9,13.6c1.4,2.1,4.3,2.5,6.8,2.6
				c-6.4,2.8-13.3,7-14.6,13.9c-1.3,6.9,4.8,14.1,11.8,14c-2.4-0.1-5.2,12.9,14.1,9.3c3.4-0.6,6.9-3.6,10.3-3.7
				C132.7,79.3,133.8,79.3,135.7,80.3z"/>
		</g>
		<g>
			<path class="st0" d="M155,95.7c12.4,4.1,20.8,13.6,29.1,26.8c22.8-52.2,36.7-46.1,39.1-44c3.1,2.7-2.5,9.9,2.8,9.1
				c13.4-1.8,28.5-2.8,28.5,6.2c0,3.4-1.9,3.9-2.3,5.2c-0.9,2.7,1.7,2.4,1.7,5.8c0,3.3-3,4.7-3.2,6.3c-0.4,3.2,0.7,9.3-13,13.9
				c-4,1.3-8.7,0.7-12.2,3c-2.6,1.7-4.4,4.3-6,6.9c-12.9,19.8-16.5,37.7-39.1,39.2"/>
		</g>
		<g>
			<g>
				<path class="st2" d="M183.8,119c-9.2-15.1-16.9-24.3-32.3-30.6c-7.7-3.2-21.3-5.8-36.3-0.7l0-0.1C101,92.3,91.4,103.2,82,118.2
					c-6.2-14.2-16.2-31.6-16.2-31.6l-26.9,41.9c0,0,18.9,45.4,45.4,46.8c9.2,0.5,12.9-5.2,12.9-5.2l-0.9,8.1l72.3,0.4l-1.3-9
					c0,0,4.8,4.7,16.4,4.2c17.9-0.8,27.8-23.6,38.4-42.6c1.2-2.1-20-41.6-20-41.6S193.6,99.5,183.8,119z"/>
			</g>
		</g>
		<g>
			<g>
				<path class="st0" d="M140.4,77.6c0.3,5.1-0.1,8.6-0.4,11.3c-0.5,4.2-3.3,9.6-8.2,9.8c-3.1,0.1-6.9-5.1-8.1-10.2
					c-0.6-2.5-0.3-8.4-0.3-10.5c0.2,0,0.3,0,0.5,0"/>
			</g>
			<g>
				<circle class="st0" cx="131.8" cy="61.7" r="19.3"/>
			</g>
			<g>
				<path class="st3" d="M131.9,82.2c-0.1,0-0.2,0-0.4,0c-2.9-0.1-5.4-0.7-7.6-1.9c-0.3-0.2-0.4-0.5-0.2-0.8
					c0.2-0.3,0.5-0.4,0.8-0.2c2.1,1.1,4.4,1.7,7.1,1.8c2.4,0.1,5.7-0.8,7.3-1.8c0.3-0.2,0.6-0.1,0.8,0.2c0.2,0.3,0.1,0.6-0.2,0.8
					C137.9,81.3,134.5,82.2,131.9,82.2z"/>
			</g>
			<g>
				<g>
					<path class="st3" d="M6.9,91.2c-0.2,0-0.4-0.1-0.5-0.3c-0.1-0.3,0-0.6,0.3-0.8c7.8-3.7,18.1-2.2,25.3-0.4
						c0.3,0.1,0.5,0.4,0.4,0.7c-0.1,0.3-0.4,0.5-0.7,0.4c-5.8-1.5-16.7-3.4-24.5,0.3C7.1,91.2,7,91.2,6.9,91.2z"/>
				</g>
				<g>
					<path class="st3" d="M8,104.1c-0.2,0-0.3-0.1-0.5-0.2c-0.2-0.3-0.2-0.6,0.1-0.8c3.5-2.7,14.9-6.2,21.6-3.9
						c0.3,0.1,0.5,0.4,0.4,0.7c-0.1,0.3-0.4,0.5-0.7,0.4c-6.2-2.2-17.3,1.2-20.5,3.7C8.3,104.1,8.1,104.1,8,104.1z"/>
				</g>
				<g>
					<path class="st3" d="M11.4,111.7c-0.1,0-0.3-0.1-0.4-0.2c-0.2-0.2-0.2-0.6,0-0.8c3.6-3.6,12.3-6,17.2-4.7
						c0.3,0.1,0.5,0.4,0.4,0.7c-0.1,0.3-0.4,0.5-0.7,0.4c-4.5-1.2-12.8,1.1-16.1,4.4C11.7,111.6,11.5,111.7,11.4,111.7z"/>
				</g>
				<g>
					<path class="st3" d="M18.1,117.3c-0.2,0-0.4-0.1-0.5-0.3c-0.2-0.3-0.1-0.6,0.2-0.8c2.5-1.5,5.2-2.6,8.1-3.1
						c0.3-0.1,0.6,0.1,0.7,0.5c0.1,0.3-0.1,0.6-0.5,0.7c-2.7,0.5-5.3,1.6-7.7,3C18.3,117.3,18.2,117.3,18.1,117.3z"/>
				</g>
				<g>
					<path class="st3" d="M36.4,108.5C36.4,108.5,36.4,108.5,36.4,108.5c-0.4,0-0.6-0.3-0.6-0.6c0.2-2.4,1.8-12.6,4.9-18.1
						c0.2-0.3,0.5-0.4,0.8-0.2c0.3,0.2,0.4,0.5,0.2,0.8C39,95.3,37.2,105,37,108C37,108.3,36.7,108.5,36.4,108.5z"/>
				</g>
			</g>
			<g>
				<g>
					<path class="st3" d="M248.9,95.9c-0.1,0-0.2,0-0.2-0.1c-5.6-2.6-13.9-2.7-23.5-0.3c-0.3,0.1-0.6-0.1-0.7-0.4
						c-0.1-0.3,0.1-0.6,0.4-0.7c7-1.8,16.9-3.2,24.3,0.4c0.3,0.1,0.4,0.5,0.3,0.8C249.3,95.8,249.1,95.9,248.9,95.9z"/>
				</g>
				<g>
					<path class="st3" d="M247.5,106.2c-0.1,0-0.3,0-0.4-0.1c-3.1-2.4-13.7-5.6-19.6-3.6c-0.3,0.1-0.6-0.1-0.7-0.4
						c-0.1-0.3,0.1-0.6,0.4-0.7c6.4-2.2,17.4,1.1,20.7,3.7c0.3,0.2,0.3,0.6,0.1,0.8C247.9,106.1,247.7,106.2,247.5,106.2z"/>
				</g>
				<g>
					<path class="st3" d="M244.4,113.8c-0.2,0-0.3-0.1-0.4-0.2c-2.9-3.1-10.3-5.3-14.3-4.2c-0.3,0.1-0.6-0.1-0.7-0.4
						c-0.1-0.3,0.1-0.6,0.4-0.7c4.4-1.2,12.3,1,15.5,4.5c0.2,0.2,0.2,0.6,0,0.8C244.7,113.8,244.5,113.8,244.4,113.8z"/>
				</g>
				<g>
					<path class="st3" d="M239.3,118.6c-0.1,0-0.2,0-0.3-0.1c-2.3-1.4-4.8-2.3-7.4-2.9c-0.3-0.1-0.5-0.4-0.5-0.7
						c0.1-0.3,0.4-0.5,0.7-0.5c2.7,0.6,5.4,1.6,7.8,3c0.3,0.2,0.4,0.5,0.2,0.8C239.7,118.5,239.5,118.6,239.3,118.6z"/>
				</g>
				<g>
					<path class="st3" d="M220.6,112.6c-0.3,0-0.6-0.2-0.6-0.5c-0.2-2.9-1.9-12.2-4.6-16.9c-0.2-0.3-0.1-0.6,0.2-0.8
						c0.3-0.2,0.6-0.1,0.8,0.2c3,5.3,4.6,15.1,4.7,17.4C221.2,112.3,221,112.6,220.6,112.6C220.6,112.6,220.6,112.6,220.6,112.6z"/>
				</g>
			</g>
			<g>
				<circle class="st4" cx="131.9" cy="69.7" r="1.6"/>
			</g>
			<g>
				<g>
					<ellipse class="st0" cx="112.5" cy="65.4" rx="4" ry="4.8"/>
				</g>
				<g>
					<g>
						<path class="st3" d="M113.8,65.4c-0.3,0-0.6-0.3-0.6-0.6c0-0.4-0.2-0.7-0.5-0.9c-0.3-0.2-0.7-0.3-1-0.2
							c-0.3,0.1-0.6-0.1-0.7-0.4c-0.1-0.3,0.1-0.6,0.4-0.7c0.7-0.2,1.5-0.1,2.1,0.4c0.6,0.4,0.9,1.2,0.9,1.9
							C114.4,65.2,114.1,65.4,113.8,65.4z"/>
					</g>
					<g>
						<path class="st3" d="M111.4,68.2c-0.2,0-0.4-0.1-0.5-0.4c-0.3-0.7-0.1-1.6,0.4-2.2c0.2-0.2,0.6-0.2,0.8,0
							c0.2,0.2,0.2,0.6,0,0.8c-0.2,0.2-0.3,0.6-0.2,0.9c0.1,0.3,0,0.6-0.3,0.8C111.5,68.2,111.5,68.2,111.4,68.2z"/>
					</g>
				</g>
			</g>
			<g>
				<g>
					<ellipse class="st0" cx="151" cy="65.4" rx="3.9" ry="4.8"/>
				</g>
				<g>
					<g>
						<path class="st3" d="M149.8,65.4c-0.3,0-0.6-0.3-0.6-0.6c0-0.7,0.4-1.4,0.9-1.9c0.6-0.4,1.4-0.6,2.1-0.4
							c0.3,0.1,0.5,0.4,0.4,0.7c-0.1,0.3-0.4,0.5-0.7,0.4c-0.3-0.1-0.7,0-1,0.2c-0.3,0.2-0.5,0.6-0.5,0.9
							C150.4,65.2,150.1,65.4,149.8,65.4z"/>
					</g>
					<g>
						<path class="st3" d="M152.2,68.2c-0.1,0-0.2,0-0.2,0c-0.3-0.1-0.4-0.5-0.3-0.8c0.1-0.3,0.1-0.7-0.2-0.9
							c-0.2-0.2-0.2-0.6,0-0.8c0.2-0.2,0.6-0.2,0.8,0c0.5,0.6,0.7,1.4,0.4,2.2C152.6,68.1,152.4,68.2,152.2,68.2z"/>
					</g>
					<g>
						<path class="st5" d="M129.5,102.3C129.5,102.3,129.5,102.3,129.5,102.3c-0.8-0.1-1.6-0.1-2.5-0.1c-2.8-0.1-5.8-0.2-6.3-2.2
							c-0.2-0.9,0.5-1.4,1.1-1.8c0.6-0.4,0.9-0.7,0.9-1.1c-0.1-0.5-1.2-1.3-2.2-1.9c-1.8-1.2-3.8-2.6-3.6-4.4
							c0.1-1.5,1.5-2.8,4.5-4.1c0.3-0.1,0.6,0,0.8,0.3c0.1,0.3,0,0.6-0.3,0.8c-3,1.4-3.7,2.5-3.8,3.2c-0.1,1.2,1.7,2.4,3.1,3.4
							c1.4,0.9,2.6,1.8,2.7,2.8c0.1,1-0.7,1.7-1.3,2.1c-0.2,0.2-0.6,0.5-0.7,0.6c0.3,1.2,3,1.3,5.2,1.3c0.9,0,1.8,0.1,2.5,0.2
							c0.3,0,0.5,0.3,0.5,0.7C130.1,102.1,129.8,102.3,129.5,102.3z"/>
					</g>
					<g>
						<path class="st5" d="M136.6,102.3c-0.3,0-0.6-0.2-0.6-0.6c0-0.3,0.2-0.6,0.6-0.6c4.5-0.2,5.4-0.9,5.5-1.2
							c0.2-0.3-0.2-0.9-0.5-1.4c-0.4-0.7-0.9-1.5-0.5-2.2c0.4-0.9,1.4-1.2,2.5-1.6c1.8-0.6,2.9-1.1,2.9-2.6c0-2.3-3.5-4.3-4.9-4.9
							c-0.3-0.1-0.4-0.5-0.3-0.8c0.1-0.3,0.5-0.4,0.8-0.3c0.2,0.1,5.6,2.4,5.6,6c0,2.4-2.1,3.1-3.7,3.7c-0.8,0.3-1.7,0.6-1.9,1
							c-0.1,0.2,0.3,0.7,0.5,1.1c0.5,0.7,1,1.7,0.5,2.6C142.6,101.6,140.6,102.2,136.6,102.3C136.6,102.3,136.6,102.3,136.6,102.3z"
							/>
					</g>
					<g>
						<path class="st5" d="M135.2,170.3c-0.3,0-0.6-0.2-0.6-0.5c-1.6-20.1-2.7-40.5-3.1-60.6c0-0.3,0.2-0.6,0.6-0.6
							c0.3,0,0.6,0.2,0.6,0.6c0.4,20.1,1.4,40.5,3.1,60.6C135.8,170,135.5,170.3,135.2,170.3C135.2,170.3,135.2,170.3,135.2,170.3z"
							/>
					</g>
					<g>
						<path class="st5" d="M181.6,135.7c-0.3,0-0.6-0.2-0.6-0.5c-0.4-4.8,0.1-9.7,1.5-14.3c0.1-0.3,0.4-0.5,0.7-0.4
							c0.3,0.1,0.5,0.4,0.4,0.7c-1.4,4.4-1.9,9.2-1.5,13.8C182.2,135.4,181.9,135.7,181.6,135.7
							C181.6,135.7,181.6,135.7,181.6,135.7z"/>
					</g>
					<g>
						<path class="st5" d="M88.7,135.7c-0.3,0-0.6-0.2-0.6-0.6c-0.2-4.5-2.4-8.7-4.4-12.4c-0.4-0.8-0.8-1.5-1.2-2.2
							c-0.1-0.3,0-0.6,0.3-0.8c0.3-0.1,0.6,0,0.8,0.3c0.4,0.7,0.8,1.5,1.2,2.2c2,3.8,4.3,8.2,4.5,12.9
							C89.3,135.4,89.1,135.7,88.7,135.7C88.7,135.7,88.7,135.7,88.7,135.7z"/>
					</g>
					<g>
						<path class="st5" d="M98.5,167.4C98.5,167.4,98.5,167.4,98.5,167.4c-0.4,0-0.6-0.3-0.6-0.6c2.6-25.4,13.9-63.6,14-64
							c0.1-0.3,0.4-0.5,0.7-0.4c0.3,0.1,0.5,0.4,0.4,0.7c-0.1,0.4-11.4,38.5-14,63.8C99,167.2,98.8,167.4,98.5,167.4z"/>
					</g>
					<g>
						<path class="st5" d="M166.4,166.2c-0.3,0-0.5-0.2-0.6-0.5c-1-9.3-7.6-43.9-14.1-63.8c-0.1-0.3,0.1-0.6,0.4-0.7
							c0.3-0.1,0.6,0.1,0.7,0.4c6.5,20,13.1,54.7,14.1,64C167,165.9,166.8,166.2,166.4,166.2C166.5,166.2,166.4,166.2,166.4,166.2z"
							/>
					</g>
					<g>
						<path class="st1" d="M110.2,52.1c-1.4,0.6-2.1,2.3-1.9,3.8c0.2,1.5,2.1,3.8,3.4,4.7c2.3,1.8,4.1,2.2,7,2.2
							c6.3,0,8.7-4.1,8.7-4.1s0.1,2.8,3.4,4c6.7,2.6,11.5-2.7,11.5-2.7s2.2,3.3,5.8,3.1c9.2-0.6,5.6-5.8,5.8-8.2
							c0.1-1.7-0.7-3.3-1.5-4.7c-1.5-2.6-3.2-5-5.5-6.9c-4.9-3.9-12-4.4-18.1-2.8C122.6,42.2,119,48.7,110.2,52.1z"/>
					</g>
				</g>
			</g>
		</g>
		<g>
			<g>
				<path class="st6" d="M181.1,62.7c-0.6,0-1.1-0.4-1.2-1l0-0.2c-0.7-4.1-0.8-6.2-0.5-7.1c0.7-2.1,2.5-3.2,4.1-4.3
					c0.8-0.5,1.6-1,2.3-1.6c1.5-1.4,2-3.9,1.4-6.2c-0.7-2.5-3.5-4.4-6.4-4.6c-3-0.2-5.4,1.5-6.6,4.6c-0.2,0.6-0.9,0.9-1.5,0.7
					c-0.6-0.2-0.9-0.9-0.7-1.5c1.6-4,4.9-6.2,8.9-6.1c4,0.2,7.6,2.8,8.6,6.3c0.9,3.1,0.1,6.5-2,8.5c-0.8,0.8-1.7,1.4-2.7,1.9
					c-1.5,0.9-2.7,1.7-3.1,3c-0.1,0.3-0.2,1.4,0.6,6l0,0.2c0.1,0.6-0.3,1.2-1,1.3C181.3,62.7,181.2,62.7,181.1,62.7z"/>
			</g>
			<g>
				<circle class="st6" cx="182.4" cy="66.2" r="1.5"/>
			</g>
		</g>
	</g>
	<g>
		<path class="st5" d="M111.5,165.9l-5.3-0.2l2.2-19l5,0.4L111.5,165.9z M107.5,164.5l2.9,0.1l1.7-16.6l-2.7-0.2L107.5,164.5z"/>
	</g>
	<g>
		<path class="st5" d="M153.9,166.2l-1.9-19.1l4.9-0.7l2.2,18.9L153.9,166.2z M153.2,148.1l1.7,16.7l2.9-0.5l-1.9-16.6L153.2,148.1z
			"/>
	</g>
</g>
<g>
	<g>
		<path class="st6" d="M80,22.4c-0.4-0.4-0.5-1-0.1-1.5l0.1-0.2c2.4-3.4,3.8-5,4.7-5.4c2-1,4.1-0.5,5.9-0.1c1,0.2,1.9,0.4,2.8,0.4
			c2.1,0,4.2-1.3,5.4-3.4c1.2-2.2,0.7-5.6-1.3-7.8c-2-2.2-4.9-2.7-7.9-1.4c-0.6,0.3-1.3,0-1.5-0.6c-0.3-0.6,0-1.3,0.6-1.5
			c3.9-1.7,7.9-1,10.5,2c2.7,3,3.4,7.4,1.6,10.5c-1.6,2.9-4.5,4.7-7.4,4.6c-1.1,0-2.2-0.3-3.2-0.5c-1.7-0.4-3.1-0.7-4.3-0.1
			c-0.2,0.1-1.1,0.8-3.8,4.7l-0.1,0.2c-0.4,0.5-1.1,0.6-1.6,0.3C80.1,22.5,80.1,22.5,80,22.4z"/>
	</g>
	<g>
		<circle class="st6" cx="78.4" cy="25.8" r="1.5"/>
	</g>
</g>
</svg>
