<?xml version="1.0" encoding="utf-8"?>
<!-- Generator: Adobe Illustrator 25.0.1, SVG Export Plug-In . SVG Version: 6.00 Build 0)  -->
<svg version="1.1" id="South_Korea" xmlns="http://www.w3.org/2000/svg" xmlns:xlink="http://www.w3.org/1999/xlink" x="0px"
	 y="0px" viewBox="0 0 169.1 299.6" style="enable-background:new 0 0 169.1 299.6;" xml:space="preserve">
<style type="text/css">
	
		.st0{display:none;fill-rule:evenodd;clip-rule:evenodd;fill:#FFE5A7;stroke:#FFFFFF;stroke-width:0.5;stroke-linecap:round;stroke-linejoin:round;}
	.st1{fill:#FFE5A7;stroke:#FFFFFF;stroke-width:0.5;stroke-linecap:round;stroke-linejoin:round;}
	.st2{display:none;}
	
		.st3{display:inline;fill-rule:evenodd;clip-rule:evenodd;fill:#FFE5A7;stroke:#FFFFFF;stroke-width:0.5;stroke-linecap:round;stroke-linejoin:round;}
	.st4{display:inline;fill:#FFE5A7;stroke:#FFFFFF;stroke-width:0.5;stroke-linecap:round;stroke-linejoin:round;}
	.st5{display:none;fill:#FFE5A7;stroke:#FFFFFF;stroke-width:0.5;stroke-linecap:round;stroke-linejoin:round;}
	.st6{display:inline;fill:#FFE5A7;stroke:#FFFFFF;stroke-width:0.5;stroke-miterlimit:10;}
</style>
<polygon id="Jeju" class="st0" points="49.5,284.5 49.8,285.2 49.6,285.4 49.2,285.6 48.9,285.9 48.9,286.2 49.2,286.7 49.2,287 
	49,287.3 48.6,287.8 48.5,288 47.7,288.9 46.2,290.1 45.8,291.1 45.1,292.3 45.1,292.8 44.8,293.5 43.7,293.6 43.2,293.8 
	42.1,293.7 40.3,295.1 35.8,295.9 34.3,297.2 32.5,297.6 30.5,297.4 28.2,297.8 26.4,297.3 22.1,297.3 20.8,298 20,299.3 
	19.3,299.5 18.6,299.1 17.5,297.5 16.2,297 14.9,295.7 14.4,294 15.2,291.8 16,290.5 16.4,290 18,289.1 19.3,286.8 20.5,286.5 
	21.1,285.2 23.2,284.5 27.7,283.2 28.9,282.2 33.2,281.8 36.2,280.5 36.9,280.7 40.5,280.1 42.6,279.9 44,280.1 44.5,280.9 
	45.2,281.5 47.3,282.3 48,283 48.4,284.6 48.9,285.2 49.1,285 49.3,284.7 "/>
<path id="jb" class="st1" d="M20.7,168.4l-0.2,0.2l-0.3,0.3l-0.5-0.1h-0.2l0.1,0.3l-0.2,0.1h-0.3l-0.2,0.2l-0.2,0.1l-0.1,0.1
	l0.2,0.1l0.1,0.1l-0.5,0.2l-0.1,0.3l0.1,0.4l0.2,0.2L19,171l0.1-0.1l0.4-0.2l0.5-0.6l0.8-0.7l0.2-0.4l-0.1-0.3L20.7,168.4z
	 M91,147.1l-0.6,0.6l-0.6,0.5l-0.7-0.4l-0.6-0.6L87,148l-1.4,0.9l-0.7-0.2l-0.4-0.5l-2-0.7l-0.7-0.8l-0.8-0.5l-0.3,0.4l-0.4,0.1
	l-0.4-0.4l-0.4-0.5l-1.1,1.1l-1.1,1l-1.3,0.4l-1.3,0.1l-1,0.2l-2.6-0.3l-0.2-0.4l0.3-0.6l-0.3-0.5l-0.6-0.1l-1.5-0.7l-2-3.6
	l-1.4-1.3l-0.7,0.8l-0.6,0.9l-0.9,0.2l-0.6,0.3l-0.6,0.2l-2.4,0.5l-1.2,0.5l-1.3,0.2l-1-1.5l0.4-2.4l-1.6-0.3l-4.6,1.5l-2.5,0.5
	l-2.1,0.2l-2,2.5l0,0l2.6-0.8l-0.1,0.8l-0.9,0.6l-2.1,0.8l-1.6,1.3l-0.9,0.5l-0.8-0.2l-0.7,0.4l-2.2,0.1l-2.2,0.3l-4,0.4l0.2,1.7
	l2-0.3l1.3,0.5l0.4,0.4l0.1,1.3v0.9l2.1,0.2l2.2,0.1H40l3.3-1.3l0.1-0.1l0.5,0.2l0.5,0.4l0.2,0.4l-0.2,0.2l-0.6,0.1l-0.2,0.3
	l-0.1,0.4l-0.3,0.5l-0.4,0.2h-0.5l-2.5-0.2l-0.4,0.1l-0.4,0.3l-0.4,0.5l-0.1,0.5l0.4,0.2l0.8,0.6l1,0.7l0.9,0.4l0.4,0.3l0.6,0.5
	l-0.1,0.6l-0.2,0.6l-0.2,0.5l-0.5-0.8l-0.7-0.2l-1-0.8l-1.6-0.2l-1.6,0.2l-0.3,0.2l-0.5,0.3l-0.7,0.4l-0.2,1.6l-1.2,1.7l-1.6,0.9
	l-1.3,0.8l-0.8,1l-0.9,0.9l-1,0.5v0.6l-0.1,1.5l2.2,1.4l6.3-1l0.7,0.4l0.4,0.9l0.6,2l-0.6-0.2l-0.8-1l-0.8-0.9l-0.9,0.2l-0.6,0.9
	l-0.6,0.5l-1.4,0.1l-1.7,0.3l-1.5,0.5l-1,1.5l-1.2,2.8l-0.8,1.6l-0.3,1.3l0.2,0.6l0.6,0.7l0,0l0.9-0.3l4.3-1.2l1.3,0.3l-0.3,2
	l-0.3,1.5l-0.1,1.5l1.1,0.4l1.3-0.3l1.4-0.5l1.5-0.2l0.6-0.5l0.6-0.4l0.8-0.2l0.7-0.4l0.6-0.5l0.4-0.8l-0.1-0.6v-0.6l0.6-0.4
	l0.4-0.6v-0.7v-0.7l1.1-1l1.5,0.1l0.7-0.9l0.8,0.1l0.8,0.3l1.4,1.1l2.1,2.8h1.4l0.1-0.8l0.3-0.7l0.4-0.4l0.3-0.6l1.3-0.1l0.9,1.4
	l-0.4,1.6l0.3,1l0.9,1l-0.1,1.8l0.9,1.1l1.7,0.2l1.3-0.8l1.4-0.2h0.9l0.8-0.2l0.7,0.5l0.8,0.5h1.6l1.6-0.2h1.5l1.4-0.2l1.3-1.4
	l1.6-0.9l2.9,1l2.5,2.1l0.9-1l0.1-1.4l0.3-1.5l1.9-2.2l0.3-1.5l-0.6-0.4l-0.5-1l0.1-1.4l-0.5-1.3l-0.1-0.7l-0.2-0.6l-1.1-0.5l0-1.4
	l0.6-1.3l0.4-1.7l0.5-1.7l0.7-1.3l0.6-1.2l0.1-1.7l0.5-1.4l1-0.9l1-1l0.8-1.8l0.4-0.3l0.6,0.1l1.1-0.3l2.2-1.2l0.4-1.2l1.6-1.8
	l0.2-3.5L91,147.1z"/>
<g id="jn_1_" class="st2">
	<polygon id="Kyongsang-namdo" class="st3" points="86.8,219.5 87.3,219.6 87.7,220.2 88,221 88.4,222.4 88.4,223.2 88.3,223.9 
		87.9,224.7 87.5,225.1 87,225.2 86.5,224.9 84.9,223.3 84.7,222.7 85,221.7 85.2,221.4 86,220.8 86.2,220.5 86.5,219.1 85.8,218.4 
		85.9,217.9 86.4,217.7 87,217.6 87.4,217.9 87.6,218.4 87.3,219 	"/>
	<path id="jn" class="st4" d="M61.7,230.3l-0.7,0l-1.4,0.2l-1.5,0.3l-0.7,0.3l-0.6,0.5l0.4,0.3l0.2,0.2v0.3l-0.2,0.3v0.4l1.1,0.7
		l0.5,0.2l0.7,0.1l1.8-0.3l0.8-0.3l0.6-0.8l0.1-1l-0.5-0.9L61.7,230.3z M56,237.9l-0.3-0.4l-0.2-0.2l-0.2-0.2l-0.5,0.1l-0.6,0.2
		l-0.4-0.2l-0.2-0.5l-0.3-0.4l-0.3-0.3H53v0.1l-0.4,0.4l-0.4,0.5l-0.3,0.2l-0.3,0.1l-0.1,0.1l0.1,0.1l0.3,0.1l0.8,0.1l0.3,0.2
		l0.1,0.3l-0.1,0.2l1,0.2l0.2,0.2l-0.3,0.2l-0.2,0.3l0,0.5l0.5-0.2l0.8-0.6l0.3-0.3l-0.3-0.1l-0.1-0.1l0.3-0.1l0.4,0.1l0.4,0.2
		l0.3-0.1l-0.1-0.2L56,237.9z M87.7,204.4v-1l-0.6-1.5l-2.8-3l-0.5-1l-0.4-1.1l-1-1l-1.1-0.8l-0.6-1.1l-0.2-3l-0.4-1.4l-0.9-1.1
		l0.2-1.2l-2.5-2.1l-2.9-1l-1.6,0.9l-1.3,1.4l-1.4,0.2h-1.5l-1.6,0.2H65l-0.8-0.5l-0.7-0.5l-0.8,0.2h-0.9l-1.4,0.2l-1.3,0.8
		l-1.7-0.3l-1.1-1.1l0.1-1.8l-0.9-1l-0.3-1l0.4-1.6l-0.9-1.4l-1.3,0.1l-0.3,0.6l-0.4,0.4l-0.3,0.7l-0.1,0.8H51l-2.1-2.8l-1.4-1.2
		l-0.8-0.3l-0.8-0.1l-0.7,0.9l-1.5-0.1l-1.1,1v0.7v0.7l-0.4,0.6l-0.6,0.4v0.6l0.1,0.6l-0.4,0.8l-0.6,0.5l-0.7,0.4l-0.8,0.2l-0.6,0.4
		l-0.6,0.5l-1.5,0.2l-1.4,0.5l-1.3,0.3l-1.1-0.4l0.1-1.5l0.3-1.5l0.3-2l-1.3-0.3l-4.3,1.2l-0.9,0.3l0,0l0.9,1l0.1,0.4h-0.4l-0.8-0.2
		l-0.7-0.9l-0.3-0.3l-1,1.5l-0.4,0.8l-0.1,0.9l0.1,0.4l0.1,0.3l0.1,0.4l-0.1,0.4l-0.3,0.3l-0.3,0.2l-0.3,0.3l-0.2,0.5l0.4,0.1
		l0.2,0.1l0.1,0.1l0.3,0.1l-0.8,0.2h-0.9l-0.8,0.2l-0.5,0.6h1.3l0.6-0.1l0.6-0.2l-0.1,0.8l0.2,0.4l0.5,0.3l-0.1,0.5l-0.2,0.3
		l-0.2,0.2l-0.1,0.3l0.3,0.8l1.5,1.7l0.5,1.2l0.3,0.3l0.4,0.2l0.8,0.2l0.2,0.4v1l-0.1,0.9l-1.1,2.5l-0.5-0.5l-0.3-0.5l-0.1-0.6
		l0.2-0.6l-0.3-0.2h-0.8l-0.4-0.2l-0.5-0.3l-0.2-0.2v-0.3l-0.2-0.7L23,197l-0.2,0.1h-0.2l-0.1-0.3l0.1-0.3l0.2-0.5l0.1-1l-0.1-0.5
		l-0.3-0.6l-0.4,1.2l-0.3,0.6l-0.6,0.4l-0.4-0.9l-0.8-0.4l-0.9,0.1l-0.6,0.8l0.2,0.9l1.1,1.5l-0.4,0.6l0.6,0.8h0.6l0.3-0.7l-0.4-1.2
		l0.9,0.3l0.8,0.7l1.3,1.8l0.3,1.1l-1.2,1.2l0.1,1.2l-1.1-0.2h-0.5l-0.5,0.3l0.2,0.5l0.3,0.4l0.3,0.3l0.4,0.3l-0.2,0.1l-0.4,0.3
		l0.6,0.4l0.8,0.2l0.8-0.1l0.6-0.6v-0.5l-0.2-0.6l-0.1-0.5l0.4-0.2l0.3-0.2l0.2-0.3l0.3-0.3l0.5-0.1l1.1,0.3l-0.3,0.5l-0.9,0.6
		l-0.6,0.6l-0.1,0.9l0.3,1.1l0.5,0.9l0.5,0.4l-0.6,0.5l-0.2,0.4l0.1,0.8v0.4l-0.1,0.4l-0.2,0.4l-0.3,0.5l-0.9,0.9l-0.3,0.5l0.1,0.6
		l0.5,0.2l1-0.3H26l0.1-0.6l0.4-0.2l1.2,0.3l0.6-0.2l0.3-0.3l0.4-0.2l0.6,0.3l-0.2,0.3l-0.2,0.6l-0.2,0.3l0.3,0.2v0.1l0.9-0.1
		l0.5-0.6l0.5-1.9l0.5-1.1l0.1-0.1l-0.1-0.5l-0.3-0.9l0-0.5l0.5-0.7l0.7-0.4l0.6,0.2l0.4,0.8v0.6l-0.2,0.3l-0.2,0.3l-0.2,0.4v0.6
		l0.1,0.4l0.1,0.4l-0.2,0.5l2.3-0.2l1,0.2l0.7,0.8h-0.5l-0.4,0.1l-0.7,0.4l0.3,0.7l-1-0.1l-2-0.6l-1.1,0.3l-0.5,0.7l-0.1,1l0.2,1
		l-0.2-0.1l-0.1-0.1l-0.1-0.1l-0.2-0.1l-0.7,0.1l-2-1.5l-1.7,0.8l-1.3-0.2l-0.6,0.2l-0.6,0.8l0.1,0.5l1,0.3l1.1-0.3l0.9,0.6L28,217
		l1.1,0.2l0.8,0.4l1.5,1.9l1,0.7l-0.3,0.4l1.3,1.2l0.8,0.5l0.9,0.1l-0.9,0.2l-1.3-0.4l-1.1-0.6l-0.8-0.5l-0.6,0.1l0.9,1.2l-0.2,0.2
		l-0.5-0.3l-0.6-0.5l-0.5-0.5l-0.8-0.3l-0.6-0.4l-0.3-0.4l-0.5-0.3l-0.1-0.3v-0.2v-0.2l0.1-0.7l-0.2-0.4l-1.9-0.4l-1.2,0.1l0.3,1
		l-0.3,0.8l0.1,1.4l0.3,1l0.5,0l0.3-0.8l0.6-0.1l-0.1,1.2l0.6,0.6l0.4,0.7l0.9,0.2l0.3,0.1l0.5-0.1l-0.4,0.9l-0.5,0l-1-0.7l-2.2-0.4
		l-0.6-0.3l-0.9-2.6l-0.1-0.6l-0.1-0.6l0.1-0.5l0.4-0.6l-1.4-2l-0.3-0.6l-0.3-0.2l-0.4-0.1h-0.3l-0.4,0.2l-0.1,0.4v0.5l0,0.4
		l-0.5,1.2l-0.4,1.7l0.1,1.6l0.9,0.7l1.2,0.6l0.2,0.6l-0.3,0.3h-0.4l-0.2-0.2l-0.2,0.3l-0.2,0.1l-0.1,0.2l0.1,0.5l0.1,0.1l0.9,0.9
		l0.3,0.1l0.4-0.1l0.3-0.2l0.1-0.2l0.1-0.4l0.3,0.3l0.2,0.4v0.2l1.1,0.5l0.4,0.5l0.1,0.9l0.7-0.3l0.5-0.1h1l0.4,0.1h0.4l0.4-0.1
		l0.1-0.5l0.2-0.4l0.3-0.2h0.3l0.6,0.4h0.4l0.3-0.2l0.4-0.5l0.2-0.1l0.5,0.3v0.5l-0.4,0.6l-0.7,0.5l0.4,0.1l0.3,0.2l0.3,0.3l0.2,0.4
		h-1.1l-1.2,0.2l-0.9,0.7l-0.2,1.3l0.7-0.2l0.1,0.4l-0.2,0.7v0.7l-0.1,0.1l-0.1,0.3l0.1,0.3l0.5,0.1l0.7,0.1l0.3,0.1l0.2,0.2
		l0.2,0.5l-0.1,0.5l-0.6,1.1l-0.2,0.1l-0.2-0.1h-0.1l-0.1,0.9l-0.1,0.2l-0.2,0.3v0.3l1.2-0.1l0.6,0.1l0.4,0.3l0.1,0.6l-0.4,1.3
		l0.1,0.6l0.5,0.1l2.1-0.7l1.1,0.2v-0.6l0.1-0.5l1.1-3.6l0.2-0.4l0.5-0.4l1.3-0.3l0.3-0.2l0.2-0.5v-0.4l0.1-0.2l0.6-0.1l0.2,0.1
		l0.4,0.2l0.3,0.1l0.1-0.1l0-0.3v-0.3l-0.2-0.1l-0.7-0.3l0.6-0.6l1.7-1l-1-1.3l-0.2-0.7l1.4-0.5v-0.5l-0.3-0.7l-0.2-0.8l0.1-0.5
		l0.4-0.6l0.5-0.5l0.5-0.1L43,225l0.3,0.7l0,0.8l-0.2,0.7l0.2,1.1l-0.2,2.7l0.4,1l0.4,0.2l1.7,0.5l1.2,0.9l0.6,0.2l-0.2-0.6v-0.6
		l0.2-0.5l0.4-0.5l1.2,0.6l0.4-0.4l-0.1-2.2l2.5-2.4l-0.3-0.7l0.2-0.6l0.4-0.5l0.3-0.5l0.1-0.6v-0.6l0.1-0.5l0.3-0.2l0.5-0.1
		l0.6-0.3l0.9-0.7l1.6-1l0.4-0.3l0.8-1.1l0.5-0.5l0.5-0.2l1.1,0.2h0.5l0.6-0.3l0.6-0.8l0.9-2.3l0.6-1l1.1,1.8l0.8,0.7l1-0.4l0.8-0.7
		l0.3,0.4l0.2,1l0.6,0.9l-0.4,0.6l-0.6,1.3l-0.3,0.4l-0.7,0.3l-0.5-0.2l-0.4-0.5l-0.3-0.7l0.2-0.5l-0.1-0.4l-0.3-0.3l-0.5-0.2
		l-1.3,1.4l-0.2,0.4v0.8l0.3,0.4l0.3,0.4l0.3,0.6v1.6l-0.6,0.9l-1.1,0.4l-1.3,0.1l0.7-1.6l0.2-0.9V222l-0.6,0.3l-0.3,0.4l-0.6,1.2
		l-0.9,1.2l-0.3,0.3l-1,0.6l-0.3,0.5l0,0.8l0.4,0.8l0.6,0.3l0.7,0.1l0.7,0.2l-0.1-0.2l-0.2-0.5l1.8-0.9l0.5-0.1l1.7,1.8l0.6,1.3
		l1.8,2.4h1.2l-0.6-0.6l-0.1-1l1.3-1l0.8,0.4l0.8-1.1l2.1-1.9l-0.9-0.8l-1.7,0.5l-0.4-0.2l-0.6-0.1l-0.5-1.1l-0.1-0.2l0.3-0.4
		l0.6-0.4l0.7-0.3l0.6-0.1l0.6,0.2l2,1.3l0.5-0.1h0.9l0.5-0.4l0.4-0.4l-0.1-1.1l-0.2-0.6l-1.9-0.7l0.3-0.1h0.8l0.5,0.1l-1-1.4
		l-1.4-0.9l-1.3-0.9l-0.6-2.2l0.1-0.1l0.2-0.1l0.1-0.2l-0.3-0.5l-0.5-0.2l-0.8,0.3l-0.4-0.3l0.2-0.7l1-0.5l1.9-0.6v-0.3l-1-0.3
		l-1.1-0.5l-0.6-0.5l0.7-0.2l1.9,0l0.9-0.1l1.5-0.5h0.2l0.1-0.1l0.3-0.4l0.8-1.9l0.1-0.1l0.1-0.2l0.2,0.1l0.2,0.2l0.1,0.3v0.3
		l-0.2,0.5v0.3l0.1,0.5L76,212l-0.1,0.2l-0.1,0.3v0.3l0.2,0.2h0.3h0.2l0.2,0.1l0.7,1.5l0.4,0.5l0.2,0.9l-0.4,1.1l-0.6,1.1l-0.3,1.1
		l0.2,1.2l0.5,0.8l0.8,0.4l1.1,0.1l0.7,0.8l0.5,0.2l0.2-0.5l-0.3-2.4l-0.3-0.8l-0.4-0.7l0.2-0.1l0.1-0.1h0.1l0.3,0.2l0.8-1.8l1,0.2
		l1.2,0.6l1.6-0.5l0.4-0.6l0.5-2.7l0.5-1.5l0.1-0.8v-1.1l-0.8,0.5l-0.8,0l-0.8-0.2l-1,0.1l-1.4,1.3l-0.6,0.4l-0.5-0.2l-0.5-0.6
		l-0.7-0.5l-0.8-1.1l-0.7-1.2l-0.4-1l0-0.9l0.2-1.1l0.5-0.7l0.7,0.3l0.8,1.7l0.7,0.6l0.9-0.4l1.7-1.4l0.4-0.5l0.2-0.4l0.3-1
		l-0.1-0.3l-0.1-0.6l0.1-0.4l0.5,0.4l0.3,0.5l0.1,0.4l0.2,0.3l0.6,0.1h1.8l0.3,0.1L87.7,204.4z M50.4,194.2l-2.8-0.4l-2.4-1.5
		l-1.2-2.7l1-0.9l1.6,0.4l1.2-0.3l1.2-0.4l2.3,0.9l0.9,2.5L50.4,194.2z M22.9,227.4V227l-1,0.6l-0.2,0.1l-0.3-0.2l-0.2-0.4l-0.1-0.3
		l-0.1-0.1l-0.5-0.2l-0.6-0.5l-0.7-0.4l-0.7,0.1l-0.3,0.5l1.1,0.9l0.3,0.7l-0.3,0.8l-0.8,0.4l-0.7-0.1l-0.5-0.6l-0.1,0.8l-0.3,0.2
		l-0.4,0.1l-0.5,0.3l-0.4,0.5l-0.3,0.4l-0.4,1.2l-1.2,0.1l-1.3,1.5l-0.5,1.8l0.9,1.1v-1.1l1.3,0.8l0.2,0.3l-0.1,0.3l-0.3,0.3
		l-0.2,0.4l0.1,0.5l0.5,0.1l1.9-0.2l0.5-0.2l4.2-2.3l0.2-0.9v-0.3l0.4,0.2l0.8,0.7l0.1,0.2l0.4-0.3l0.4-0.6l0.9-1.9l0.2-0.8l0.1-0.8
		l-0.1-0.8L22.9,227.4z M45.4,239.9l0.2-0.2l0.4-0.1l0.4,0.1l0.3-0.3l0-0.4l0.1-0.2l0.3-0.3l0.1-0.4l-0.4-0.2l-0.6-0.1l-0.5-0.1
		h-0.2h-0.2l-0.3-0.1l-0.3-0.2l-0.5,0.1l-0.6,0.5l-0.5,0.2l-0.4-0.2l-0.4-0.1l-0.2,0.1l-0.2,0.1l-0.4,0.1l-0.5,0.1l0.1,0.2l1,0.4
		l0.2,0.1l0.2,0.1h0.4l0.5-0.2l0.5-0.1l0.4,0.1l0.2,0.3l0.1,0.4l0.2,0.3l0.4-0.1L45.4,239.9z M44.7,233.1l-0.2-0.3l-0.6-0.1
		l-0.9,0.2l-0.9,0.5l-0.6,0.8l-0.3,0.7l-0.2,0.3l-0.2,0.3l0.2,0.2h0.2l0.2,0.1l0.1,0.5v0.5l0.3,0.3l0.2-0.2l0.1-0.6l0.4-0.5l1.2-0.5
		l0.2-0.3l0.4-0.1l0.9,0.3l0.3,0v-0.3l-0.3-0.4l-0.3-0.4l-0.4-0.3v-0.1l0.2-0.2L44.7,233.1z M41.3,239.8l-0.8-0.8l-0.1-0.5l-0.2-0.3
		l-0.1-0.4l-0.1-0.9l-0.4-1l-0.5-0.6l-0.5-0.3l-0.5-0.2l-0.8,0.1l-0.3,0.1l-0.5,0.2l-0.4,0.5l-0.2,0.7v0.7l0,0.7l0.1,0.6l0.3,0.4
		l0.5,0.3l0.6,0.2l0.5-0.1l0.4,0.1l0.1,0.4l-0.4,0.3v0.4l0.8,0.3l0.7,0.2l0.4,0.2l0.2-0.1v-0.3h0.2l0.3,0.2l0.4,0.2l0.2,0.1h0.2
		l0.1-0.1l-0.2-0.6L41.3,239.8z"/>
</g>
<polygon id="chb" class="st0" points="98.2,83.5 99.7,83.1 101.2,82.3 102.1,81.6 103.1,81.8 104,81.4 105,80.6 107.5,81.5 
	110.1,81.9 110.9,82.1 110.4,83.3 109.1,84.2 108.3,85.4 108.8,85.9 109.4,86.3 109.8,86.3 110.2,86.1 111.6,85.7 113.7,85.4 
	114.2,85.9 114.1,86.7 115,87.6 115.3,88.4 116.1,88.3 117.1,88.1 118.1,87.8 119.2,87.8 120.3,88.6 121.5,89.3 122.6,89.6 
	123.7,89.7 124.7,90.1 125.5,90.7 125,91.3 124.4,91.7 123.9,91.4 123.4,91.7 122.4,92.8 121.3,93.8 120.5,94.5 119.6,94.8 
	119.1,95.2 118.7,95.9 117.3,96.9 116.3,98.3 115.8,99.4 115.3,100.4 115.6,101 116.2,101.5 115.5,103.7 111.8,105.3 110.2,104.8 
	109.5,103.4 108.5,102.5 107.7,102 107.1,101.3 106.6,101.9 106.1,102.6 105.9,103.5 105.6,104.4 104.3,104.3 102.9,103.8 
	102.2,103.4 101.4,103.8 100.7,104.8 99.8,104.9 99.1,104.4 98.5,105.4 98,106.6 97.7,107.7 98.5,108.8 99.2,110.1 96,109.6 
	94.3,108.8 93.3,110.3 91.8,111 90.4,112 90.3,112.6 90.3,113.1 90.1,113.7 89,115.1 88.4,115.8 87.7,115.9 87.1,116.2 87.6,117.4 
	89.3,117.8 91.5,120.9 90.7,121.7 90.3,123 90.1,126 89.8,127.3 90.1,128.3 90.6,129.2 90,130.5 89,131.3 89.2,133.9 91,133.5 
	92.1,133.9 93.4,134.9 94.2,135.3 96.5,134.8 97.5,135.5 98,138.4 97.1,138.4 96,138.2 94.9,139.1 95.2,140.6 95.2,141.3 
	95.1,142.2 94.7,142.8 94.3,143.4 94,144.8 93.3,146.1 92.1,146.5 91.1,147.1 90.5,147.7 89.9,148.2 89.3,147.8 88.6,147.2 
	87,147.9 85.5,148.8 84.8,148.6 84.4,148.1 82.4,147.4 81.7,146.7 81,146.2 80.7,146.6 80.3,146.7 79.9,146.3 79.5,145.8 
	78.5,144.3 77.6,142.6 77.2,140.7 77.3,138.8 76.8,137.2 75.4,136.4 74.1,135.9 72.7,136.2 72.5,134.6 72.6,133.1 73.2,131 
	74.2,129.1 74.6,128.2 75,127.4 75.8,126.8 75.9,125.9 75.4,125.7 74.7,125.4 74,126 73.4,126.8 72.9,125.3 72.9,124.3 72.3,124 
	72.4,123.4 71.8,123.2 71.2,124 69.8,124.3 68.5,123.9 68.6,122.9 68.4,122.3 68,122.1 67.7,121.8 67.5,121.4 67.6,120.9 
	67.8,120.4 67.9,119.8 67.8,119.6 67.8,119.3 67.7,118.9 67.7,118.5 68,118 68,117.4 64.6,117.1 61.3,117.8 61.5,116.1 62.1,114.5 
	62,113.6 62.9,111.7 64.1,109.9 65.1,108.2 65.4,107.8 65.9,107.9 66.3,107.8 66.5,107.4 66.6,106.9 66.7,106.3 66.9,105.7 
	67,105.1 66.9,104.4 66.6,103.9 66.3,103.5 66.3,102.4 65.7,102 65,100.4 64.4,100.1 63.8,99.5 63.5,98.7 65.5,98.1 67.4,97.2 
	68.9,96.7 69.3,95 70,94.2 71.1,93.8 71.7,93.1 72,92.1 72.7,91.4 73.6,91.6 73.9,91.9 75,91.1 77.1,87.2 77.3,86.7 77.6,86.2 
	77.9,86 78.3,85.7 78.7,85.2 79,84.6 83.7,83.3 88.4,82.6 88.1,85.3 89.4,85 90.8,85.1 91.2,85.3 91.5,85.5 91.9,85.2 92.2,84.9 
	93.1,84.2 92.8,81.5 93.7,80.5 96,79.7 97.7,81.5 97.7,82.7 "/>
<path id="chn" class="st5" d="M25.7,123.1l-0.3-1l-0.1-0.5v-0.3l0-0.4l-0.6-0.4l-0.3-0.1v-0.3h0.9l-0.4-0.7l-0.5-0.3l-0.2-0.4
	l0.2-0.4l-0.1-0.6l-0.8-1.7v-0.4l0.3-0.3L24,115l-0.1-0.4l-0.6-0.9l-0.9,0.3l-0.8,0.7l-0.4,0.5l0.5,1.6l0.2,1.2l0.2,2l-0.2,1.3
	l0.5-0.3l0.2,0.5l0.6-0.7l0.3,0.3l-0.8,1.1l-0.1,0.8l0.5,0.2l1.1-0.7l-0.2,0.5l-0.3,0.3l-0.2,0.3l0.1,0.8l0.6,0.1l2-0.1l0.4,0.2
	l-0.2-0.9L25.7,123.1z M78.5,144.3l-1-1.6l-0.4-1.9l0.1-1.9l-0.5-1.6l-1.4-0.8l-1.3-0.4l-1.4,0.3l-0.1-1.6l0.1-1.5l0.5-2.1l1-1.8
	l0.4-0.9l0.5-0.8l0.7-0.6l0.2-1l-0.6-0.2l-0.6-0.3L74,126l-0.6,0.8l-0.2,1.3l-0.6,0.9l-0.6,2.4l-1.2,1l-0.6,0.2l-1-0.6l-1.5-0.7
	l-0.6-1.1l-0.4-2l-0.7-1.3l-0.4-1.5l0.9-3.7l0.2-0.4l-0.1-0.4l-8,2.2l-4.1-0.8l0.4-1.2l0.7-0.6l5.7-2.6l0.2-1.7l0.6-1.6l-0.1-0.9
	l0.9-1.9l1.2-1.8l0.9-1.6l0.4-0.4l0.4,0.1l0.4-0.1l0.2-0.4l0.1-0.5l0.1-0.6l0.2-0.6L67,105l-0.1-0.6l-0.3-0.6l-0.4-0.3v-1.1
	l-0.6-0.4l-0.8-1.6l-0.6-0.4l-0.5-0.6l-0.4-0.8l-2.1-0.3l-1.7-1.4L57.6,96L54,97.7h-1.8l-2.1-0.4l0,0l-0.9,0.7l-1.9,0.8l-0.8,0.1
	l-0.9,0.4l0.5,0.9l1.5,1.7l-1-0.1l-0.9-0.3l0.4,1.4l-0.2,0.8l-0.4,0.7l-0.3,1.2l-0.4-0.2l-0.3-0.2l-0.2-0.3l-0.1-0.5l0.7-0.2
	l0.1-0.5l-0.4-1.7l-0.4-0.7l-0.1-0.5v-0.4l0.2-0.8v-0.3l-0.1-1.6l-0.2-0.8l-0.3-0.5l-0.5,0.1l-0.8,1.1L42.1,98l0.7-2.4l-0.1-1.2
	l-0.9-1L41,92.9l-1.1-0.3l-0.9-0.3l-0.8-0.1h-0.7l-0.7,0.3l-0.4,0.8l-0.3,0.5L36,94.2l0.2,1.4L36.1,96l-0.2,0.4l-0.5,0.3l0.2-0.9
	l-0.1-0.5L35,94.5l-0.1-0.4l0.4-0.5l0.2-0.8l-0.5-0.8l-0.6-0.4l-0.7-0.5l-0.4-0.4l-0.9-0.6l-0.9-0.6l-0.6-0.6l-0.7-0.3h-0.8l0.1,0.9
	l0.4,1.3l0.9,0.9l0.9,0.4l0.6,0.1l0.3,0.4v0.4l-0.4,0.2h-0.5l-0.5-0.2L31,92.8l-0.7-0.9l-0.5-0.4l-0.4-0.1L29.3,92l0.2,0.1l2.7,2.9
	l0.3,0.6l0.4,1.1l0.3,0.4v0.5h-0.6l-0.3-0.4L32,96.8l-0.3-0.6l-0.8-0.9l-0.5-0.4l-0.2,0.3L30,96.5l-0.8,2.7l-0.2,1.4l-0.1,0.3
	l-0.3-0.2l-0.3-0.5L28,99.4v-2.5l0.1-0.4l0.4-0.5l0.1-0.1l0-0.4l-0.2-0.4v-0.4l-0.2-0.5h-0.4l-0.5,0.3L26.9,95l-0.3-0.9l0.3-0.6
	l0.4-0.5l0.2-0.5l-0.3-0.7l-0.8-0.3h-1.6V92l0.2,0.4l-0.2,0.2l-0.4-0.1L24,92.2l-0.4-0.2L23,92l-0.5,0.3l-0.3,0.4l0.8-0.1l0.7,0.2
	l0.3,0.5l-0.3,0.9l-0.6-0.5L22.9,94l0.1,0.5l0.4,0.5l0.6,0.2h1.2l0.4,0.1l0.4,0.9l-0.2,1.2l-0.6,1l-1.1,0.3v0.3l0.9,0.4l0.4,0.1v0.4
	l-0.9,0.2l-0.5,0.2l-0.2,0.2l-0.2,0.6l-0.4-0.3l-0.7-0.9l-0.5,0.6l0.3,1.2l0.9,2l-1.3-0.9h-0.6l-0.8,0.7l-0.3,0.1l-0.2-0.3l-0.1-0.5
	v-0.5l0.2-0.1l0.8-0.5l0.2-0.3v-0.2l-0.3-0.8v-0.5l0.3-0.5l0.4-0.5l0.3-0.5L21.3,97l-0.2-1.2v-1.2l0.1-0.8l-1,0.3L20,95.5l0.1,1.7
	L20,98.4l-0.3,0.5l-0.3,0.2h-1.1L17.7,99l-0.1-0.4l0.3-1.4l-1.4,0.4l-0.8,0.6l-0.1,0.8l1,0.8l-0.7,1.2l0.1,0.7l0.7,0.3l1.1,0.1
	l-0.3,0.7L17,103l-1.3-0.4l0.5,0.9l0.5,0.7l-0.4-0.1L16,104h-0.3l-0.2,0.2l-0.3-0.5l-0.2-0.4l-0.2-0.5l-0.1-0.5l-0.2,0.7l-0.2,0.5
	l-1.1,1.5l-0.1,0.4l0.1,1.4l-0.1,1.4l0.2,0.4l0.5-0.5l0.2-0.6L14,106l0.2-0.7l0.6,0.5l0.7,0.2l0.7,0.3l0.5,0.9v0.8l-0.5,0.3h-1.9
	l-0.2,0.2l0.1,0.5l0.2,0.5l0.1,0.3l0.5,0.3h0.5L16,110l0.5-0.1l0.9-0.3l1.2-1.5l0.8-0.5l0.3,1.5l-0.4,1.1l1.3,2.2l-0.6,1.4l0.1,0.3
	l0.1,0.4l0.1,0.4v0.4l0.4-0.6l0.5-0.5l0.6-0.3l0.7-0.2l-0.8-1l-0.1-0.4l0.5-0.4l-0.3-0.9l-0.8-1.3l-0.4-0.9h1l0.3-0.7l0.1-0.9
	l0.4-0.7l0.7-0.1l0.5,0.6l-0.1,1.4l0.5,0.2l-0.3,1.1l-0.2,3l0.9,0.6h0.9l0.8,0.6l0.4-0.5l0.5-1.2l-0.2-1.4l0.3-1.1l-0.1-0.9
	l-0.3-0.5v-0.4l0.1-0.4l0.7-0.3l0.6-0.7l0.4-0.3l0.1,0.5l0.2,0.4l0.6,0.7l-1,0.2l-0.3,0.7l0.2,0.9l1.1,0.2l0.4,0.8l-0.6,0.5
	l-0.5,0.6l0.7,0.7l0.5,0.1l0.4,0.5l-0.3,0.6l-0.1,0.7h-0.9l-0.9,0.4h-0.6v0.2l0.3,0.4l0.2,0.9v0.5L28,117l0.2,0.5h0.2l0.4,0.2
	l0.4,0.4l0.9-0.3l0.1,0.3l-0.4,0.7l-0.9,1.1v0.6l0.3,1l0.4,1l0.5,0.5l0.7-0.1l1-1.4l0.6-0.4h2.6l-0.9,0.5l-1.8,0.5l-0.9,1.3
	l-0.9,0.3l-0.8,0.4l0.7,1.2h-0.7v0.4l0.4,0.3l0.5,0.6l0.3,0.2h1.5l0.7,0.2l0.3,0.7l-0.4,0.6l-2,0.5l-0.7,0.6l0.7,0.4l1.9,0.6
	l0.5,0.6l-0.7,0.4l-0.5,1.1l-0.9,2.6l0.3,0.4l0.3,0.4l0.2,0.1l0.4-0.2l0.3,0.1l0.5,0.4l0.4,0.4l0.7,1.1l-1.9-0.5l-1.3,0.4l-1.5,0.8
	l-0.2,1.6l0.3,0.3l0.1-0.4l0.3-1l0.9-0.1l1,0.6v0.6h0.3l0.6-0.4l0.8,0.4l1,1.8l0.6,0.2l0.6,0.3l0.3,0.3l-0.6,0.5l0.4,0.7l0.8,1
	l0.4,0.6l0.2,0.7l0.1,0.5l0.2,0.4l0.7,0.3L39,147l1-0.2l0.8-0.4l0.8-0.7l0.9-0.6l0.9-0.3l2-2.5l2.1-0.2l2.5-0.5l4.6-1.5l1.6,0.3
	l-0.4,2.4l1,1.5l1.3-0.2l1.4-0.4l2.5-0.5l0.6-0.2l0.6-0.3l0.9-0.2l0.6-0.9l0.7-0.8l1.4,1.3l2,3.6l1.5,0.7l0.6,0.1l0.3,0.5l-0.3,0.6
	l0.2,0.4l2.6,0.3l1-0.2l1.3-0.1l1.3-0.4l1.1-1l1.1-1.1L78.5,144.3z"/>
<g id="kb" class="st2">
	<path class="st6" d="M166.8,144.5l-0.2-1l-0.7-0.6l-0.5,0.9l-2.8,3.1l-1.1,0.9l-0.9-0.2l-0.7-0.9l-0.7-0.8l-0.9-0.9v-0.8l0.7-0.6
		l0.4-0.1l0.5-0.2l0.4-0.5l0.2-0.9l-0.2-0.3l-0.4-0.2l-0.3-1.4l-0.2-1.9l-0.2-0.3l-0.3-0.2l-0.3-0.5l-0.2-0.9l0.2-6.7l0.2-1.1
		l0.5-0.9l1.4-1.7l0.3-1l0.3-4.7l-0.2-2.3l-0.6-2.3l-0.2-2.2v-0.1h-0.5l-1.5-0.3l-1.4,0.6l-3.1-1.2l0.5-1.3l-0.1-1.2l-0.4-1.4
		l-0.1-1.6l0.6-1.5l0.5-1.4l-0.4-0.4l-0.4-0.4l0.2-1.3l-3.3-0.2l-1-0.6l-1-0.4l-0.4-1l-0.3-1.2l-1.5-0.7l-0.9-1.4l-0.2-1.8l0.3-1.4
		l0.8-0.6l0.8-0.3l1.3,0.5l1-0.8l-0.4-1.3l-1.4-0.8l-1.5-0.4l-1.2,0.6l-1.2,0.3l-1.6-0.8l-1.8-0.3l-0.6,0.2l-0.5-0.1l-0.4-0.5
		l-0.5-0.2l-1.3,1l-1.3,0.5l-0.1-1l0.1-1l-0.8-0.4l-0.9-0.2l-0.6-1.1l-1.2-0.1l-1.2,0.6l-0.8,1l0.3,1.4l-0.1,1.3l-0.3,1.2l-1.1-0.1
		l-1.3-0.3l-1.1-0.5l-1.1-0.6l-0.5,0.6l-0.6,0.4l-0.5-0.2l-0.4,0.3l-1,1.1l-1.1,1l-0.7,0.7l-0.9,0.3l-0.6,0.5l-0.4,0.7l-1.4,1
		l-1,1.4l-0.5,1.1l-0.6,1l0.3,0.6l0.6,0.5l-0.6,2.1l-3.7,1.6l-1.6-0.5l-0.7-1.4l-1-0.9l-0.7-0.5l-0.6-0.6l-0.6,0.6l-0.5,0.7
		l-0.2,0.9l-0.3,0.9l-1.3-0.1l-1.4-0.5l-0.7-0.5l-0.8,0.5l-0.7,1l-0.9,0.1l-0.7-0.5l-0.5,0.9l-0.6,1.2l-0.3,1.1l0.9,1.1l0.6,1.2
		l-3.2-0.5l-1.7-0.7l-1,1.4l-1.6,0.7l-1.4,0.9l-0.1,0.7v0.5l-0.2,0.6l-1,1.4l-0.6,0.7l-0.7,0.1l-0.7,0.3l0.5,1.3l1.8,0.3l2.2,3.2
		l-0.8,0.8l-0.4,1.3l-0.2,3l-0.3,1.3l0.3,1l0.5,0.9l-0.6,1.3l-1,0.9l0.3,2.6l1.8-0.4l1.1,0.4l1.3,1.1l0.9,0.4l2.3-0.5l1,0.7l0.5,2.9
		l-1-0.1l-1.1-0.2l-1.1,0.9l0.2,1.5v0.8l-0.1,0.9l-0.4,0.5l-0.4,0.6l-0.4,1.4l-0.7,1.4l-1.1,0.4l-1.1,0.5l1.8,3.1l-0.2,3.5l0.4,1.2
		l0.9,0.5l0.4,0.3l0.4,0.4v0.4l0.2,0.4l0.4,0.2l0.4,0.1l1.4,0.1l0.6,0.5l0.7,0.5l1.3,0.1h1.3l1.2,0.4l0.9,0.9l0.6,1.1l1,0.7l0.2,0.5
		l0.1,0.5l0.7,0.4l0.6,0.7v1.3l-0.5,1.2l0.7,2.5l2.8,0.1l1.3-0.2l1.3,0.2l1.2,0.6l1.1,0.9l1.3,0.3l2.4-1.2l1.2,0.2l1.1-1.6l1-0.8
		l0.4,3l1.2,1.4l1.4,0.9l1.6-0.2l1.7-0.3l1.5,0.5l1.4,0.7l1.7,0l1.5-1.1l0.6-0.2l0.6-0.1l0.6-0.5l0.5-0.7l1.6-0.7l1.7,0.4l1.3,0.6
		l1.2-0.4l1.1-0.9l1.1-0.7h0.7l0.3-0.5l-0.4-0.7l-0.2-0.8l1.5-1.2l1.9-0.7l1.5-0.2l1.5,0.3l1.6,0.7l0.4,0.7v0.8l0.1,0.7l0.5,0.4
		l0.8,0.2l4.1-0.8l3.5,0.9l0,0l-0.3-0.4l-0.4-1l0.4-0.9l0.9-1.7l1.2-3.6l-0.1-2l1.1-3.3l0.5-3.8l0.1-1.4l1.6-3.2l0.7-1.1l-0.2-1.1
		L166.8,144.5z M130.3,155.1l-0.7,0.7l-0.3-0.1h-0.4v0.4l-0.1,0.5l-0.4,1.1v0.4l-0.1,0.5l-1,0.6l-2.6-0.7l-1.5-0.1l-0.6,0.5
		l-0.6,1.1l-0.3,0.3l-0.4-0.3l-0.5-0.4l-0.8-0.6l-0.5-1l-0.6-0.6L118,157l-0.3-1l0.6-0.9h0.7l0.7-0.1l0.2-0.5l0.1-0.5l-0.4-0.1
		l-0.4-0.1l0.5-1.1l0.8-0.8l-0.3-2.5l2.1-1.8l2.9-0.4l2.4-0.1l1.8,1.3l0.6,1v0.4l-0.2,0.4v1.4l0.4,0.5l0.5,0.4l0.1,0.9v0.9
		L130.3,155.1z"/>
	<path class="st4" d="M166.8,144.5l-0.2-1l-0.7-0.6l-0.5,0.9l-2.8,3.1l-1.1,0.9l-0.9-0.2l-0.7-0.9l-0.7-0.8l-0.9-0.9v-0.8l0.7-0.6
		l0.4-0.1l0.5-0.2l0.4-0.5l0.2-0.9l-0.2-0.3l-0.4-0.2l-0.3-1.4l-0.2-1.9l-0.2-0.3l-0.3-0.2l-0.3-0.5l-0.2-0.9l0.2-6.7l0.2-1.1
		l0.5-0.9l1.4-1.7l0.3-1l0.3-4.7l-0.2-2.3l-0.6-2.3l-0.2-2.2v-0.1h-0.5l-1.5-0.3l-1.4,0.6l-3.1-1.2l0.5-1.3l-0.1-1.2l-0.4-1.4
		l-0.1-1.6l0.6-1.5l0.5-1.4l-0.4-0.4l-0.4-0.4l0.2-1.3l-3.3-0.2l-1-0.6l-1-0.4l-0.4-1l-0.3-1.2l-1.5-0.7l-0.9-1.4l-0.2-1.8l0.3-1.4
		l0.8-0.6l0.8-0.3l1.3,0.5l1-0.8l-0.4-1.3l-1.4-0.8l-1.5-0.4l-1.2,0.6l-1.2,0.3l-1.6-0.8l-1.8-0.3l-0.6,0.2l-0.5-0.1l-0.4-0.5
		l-0.5-0.2l-1.3,1l-1.3,0.5l-0.1-1l0.1-1l-0.8-0.4l-0.9-0.2l-0.6-1.1l-1.2-0.1l-1.2,0.6l-0.8,1l0.3,1.4l-0.1,1.3l-0.3,1.2l-1.1-0.1
		l-1.3-0.3l-1.1-0.5l-1.1-0.6l-0.5,0.6l-0.6,0.4l-0.5-0.2l-0.4,0.3l-1,1.1l-1.1,1l-0.7,0.7l-0.9,0.3l-0.6,0.5l-0.4,0.7l-1.4,1
		l-1,1.4l-0.5,1.1l-0.6,1l0.3,0.6l0.6,0.5l-0.6,2.1l-3.7,1.6l-1.6-0.5l-0.7-1.4l-1-0.9l-0.7-0.5l-0.6-0.6l-0.6,0.6l-0.5,0.7
		l-0.2,0.9l-0.3,0.9l-1.3-0.1l-1.4-0.5l-0.7-0.5l-0.8,0.5l-0.7,1l-0.9,0.1l-0.7-0.5l-0.5,0.9l-0.6,1.2l-0.3,1.1l0.9,1.1l0.6,1.2
		l-3.2-0.5l-1.7-0.7l-1,1.4l-1.6,0.7l-1.4,0.9l-0.1,0.7v0.5l-0.2,0.6l-1,1.4l-0.6,0.7l-0.7,0.1l-0.7,0.3l0.5,1.3l1.8,0.3l2.2,3.2
		l-0.8,0.8l-0.4,1.3l-0.2,3l-0.3,1.3l0.3,1l0.5,0.9l-0.6,1.3l-1,0.9l0.3,2.6l1.8-0.4l1.1,0.4l1.3,1.1l0.9,0.4l2.3-0.5l1,0.7l0.5,2.9
		l-1-0.1l-1.1-0.2l-1.1,0.9l0.2,1.5v0.8l-0.1,0.9l-0.4,0.5l-0.4,0.6l-0.4,1.4l-0.7,1.4l-1.1,0.4l-1.1,0.5l1.8,3.1l-0.2,3.5l0.4,1.2
		l0.9,0.5l0.4,0.3l0.4,0.4v0.4l0.2,0.4l0.4,0.2l0.4,0.1l1.4,0.1l0.6,0.5l0.7,0.5l1.3,0.1h1.3l1.2,0.4l0.9,0.9l0.6,1.1l1,0.7l0.2,0.5
		l0.1,0.5l0.7,0.4l0.6,0.7v1.3l-0.5,1.2l0.7,2.5l2.8,0.1l1.3-0.2l1.3,0.2l1.2,0.6l1.1,0.9l1.3,0.3l2.4-1.2l1.2,0.2l1.1-1.6l1-0.8
		l0.4,3l1.2,1.4l1.4,0.9l1.6-0.2l1.7-0.3l1.5,0.5l1.4,0.7l1.7,0l1.5-1.1l0.6-0.2l0.6-0.1l0.6-0.5l0.5-0.7l1.6-0.7l1.7,0.4l1.3,0.6
		l1.2-0.4l1.1-0.9l1.1-0.7h0.7l0.3-0.5l-0.4-0.7l-0.2-0.8l1.5-1.2l1.9-0.7l1.5-0.2l1.5,0.3l1.6,0.7l0.4,0.7v0.8l0.1,0.7l0.5,0.4
		l0.8,0.2l4.1-0.8l3.5,0.9l0,0l-0.3-0.4l-0.4-1l0.4-0.9l0.9-1.7l1.2-3.6l-0.1-2l1.1-3.3l0.5-3.8l0.1-1.4l1.6-3.2l0.7-1.1l-0.2-1.1
		L166.8,144.5z M130.3,155.1l-0.7,0.7l-0.3-0.1h-0.4v0.4l-0.1,0.5l-0.4,1.1v0.4l-0.1,0.5l-1,0.6l-2.6-0.7l-1.5-0.1l-0.6,0.5
		l-0.6,1.1l-0.3,0.3l-0.4-0.3l-0.5-0.4l-0.8-0.6l-0.5-1l-0.6-0.6L118,157l-0.3-1l0.6-0.9h0.7l0.7-0.1l0.2-0.5l0.1-0.5l-0.4-0.1
		l-0.4-0.1l0.5-1.1l0.8-0.8l-0.3-2.5l2.1-1.8l2.9-0.4l2.4-0.1l1.8,1.3l0.6,1v0.4l-0.2,0.4v1.4l0.4,0.5l0.5,0.4l0.1,0.9v0.9
		L130.3,155.1z"/>
</g>
<path id="kn" class="st5" d="M107.2,213.4l0.1-0.2v-0.4l0.2-0.1h0.5l0.2-0.3l-0.2-0.4l-0.7-0.8l-0.6-0.1l-0.6,0.5l-0.3,0.5l0,0.3
	l0.3,0.4l0.5,0.4l0.3,0.1L107.2,213.4z M99.3,212.3l-1.5-0.2l-1,0.2l-1.1,0.4l-0.9,0.1l-0.5-1l-1-0.3l-0.4-0.3l-0.2-0.5l-0.2-1
	l-0.2-0.4l1-1l0.4-0.7l0.1-0.7l-0.3-0.7l-0.6-0.5l-0.7-0.2l-0.6,0.3l-0.7,0.6l-0.3,0.3l-0.2,1.2l-0.3,0.2l-0.4,0.1l-0.3,0.2l-0.5,1
	l-0.1,1l0.2,1l1.2,4l0.1,0.7v0.5l0.1,0.4l0.3,0.5l0.4,0.3l0.7,0.2h0.6l0.3-0.5l0.1-1.1l0.4-0.9l0.6-0.4l0.7,0.4l0.5,2.2l0.4,1.1
	l0.7-0.1l0.8-0.4l0.7,0.3l0.7,0.4l0.7-0.1l0.2-0.5l-0.4-1.1l0.4-0.2l0.2-0.3V216l-0.1-1.1l0.1-0.7l0.2-0.6l0.1-0.5l-0.2-0.6
	L99.3,212.3z M108.8,222.3h-0.2V222l-1.4-0.8l-0.3,0.1l-0.2,0.2v0.3l-0.1,0.2v0.3l0.2,0.1h0.2l0.2,0.2l0,0.3l-0.2,0.4v0.2l0.3-0.1
	l0.2-0.2l0.5-0.2l0.4,0l0.4,0.1h0.3l0.2-0.1l0.4-0.5l0.1-0.3l-0.1-0.1L108.8,222.3z M99.8,210.7l-0.3-0.4l-0.2-0.9l-0.1-0.6
	l-0.2-0.1l-0.2-0.2l-0.1-0.4l-0.4,0.1l-0.5,0.8l-0.3,0.6l-0.2-0.2l0-0.5l0.2-0.6l0.3-0.9l-0.2-0.6l-0.7,0.2l-0.4,0.5l-0.4,0.8
	l-0.6,0.8l-0.3,0.8l0.4,0.8l0.7,0.4l0.6,0.1l1.1-0.4l2,0.5l0.5-0.1l-0.2-0.4L99.8,210.7z M153,184.9l-1.3-0.4l-1-1l-0.3-1.5l-1-0.8
	l-2.3-1.3l-1.9-2.2l-1.2-0.9l-2.8-0.4l-0.7-1.4l1.1-2.2l-0.2-2.2l-1.2,0.4l-1.3-0.6l-1.7-0.4l-1.6,0.7l-0.5,0.7l-0.6,0.5l-0.6,0.1
	l-0.6,0.2l-1.5,1.1l-1.7,0l-1.4-0.7l-1.5-0.5l-1.7,0.3l-1.6,0.2l-1.4-0.9l-1.1-1.4l-0.4-3l-1,0.8l-1.1,1.6l-1.2-0.2l-2.4,1.3
	l-1.3-0.3l-1.1-0.9l-1.2-0.6l-1.3-0.2l-1.3,0.2l-2.8-0.1l-0.7-2.5l0.5-1.2v-1.3l-0.6-0.7l-0.7-0.4l-0.1-0.5l-0.2-0.5l-1-0.7
	l-0.6-1.1l-0.9-0.9l-1.2-0.4h-1.3l-1.3-0.1l-0.7-0.5l-0.6-0.5l-1.4-0.1l-0.4-0.1l-0.4-0.2l-0.2-0.4v-0.4l-0.4-0.4l-0.4-0.3l-0.9-0.5
	l-0.4-1.2l-1.6,1.8l-0.4,1.2l-2.2,1.2l-1.1,0.3l-0.6-0.1l-0.4,0.3l-0.8,1.8l-1,1l-1,0.9l-0.5,1.4l-0.1,1.7l-0.6,1.2l-0.7,1.3
	l-0.5,1.7l-0.4,1.7l-0.6,1.3l0,1.4l1.1,0.5l0.2,0.6l0.1,0.7l0.5,1.3l-0.1,1.4l0.5,1l0.6,0.4l-0.3,1.5l-1.9,2.2l-0.3,1.5l-0.1,1.4
	l-0.9,1l-0.2,1.2l0.9,1.1l0.4,1.4l0.2,2.9l0.6,1.1l1.1,0.8l1,1l0.4,1.1l0.5,1l2.8,3l0.6,1.5v1l0.1,0.2l0,0l0.5,0.1l0.7,0.5l0.3-0.2
	h0.4l0.4,0.1l0.5,0.2l1.2-0.1l0.9-0.8l0.5-1.4l0.1-1.8l0.5,0.4l0.3,0.5l0.5,1.3l1.1-0.7h1.2l0.6-0.4l-0.8-1.9l1.1-0.1l0.7-0.7l0.6-1
	l0.7-0.8l0,0.7l-0.2,0.5l-0.2,0.4l-0.1,0.3l-0.1,0.6l0.1,4l-0.1,0.4l-0.1,0.4v0.4L99,206l0.4,0.2l1,0.1l0.6,0.1l0.5-0.1l0.2,0v0.2
	v0.8l0.1,0.3l0.8,0.5l2.1-0.1l0.9,0.1v-0.8l0.1-0.8l0.2-0.6l0.5-0.2l1,0.1l0.5,0.3l1,1.3l1-0.1l0.7-1.4l0.7-0.7l1,2l-1,0.4l-0.5,0.3
	l0.1,0.4l0.6,0.9l0.6,0.2l2.8,0.3l-0.2,0.4l-0.4,0.1h-0.9v0.8l1.3,0.1l1-0.3l1.1-1.5l0.6-1.1l-0.6-0.7L117,208l-0.3,0.4l-0.4,0.1
	l-0.4-0.4l0.3-2.2l0.1-1.1v-0.4l0-0.3l-0.3-0.5l-0.4-0.2l-0.2-0.3l0.3-0.5l0.6,0.2h0.9l0.9-0.1l0.6-0.3l0.4-0.7l-0.1-0.6l-0.3-0.7
	l-0.1-1l-0.8,0l-4.5,2.4v-0.4l0.5-0.5l0.1-0.8l0.2-0.7l1.8-0.5l1.5-0.8l0.8-0.2l-0.5-0.7V197l0.4-0.2l1.5-0.3h0.7l2.4,0.9l0.3,0.2
	l0.4,0.5l0.1,0.4v0.4l0.1,0.3l0.5,0.1h0.9l0.4-0.1l0.4-0.3l-0.3-0.1l-0.6-0.2h-0.4l0.2-0.7l-0.1-0.5l-0.7-1l-0.4-0.7l-0.2-0.5
	l-0.3-1.4l-0.6-1.2v-0.6l0.5-0.9l0.5-0.5l0.3,0.1l0.5,1.4l-0.2,0.4l0.4,1.1l-0.2,0.8l0.9-0.4l0.6,0.5l0.6,0.8l0.7,0.6V195l0.3-0.5
	l0.4-0.2l0.2,0.2v2.4l0.7-0.5l0.5,0.1l0.5,0.9l1,0.5l0.4-0.2l0.4-1.5l0.3,0.5l0.2,1l2.9,0l1.1,0.1l0.3-1.3l0.4-0.9l0.3,0v1v1.1h0.6
	l1.4-2.4l0.4-0.6l0.2,0.2l0.4-0.7l0.7-0.9l0.6-1l0.5-3.2l0.6-0.8l0.9-0.6l1-0.4h1.1l0.9,0.6l0.2,1.2l0.8,1.1l1,0.8l0.8,1l0.9,0.9
	l0.1,0.2l0.1-0.2l0.4-0.9l0.8-1l0.7-1.5l0.5-1v-0.3l-0.3-0.7l0.3-0.5l0.3-0.5l0.1-1L153,184.9L153,184.9z M133.4,198.9l-0.5,0
	l-0.5,0.3l-0.1,0.4l0.2,0.4l0.1,0.5v0.4l0.1,0.3l0.3,0.4l0.2,1l0.1,0.2l0.2-0.1l0.3-0.4l0.2-1.1v-1.4l-0.3-0.7L133.4,198.9z
	 M129.7,208.4l-0.4,0.3l-0.9,0.3l0.7-1.9l0.2-0.6v-0.7l-0.2-0.5l-0.3-0.5l-0.2-0.6v-0.3l0.3-2v-0.5l-0.2-0.5l-0.8-0.3l-0.7,0.5
	l-0.2,1l0.5,1l-3.1,1.8l-0.6-0.1l0,0.9l0.2,0.9l0.5,0.8l0.8,0.5v0.3l-0.8,0l-0.6-0.3l-0.6-0.4l-0.7-0.3h-0.5l-1.7,0.4l-0.6,0.2
	l-0.7,0.5l-0.6,0.6l-0.3,0.6l0.1,1l0.5,0.8l0.6,0.7l0.5,0.8l0.7-0.6l1.6-0.7l0.5-0.6l0.6,0.4l-0.2,1v0.9l-0.3,0.6l-1.1,0.2l-0.3,0.3
	v0.6l0.2,0.6l0.4,0.3l1.4-0.7l-0.2,0.8v0.6l0.2,0.5l0.6,0.3l-1.5,1.1l1-0.1l3.2-1l0.7-0.6l-0.4-0.4l-0.7-0.3l-0.5-0.4l0.2-0.7
	l0.8-0.9l0.1-0.4l0.1-0.8l0.5,0.4l0.8,0.4l0.8,0.3l0.3-0.1l-0.1-0.8l-0.6-1.2l-0.2-0.7l0.6,0.3l0.4-0.4l0.2-0.7v-0.6v-0.9
	L129.7,208.4z M116.1,212.1l-0.4-0.4l-0.8,0l-0.7,0.2l-0.4,0.2l-0.3-0.1l-0.5-0.4l-0.7-0.3l-0.5,0.1l-0.4,0.4l0.1,0.4h0.3l0.5-0.2
	l0.8,0.3l0.4,0.3l-0.1,0.4l-0.4,0.3l0.2,0.2l0.6,0.1l0.1,0.4l-0.1,0.4h0.4l0.2,0.4l0.3,0.4h0.7l0.5-0.6l0.2-0.3l-0.4-0.3l-0.4-0.1
	v-0.1l0.2-0.1l0.5,0.2l0.2-0.3l-0.2-0.3l0.2-0.4L116.1,212.1z"/>
<polygon id="Ulsan" class="st0" points="153.9,168.8 158.1,168 161.6,168.9 161.7,168.9 161.7,169 162,169.5 161.9,170.7 
	161.8,172.1 161.5,174.2 161,175.1 160.3,176.1 159.6,176.5 159.3,175.5 159,174.3 158.5,173.3 157.8,173.2 157.5,174.2 
	158.1,174.4 158.4,174.9 158.6,175.5 158.7,176.3 158.5,177 158,177.2 157.5,177.3 157.1,177.6 157.2,178 157.3,179 157.4,180.1 
	157,180.8 156.6,181.4 157,181.9 157.3,182.2 157.3,183 156.3,183.3 155.5,183.8 154.2,185.1 153.2,185 153.2,185.1 153,184.9 
	151.7,184.5 150.7,183.5 150.4,182 149.4,181.2 147.1,179.9 145.2,177.7 144,176.8 141.3,176.4 140.6,175 141.7,172.8 141.5,170.6 
	142.6,169.7 143.8,169.1 144.5,169.1 144.7,168.5 144.3,167.8 144.1,167 145.6,165.9 147.5,165.2 149,165 150.5,165.3 152.1,166 
	152.5,166.6 152.5,167.5 152.6,168.2 153.2,168.6 "/>
<polygon id="kwangju" class="st0" points="51.2,189.3 52.1,191.8 50.4,194.1 47.6,193.7 45.2,192.2 44,189.5 44.9,188.6 46.5,189 
	47.7,188.8 48.9,188.4 "/>
<polygon id="Daejeon" class="st0" points="69.8,124.3 71.2,124 71.8,123.2 72.4,123.4 72.3,124 72.9,124.3 72.9,125.3 73.4,126.8 
	73.2,128.1 72.6,129 72,131.4 70.8,132.3 70.1,132.6 69.1,132 67.7,131.2 67.1,130.2 66.7,128.2 66,126.9 65.6,125.4 66.5,121.7 
	66.7,121.2 66.6,120.9 58.6,123.1 54.5,122.2 54.9,121.1 55.6,120.4 61.3,117.8 64.6,117.1 68,117.4 68,118 67.7,118.5 67.7,118.9 
	67.8,119.3 67.8,119.6 67.9,119.8 67.8,120.4 67.6,120.9 67.5,121.4 67.7,121.8 68,122.1 68.4,122.3 68.6,122.9 68.5,123.9 "/>
<polygon id="deagu" class="st0" points="129.6,155.8 129.3,155.7 128.9,155.7 128.9,156.1 128.8,156.6 128.4,157.7 128.4,158 
	128.3,158.5 127.3,159.1 124.7,158.5 123.2,158.3 122.6,158.8 122,159.9 121.6,160.2 121.2,159.9 120.7,159.5 119.9,158.9 
	119.3,157.9 118.7,157.2 118,157 117.7,155.9 118.4,155.1 119,155.1 119.7,155 119.9,154.4 120,153.9 119.6,153.7 119.2,153.7 
	119.7,152.6 120.4,151.8 120.2,149.2 122.3,147.5 125.1,147.1 127.5,146.9 129.3,148.3 129.8,149.2 129.8,149.7 129.6,150.1 
	129.6,151.4 130,152 130.4,152.4 130.5,153.3 130.5,154.2 130.3,155.1 "/>
<polygon id="Busan" class="st0" points="150.1,193.4 149.8,193.8 149.1,193.8 148.6,193.8 148,193.9 147.5,193.9 147.1,194.1 
	146.5,194.1 146.5,194.9 146.8,195.4 146.9,196.1 146.7,196.8 145.7,197.3 144.9,196.6 144.4,196.2 144,195.7 142.8,197 142.3,198 
	142.1,199 141.8,199.3 141.6,198.8 141,198.2 141.1,198.7 141.2,199.8 140.8,199.8 140.7,199.4 140.5,199.4 140,199.7 139.6,199.9 
	139.3,199.6 138.9,198.3 139.1,197.2 139.4,195.8 139.5,195 139.9,194.4 140.5,193.5 141.2,192.5 141.7,189.3 142.3,188.5 
	143.1,187.9 144.2,187.5 145.3,187.5 146.2,188.1 146.4,189.3 147.2,190.4 148.3,191.2 149.1,192.3 150,193.2 "/>
<polygon id="gw" class="st0" points="117.7,11.4 121.6,19.2 124.7,27.4 125.2,28.3 126.8,30.3 127.4,32 134.9,42.6 137.8,46.8 
	141.2,50.7 141.7,51.1 144,53.8 144.1,55 144.2,56.3 144.4,57.5 146,58.4 146.5,59.3 147.8,63.6 148.4,64.6 149.1,65 149.6,65.6 
	151.7,69.6 152.9,71.1 153.3,72 153.5,72.9 153.8,73.8 155.9,76.1 156.6,78.1 157.2,82.3 158.1,84.7 160.4,87.8 160.5,88.5 
	160.3,89.2 159.9,89.8 159.6,90.4 159.6,90.9 159.9,92.7 160.3,97.7 160.7,100 162.2,104.7 162.3,107 161.9,109.1 160.8,111 
	160,113.3 159.6,113.3 158.1,112.9 156.7,113.6 153.6,112.4 154.1,111.1 153.9,109.9 153.5,108.5 153.4,106.9 154,105.4 
	154.5,104.1 154.1,103.6 153.8,103.3 153.9,102 150.7,101.8 149.7,101.2 148.7,100.8 148.3,99.7 147.9,98.6 146.5,97.9 145.5,96.5 
	145.3,94.7 145.7,93.3 146.4,92.7 147.3,92.4 148.6,92.9 149.6,92.1 149.2,90.8 147.8,90 146.3,89.6 145.1,90.3 143.9,90.6 
	142.2,89.8 140.5,89.5 139.9,89.7 139.4,89.7 139,89.2 138.5,88.9 137.2,89.9 135.9,90.5 135.8,89.5 135.9,88.5 135.1,88.1 
	134.3,87.9 133.6,86.8 132.4,86.7 131.2,87.3 130.4,88.3 130.7,89.7 130.5,90.9 130.3,92.2 129.1,92 127.8,91.8 126.7,91.3 
	125.5,90.7 124.7,90.1 123.7,89.7 122.6,89.6 121.5,89.3 120.3,88.6 119.2,87.8 118.1,87.8 117.1,88.1 116.1,88.3 115.3,88.4 
	115,87.6 114.1,86.7 114.2,85.9 113.7,85.4 111.6,85.7 110.2,86.1 109.8,86.3 109.4,86.3 108.8,85.9 108.3,85.4 109.1,84.2 
	110.4,83.3 110.9,82.1 110.1,81.9 107.5,81.5 105,80.6 104,81.4 103.1,81.8 102.1,81.6 101.2,82.3 99.7,83.1 98.2,83.5 97.7,82.7 
	97.7,81.5 96,79.7 93.7,80.5 92.8,81.5 93.1,84.2 92.2,84.9 91.9,85.2 91.5,85.5 91.2,85.3 90.8,85.1 89.4,85 88.1,85.3 88.4,82.6 
	83.7,83.3 79,84.6 81.4,80.1 83.4,75.2 86.1,69.3 86.5,68.1 86.2,66.8 86.8,65.8 87.6,64.8 88.5,64.4 89,63.4 88.5,62.5 87.8,62 
	86.7,61.8 85.7,61.4 84.1,61.2 81.6,59.8 80.5,59.4 79.4,58.6 78.2,58.5 77,58.8 76,58 76,57.1 76.5,56.1 76.7,55 76.7,53.9 
	75.5,54.2 75,53.6 76.3,52 76.1,51 75.7,50 76,49.2 76,48.3 75.9,47.4 78.2,45.8 79.1,45.5 79.6,44.7 79.8,42.4 78.8,40.8 
	77.9,40.6 77.1,40.2 76.4,38.5 75.5,38.5 74.4,38.5 73.2,37.7 72.7,36.2 72.5,33.5 72,32.2 71.7,31.9 71.4,32 71.2,32.2 70.9,32.3 
	70.1,31.7 68.2,32.4 66.5,32 65.8,31.5 65.1,30.9 65.1,29.8 65.4,28.8 65.7,28.5 65.9,28.1 65.6,27.8 65.2,27.7 64.8,27.8 
	64.5,28.1 63.9,28.8 63.3,29.5 62.3,29.7 61.4,29.1 61.2,28.5 61.1,28 60.8,27.8 60.5,28.1 60.4,28.7 60.3,30.5 59.8,31.5 
	58.1,30.7 56.6,29.3 56.1,28.8 55.5,28.9 55.1,28.1 54.7,27.2 54.3,26.7 53.9,26.3 53.5,25.4 52.8,25 51.2,24 50.4,23.6 50.6,23.2 
	53.1,21.2 55.9,19.4 58.9,18.2 61.8,17.9 63.2,18 68.7,17.6 72.9,18.9 74.3,18.7 76.9,17.9 85.5,17.2 85.9,17.4 86.5,18.2 87,18.8 
	87.6,19 90.6,18.3 95.3,18.6 98.3,18.4 101.4,17.3 104.2,15.4 106.6,12.9 107.6,11.5 108.5,9.9 109.1,8.1 109.3,6.1 108.9,4.1 
	108.8,3.1 109.1,2.4 110.3,1.4 112.8,0.1 114.1,2.8 114.1,2.8 116.2,6.9 116.6,8.7 "/>
<path id="ich" class="st5" d="M33,63.8l-0.2-0.2l-0.2-0.3l-0.2-0.2L32,62.9l-0.3-0.1h-0.2l-0.2-0.1L31,62.6l-0.2-0.1L30.2,62
	l-0.6,0.2l-0.3,1.3L28.4,64h-1l-1.5,0.2l-2,1.4l-0.4-0.2l-0.3,0.1l-0.2,0.4l0.1,0.3l0.5,0.5l0.1,0.3l-0.3,0.3l0.5,0.1l0.3,0.1
	l0.3-0.2l0.2-0.2h0.3l0.1,0.3l-0.1,0.2l0,0.1h0.1l0.2-0.2l0.4,0.2l0.2,0.7l0.2,0.1l0.4-0.1l0.4,0.1l2-1.5l0.3-0.6l0.6-0.5l1-0.4
	l0.5-0.2l0.4,0.1l0.8-0.2l0.1-0.2l0.4-0.3l0.2-0.1l-0.1-0.3L33,63.8z M42.3,66.4l-0.7-0.5l-0.5-1.1v-1.3L38.5,61L36.2,61l-2,0.1
	L34,62.5l0.1,1l0.2,0.6l0.9-0.1l0.2-0.5l0.6,0.2L36,64.1l-0.4,0.2l-1.3,0.4l-0.4,0.8l0.1,0.8l-0.1,1l0.7,0.4l0.8,0.4l0.4,0.6
	l-0.6,0.9l-0.5,1l1.1,0.9L37,70l2.3,0.3l0.1,0.4l1.4-0.4l0.3-0.2l0.6-0.4l0.6-1.2l0.4-1.4L42.3,66.4z"/>
<g id="gg" class="st2">
	<path class="st6" d="M21.4,49.1l0.8-0.7l0.3-1L22.1,47l-0.8-0.1h-0.9l-0.8-0.5l-0.7-0.2l-0.6,0.2l-0.5,0.5l-0.5,1.6l-0.1,0.2
		l0.2,0.6h0.4l0.5-0.3l0.4-0.2l1.9,0.4L21.4,49.1z M34.6,77.7l-0.2-0.2l-0.9-0.4L33,76.8l-0.2-0.4l0.1-0.5h-0.1l-0.6,0.6l-0.7-0.4
		l-0.1,0.1l0.3,0.4l0.3,0.6l0.2,0.8v0.7l-0.6,0.7l0.2,0.3L31.8,80l-0.5,0.7v0.3l1-0.1l2.3-1.8l0.2-0.5L34.7,78L34.6,77.7z
		 M88.5,62.6L87.8,62l-1.1-0.1l-1.1-0.4l-1.5-0.2l-2.5-1.4l-1.1-0.5l-1.1-0.7l-1.2-0.2L77,58.9L76,58l0.1-0.9l0.5-1l0.2-1.1v-1.1
		l-1.2,0.4L75,53.5l1.3-1.5l-0.2-1l-0.4-1l0.3-0.8v-0.9l-0.1-0.9l2.3-1.7l0.9-0.3l0.5-0.8l0.2-2.3l-1-1.6l-0.9-0.2l-0.8-0.4
		l-0.6-1.7h-1l-1,0.1l-1.2-0.9l-0.5-1.5l-0.2-2.7L72,32.2l-0.3-0.3L71.4,32l-0.2,0.2h-0.3l-0.8-0.5l-1.9,0.7l-1.7-0.4l-0.7-0.4
		l-0.7-0.6v-1.1l0.3-1l0.3-0.4l0.2-0.4l-0.3-0.2l-0.4-0.1l-0.4,0.1L64.5,28L64,28.8l-0.7,0.7l-1,0.2L61.4,29l-0.2-0.6l-0.1-0.6
		l-0.3-0.2l-0.3,0.4l-0.1,0.6v1.9l-0.6,0.9l-1.6-0.8l-1.5-1.4l-0.5-0.6l-0.5,0.1l-0.5-0.7l-0.3-0.9l-0.4-0.5l-0.5-0.4l-0.4-0.9
		l-0.7-0.4l-1.6-1l-0.9-0.4l-0.5,0.7l-0.6,1.5L48.3,28l-0.7,0.9l-1.7,1.3l-0.8,0.8l-3.8,5.8l-1.8,1.4l-1.2,0.4l-0.8,0.1L37,39.1
		l-0.2,1.3l0.3,4.9l0,0l0.7-0.5l0.4-0.1l0.3,0.4L38,46.1l-0.2,1.1l0.1,0.6l0,0v0.5l0.4,0.9l0.2,0.9l-0.2,1.2l-0.8,2l2.6,1.9l0.8,0.9
		L39.9,56l-1.7-0.7l-1.4-1.1v-1.3l0.2-0.7l0.1-1.1L37,50l-0.2-0.7l-0.6-0.4L35.6,49l-0.6,0.3l-0.8,0.2l-2.5-0.9l-0.6,0.1l-0.2,0.8
		l0.6,4.6l0.5,1.8l0.2,1.1v0.8l0.5,0.5l0.5,0.8l0.4,0.6l0.4,0.8l0.2,0.5l2-0.1l2.3-0.1l2.6,2.5v1.3l0.5,1.1l0.7,0.5l0.4,0.7
		l-0.4,1.4l-0.6,1.2l-0.6,0.4l-0.3,0.2l-1.4,0.4l-0.6,0.6l-0.9,1.3l0.1,0.6l2,1.5l1.4,0.4l0.9,0.2h0.5l0.5-0.2l0.7,0.1l0.3,0.4h0.6
		l0.4,0.1l0.4,0.2l0.3,0.3l0.2,0.5L45,77l-0.7-0.4l-0.6-0.1L43,77.7l-0.2,1.2l-0.2,0.5l-0.5,0.2l-0.4-0.2l-0.2-0.5l-0.1-0.6l0.2-0.6
		L40.8,78l-0.6-0.2l-0.6-0.4L39,77.3l-0.9,0.2h-0.5l-0.3-0.3L37,77.5l-0.1,0.1l-0.2,0.1l0.4,0.7l0.3,0.8l0.3,0.6L38,80l1.2-0.2
		l0.1,0.2l-0.5,0.7L38.4,81l-0.6,0.2l-0.5,0.3L37,82.1l0.1,0.8l0.4,0.1l1.3-0.3l-0.7,0.9l-0.3,0.5v0.5l0.3,0.3h0.5l0.5-0.2l0.4-0.3
		l1.6-1.7l0.9-0.6l1.1-0.6v0.7l0.2,0.4l0.4,0.2l0.6,0.1l0.9-0.8l0.6-0.3l0.3,0.2l-0.1,1l-0.2,0.4l-1.2,0.3h-1.1l-0.8,0.3L42,84.4
		l-0.6,0.9l-0.5,1l0.1,1L40.8,88l0.2,0.6v0.6l2.1,0.6l0.9-0.2l0.9-0.2l0.4,0.4l0.4-0.2l0.2-1l0.1-0.9l0.2-0.9l0.4-0.5l0.5,0.2
		L46.7,88l0.4,1.1l0.6,1l0.2,1.1l-0.4-0.3l-0.4-0.1h-0.5l-0.5,0.1l0.4,0.3l0.2,0.1v0.4l-2.7,0.3l0.6,1.5l1.6,1.6l1.8,1l1.5,0.2
		l1-0.3l0.3-0.4l-0.1-1.7l0.4-0.6l2.7-0.8L53.7,93l-0.3,0.2L53,93.2l-0.6,0.4h-0.2h-0.2l-0.2,0.2l0.1,0.1l0.4,0.4l0.1,0.2l-0.3,1.4
		l-0.5,0.6l-0.7,0.3l-0.6,0.4l0,0l2.1,0.4H54l3.7-1.6l1.9,0.9l1.7,1.4l2.1,0.3l2-0.6l1.9-0.9l1.5-0.5l0.4-1.6l0.7-0.8l1.1-0.5
		l0.5-0.7l0.4-0.9l0.7-0.7l0.9,0.2l0.2,0.3l1.1-0.8l2.1-4l0.2-0.5l0.2-0.4l0.4-0.3l0.4-0.2l0.4-0.5l0.3-0.6l2.4-4.5l2-4.9l2.8-5.9
		l0.3-1.3l-0.3-1.3l0.6-1l0.8-1l0.9-0.4l0.5-1L88.5,62.6z M60.5,62.3l-0.6,0.3l-0.7,0.4v1l0.4,0.4l-0.8,1l-0.4,0.7l-1.2,0.7
		l-1.3,0.3l-1.3,0.7l-0.5-1.2L53,67l-1.1,0.3l-0.8,0.4l-0.8,0.1l-1.9-0.1L47,66.1l-1.3-0.4l-0.9-0.6l-0.2-1.6l-0.9-1.3l-1.1-1.3
		l0.7-1.4l1.2,0.1l1.4,0.9l1.1-0.4l1-0.6l0.1-1l0.3-0.9l2-0.2l1-1.3l0.6-1.3l0.9-1l1.4-0.3l1.6,0.1l0.8,1.3l0.3,1.8l0.5,1.3v1.4
		L57,60.9h1.2l1-0.4h0.9l0.3,0.8L60.5,62.3z M31.3,56.3L31,55.7l-0.2-0.3l0.1-0.5l-0.1-2l-0.1-0.4l-0.4-0.8l-0.1-0.4l0.1-0.3
		l0.2-0.8l0-0.4l-0.2-0.9l-0.6-0.6l-1.4-0.7L27.6,47l-0.7-0.8l-0.7-0.5l-0.8,0.2l-1,1.2l-0.4,0.2l-0.2,0.6v2.7l-0.2,0.6l0.1,0.5
		l1.6,3l0.2,0.3l0.2,0.2l0,0.3L25.4,56l-0.3,0.2l-1.4,0.4l0.9,1.2l0.9,0.4l2.4-0.1L28,58l0.2-0.2l0.2-0.1l0.3,0.2l0.5,0.5l0.3,0.1
		h0.3l0.5-0.4l0.5-1.2l0.6-0.4L31.3,56.3z M28.9,76.3l-1-0.1l-0.8,0.4l-0.4,0.5l-0.1,0.7l0.1,0.7l0.3,0.2h0.4l0.3,0.2l0.5-0.1
		l0.4-0.5v-0.3l0.2-0.4l0.5-0.2l0.2-0.2l-0.2-0.7L28.9,76.3z M24.2,54.3l-0.1-0.5l-0.4-0.5l-0.6-0.4l-0.6-0.5L22.3,52l-0.2-0.4
		l0-0.2l-0.1-1l-0.1-0.2L21.7,50L21.5,50L21.3,50L21,50.2l-0.2,0.3l-0.1,0.3l-0.3,1.1l-0.2,0.4l-0.4,0.4l3,2.4l0.9-0.1L24.2,54.3z"
		/>
	<path class="st4" d="M21.4,49.1l0.8-0.7l0.3-1L22.1,47l-0.8-0.1h-0.9l-0.8-0.5l-0.7-0.2l-0.6,0.2l-0.5,0.5l-0.5,1.6l-0.1,0.2
		l0.2,0.6h0.4l0.5-0.3l0.4-0.2l1.9,0.4L21.4,49.1z M34.6,77.7l-0.2-0.2l-0.9-0.4L33,76.8l-0.2-0.4l0.1-0.5h-0.1l-0.6,0.6l-0.7-0.4
		l-0.1,0.1l0.3,0.4l0.3,0.6l0.2,0.8v0.7l-0.6,0.7l0.2,0.3L31.8,80l-0.5,0.7v0.3l1-0.1l2.3-1.8l0.2-0.5L34.7,78L34.6,77.7z
		 M88.5,62.6L87.8,62l-1.1-0.1l-1.1-0.4l-1.5-0.2l-2.5-1.4l-1.1-0.5l-1.1-0.7l-1.2-0.2L77,58.9L76,58l0.1-0.9l0.5-1l0.2-1.1v-1.1
		l-1.2,0.4L75,53.5l1.3-1.5l-0.2-1l-0.4-1l0.3-0.8v-0.9l-0.1-0.9l2.3-1.7l0.9-0.3l0.5-0.8l0.2-2.3l-1-1.6l-0.9-0.2l-0.8-0.4
		l-0.6-1.7h-1l-1,0.1l-1.2-0.9l-0.5-1.5l-0.2-2.7L72,32.2l-0.3-0.3L71.4,32l-0.2,0.2h-0.3l-0.8-0.5l-1.9,0.7l-1.7-0.4l-0.7-0.4
		l-0.7-0.6v-1.1l0.3-1l0.3-0.4l0.2-0.4l-0.3-0.2l-0.4-0.1l-0.4,0.1L64.5,28L64,28.8l-0.7,0.7l-1,0.2L61.4,29l-0.2-0.6l-0.1-0.6
		l-0.3-0.2l-0.3,0.4l-0.1,0.6v1.9l-0.6,0.9l-1.6-0.8l-1.5-1.4l-0.5-0.6l-0.5,0.1l-0.5-0.7l-0.3-0.9l-0.4-0.5l-0.5-0.4l-0.4-0.9
		l-0.7-0.4l-1.6-1l-0.9-0.4l-0.5,0.7l-0.6,1.5L48.3,28l-0.7,0.9l-1.7,1.3l-0.8,0.8l-3.8,5.8l-1.8,1.4l-1.2,0.4l-0.8,0.1L37,39.1
		l-0.2,1.3l0.3,4.9l0,0l0.7-0.5l0.4-0.1l0.3,0.4L38,46.1l-0.2,1.1l0.1,0.6l0,0v0.5l0.4,0.9l0.2,0.9l-0.2,1.2l-0.8,2l2.6,1.9l0.8,0.9
		L39.9,56l-1.7-0.7l-1.4-1.1v-1.3l0.2-0.7l0.1-1.1L37,50l-0.2-0.7l-0.6-0.4L35.6,49l-0.6,0.3l-0.8,0.2l-2.5-0.9l-0.6,0.1l-0.2,0.8
		l0.6,4.6l0.5,1.8l0.2,1.1v0.8l0.5,0.5l0.5,0.8l0.4,0.6l0.4,0.8l0.2,0.5l2-0.1l2.3-0.1l2.6,2.5v1.3l0.5,1.1l0.7,0.5l0.4,0.7
		l-0.4,1.4l-0.6,1.2l-0.6,0.4l-0.3,0.2l-1.4,0.4l-0.6,0.6l-0.9,1.3l0.1,0.6l2,1.5l1.4,0.4l0.9,0.2h0.5l0.5-0.2l0.7,0.1l0.3,0.4h0.6
		l0.4,0.1l0.4,0.2l0.3,0.3l0.2,0.5L45,77l-0.7-0.4l-0.6-0.1L43,77.7l-0.2,1.2l-0.2,0.5l-0.5,0.2l-0.4-0.2l-0.2-0.5l-0.1-0.6l0.2-0.6
		L40.8,78l-0.6-0.2l-0.6-0.4L39,77.3l-0.9,0.2h-0.5l-0.3-0.3L37,77.5l-0.1,0.1l-0.2,0.1l0.4,0.7l0.3,0.8l0.3,0.6L38,80l1.2-0.2
		l0.1,0.2l-0.5,0.7L38.4,81l-0.6,0.2l-0.5,0.3L37,82.1l0.1,0.8l0.4,0.1l1.3-0.3l-0.7,0.9l-0.3,0.5v0.5l0.3,0.3h0.5l0.5-0.2l0.4-0.3
		l1.6-1.7l0.9-0.6l1.1-0.6v0.7l0.2,0.4l0.4,0.2l0.6,0.1l0.9-0.8l0.6-0.3l0.3,0.2l-0.1,1l-0.2,0.4l-1.2,0.3h-1.1l-0.8,0.3L42,84.4
		l-0.6,0.9l-0.5,1l0.1,1L40.8,88l0.2,0.6v0.6l2.1,0.6l0.9-0.2l0.9-0.2l0.4,0.4l0.4-0.2l0.2-1l0.1-0.9l0.2-0.9l0.4-0.5l0.5,0.2
		L46.7,88l0.4,1.1l0.6,1l0.2,1.1l-0.4-0.3l-0.4-0.1h-0.5l-0.5,0.1l0.4,0.3l0.2,0.1v0.4l-2.7,0.3l0.6,1.5l1.6,1.6l1.8,1l1.5,0.2
		l1-0.3l0.3-0.4l-0.1-1.7l0.4-0.6l2.7-0.8L53.7,93l-0.3,0.2L53,93.2l-0.6,0.4h-0.2h-0.2l-0.2,0.2l0.1,0.1l0.4,0.4l0.1,0.2l-0.3,1.4
		l-0.5,0.6l-0.7,0.3l-0.6,0.4l0,0l2.1,0.4H54l3.7-1.6l1.9,0.9l1.7,1.4l2.1,0.3l2-0.6l1.9-0.9l1.5-0.5l0.4-1.6l0.7-0.8l1.1-0.5
		l0.5-0.7l0.4-0.9l0.7-0.7l0.9,0.2l0.2,0.3l1.1-0.8l2.1-4l0.2-0.5l0.2-0.4l0.4-0.3l0.4-0.2l0.4-0.5l0.3-0.6l2.4-4.5l2-4.9l2.8-5.9
		l0.3-1.3l-0.3-1.3l0.6-1l0.8-1l0.9-0.4l0.5-1L88.5,62.6z M60.5,62.3l-0.6,0.3l-0.7,0.4v1l0.4,0.4l-0.8,1l-0.4,0.7l-1.2,0.7
		l-1.3,0.3l-1.3,0.7l-0.5-1.2L53,67l-1.1,0.3l-0.8,0.4l-0.8,0.1l-1.9-0.1L47,66.1l-1.3-0.4l-0.9-0.6l-0.2-1.6l-0.9-1.3l-1.1-1.3
		l0.7-1.4l1.2,0.1l1.4,0.9l1.1-0.4l1-0.6l0.1-1l0.3-0.9l2-0.2l1-1.3l0.6-1.3l0.9-1l1.4-0.3l1.6,0.1l0.8,1.3l0.3,1.8l0.5,1.3v1.4
		L57,60.9h1.2l1-0.4h0.9l0.3,0.8L60.5,62.3z M31.3,56.3L31,55.7l-0.2-0.3l0.1-0.5l-0.1-2l-0.1-0.4l-0.4-0.8l-0.1-0.4l0.1-0.3
		l0.2-0.8l0-0.4l-0.2-0.9l-0.6-0.6l-1.4-0.7L27.6,47l-0.7-0.8l-0.7-0.5l-0.8,0.2l-1,1.2l-0.4,0.2l-0.2,0.6v2.7l-0.2,0.6l0.1,0.5
		l1.6,3l0.2,0.3l0.2,0.2l0,0.3L25.4,56l-0.3,0.2l-1.4,0.4l0.9,1.2l0.9,0.4l2.4-0.1L28,58l0.2-0.2l0.2-0.1l0.3,0.2l0.5,0.5l0.3,0.1
		h0.3l0.5-0.4l0.5-1.2l0.6-0.4L31.3,56.3z M28.9,76.3l-1-0.1l-0.8,0.4l-0.4,0.5l-0.1,0.7l0.1,0.7l0.3,0.2h0.4l0.3,0.2l0.5-0.1
		l0.4-0.5v-0.3l0.2-0.4l0.5-0.2l0.2-0.2l-0.2-0.7L28.9,76.3z M24.2,54.3l-0.1-0.5l-0.4-0.5l-0.6-0.4l-0.6-0.5L22.3,52l-0.2-0.4
		l0-0.2l-0.1-1l-0.1-0.2L21.7,50L21.5,50L21.3,50L21,50.2l-0.2,0.3l-0.1,0.3l-0.3,1.1l-0.2,0.4l-0.4,0.4l3,2.4l0.9-0.1L24.2,54.3z"
		/>
</g>
<polygon id="Seoul" class="st0" points="57,61 58.3,61 59.3,60.6 60.2,60.6 60.6,61.5 60.4,62.3 59.8,62.6 59.1,63 59.2,64.1 
	59.5,64.5 58.8,65.5 58.3,66.3 57.2,66.9 55.9,67.2 54.6,67.9 54.1,66.7 53,67 51.8,67.3 51.1,67.8 50.2,67.9 48.3,67.8 47,66.1 
	45.7,65.7 44.8,65.2 44.6,63.5 43.7,62.3 42.7,61 43.3,59.5 44.6,59.6 46,60.5 47.1,60.1 48,59.5 48.1,58.6 48.4,57.7 50.4,57.5 
	51.4,56.2 52,54.8 52.9,53.9 54.3,53.6 55.9,53.7 56.7,55 57,56.8 57.4,58.1 57.5,59.4 "/>
</svg>
