<?xml version="1.0" encoding="utf-8"?>
<!-- Generator: Adobe Illustrator 25.0.1, SVG Export Plug-In . SVG Version: 6.00 Build 0)  -->
<svg version="1.1" id="Layer_1" xmlns="http://www.w3.org/2000/svg" xmlns:xlink="http://www.w3.org/1999/xlink" x="0px" y="0px"
	 viewBox="0 0 257 266" style="enable-background:new 0 0 257 266;" xml:space="preserve">
<style type="text/css">
	.st0{opacity:0.502;}
	.st1{fill:#FFE5A6;}
	.st2{fill:#FFCDBD;}
	.st3{fill:#FF786B;}
	.st4{fill:#3697FF;}
	.st5{fill:#D9AB41;}
	.st6{fill:#FFAD91;}
	.st7{fill:#FF786A;}
	.st8{fill:#D9584C;}
	.st9{fill:#217CDE;}
	.st10{display:none;}
	.st11{display:inline;}
	.st12{fill:#FFEFCC;}
	.st13{fill:#FFE19A;}
	.st14{fill:#191A1C;}
	.st15{fill:#111112;}
	.st16{fill:#FF887D;}
	.st17{fill:#0E0E0F;}
</style>
<g>
	<g class="st0">
		<path class="st1" d="M85.5,239.2c3.8,0,18.9-1.9,22.3-2.3c19.3-2.5,10.3-10.7,34.9-21.6c38.9-17.2,80.7-6.8,87-3.9
			c0,11.5-0.1,46.6-0.1,54.8c-12.3,0-146.2-0.3-200.5-0.3C29.5,258.2,58.3,239.2,85.5,239.2z"/>
	</g>
	<g>
		<path class="st1" d="M88.5,128.4c2.3,2.2,3.9,3.7,6.3,5.7c5.1,4.1,19.4,14.7,31.1,15.1c1.3,0,7.1-0.1,6.6-6.9
			c-0.3-3.3-0.2-8.2-2.2-10.8c-3-3.9-8-5.7-12.8-6.4C109,123.7,100.1,124.7,88.5,128.4z"/>
	</g>
	<g>
		<path class="st1" d="M152,130.6c2.4-0.4,4.1-0.6,6.5-1.2c5-1.1,18.3-4.8,24.2-11.8c0.6-0.8,3.5-6.3-0.9-9.3
			c-2.2-1.4-5.3-1.9-7.9-1.9c-3.8-0.1-7.3,2.2-10,4.8C158.9,115.9,155.3,121.8,152,130.6z"/>
	</g>
	<g>
		<path class="st2" d="M103.2,117.2c0,0-37.6,88.5-37.6,89.7c-0.2,8.8,28.4,6.7,29.3,4.6c0.9-2.2,23-51.4,31.9-70.6
			c0.6-1.3,7.5-16.4,7.5-16.4"/>
	</g>
	<g>
		<path class="st1" d="M107.5,146.5c-11.2-4.4-15.6-2.8-15.6-2.8s-26.4,62-26.4,63.2c-0.2,8.8,28.4,6.7,29.3,4.6
			c0.9-2.2,25.4-55.9,25.4-55.9S117.2,150.3,107.5,146.5z"/>
	</g>
	<g>
		<path class="st2" d="M183.3,113.3c-7.2-0.9-13.5-0.4-20.3,1.7c-4.8,0-9.6,1.8-12.4,5.1c3.7,4.1,6,10.1,5.8,15.6
			c-0.5,14.6-9.5,20.7-17.8,24.8c-4.3,2.1-8.2,3.6-11.7,5c-5.4,18.2,5.2,23.9,5.2,23.9s25.7-7.7,35.5-18.3
			c9.4-10.3,14.9-20.7,17.6-34.4C186.7,130,184,113.4,183.3,113.3z"/>
	</g>
	<g>
		<path class="st3" d="M135.8,20.5c-10.3-2-19.9-0.5-28.2,4.9c-10,6.5-17.7,16.3-21.8,27.5c-2.9,7.9-3.9,17-0.6,24.7
			c3.6,8.6,12.6,14.7,21.9,14.9c3.8,0.1,7.5-0.7,11.1-1.7c4.4-1.2,8.8-2.8,12.7-5.3c5.7-3.7,9.8-9.4,13.3-15.2
			c7.2-11.8,12.3-19.5,9.4-33.1C153,33.7,147.2,24.2,135.8,20.5z"/>
	</g>
	<g>
		<path class="st1" d="M156.4,135.7c-0.5,14.6-9.5,20.7-17.8,24.8c-4.3,2.1-8.2,3.6-11.7,5c-5.4,18.2,5.2,23.9,5.2,23.9
			s25.7-7.7,35.5-18.3c9.4-10.3,16.1-20.5,17.6-34.4c0.2-1.9-6.1-6.1-13.5-6.2C164.4,130.5,156.5,133,156.4,135.7z"/>
	</g>
	<g>
		<path class="st4" d="M100.9,99.2c-4.1,9.7-8.2,19.5-12.4,29.2c5.2,2.1,9.6,1.7,18.2,2.2c13.8,0.8,25.7,8.7,25.2,15.9
			c4-8.2,9.1-18.1,13.4-26.9c3.6,1.9,5.7,5.7,6.7,11c4.8-6.9,8.4-5.8,16.2-7.4c13.4-2.7,20.6-10.3,19.6-12.2
			c-10.9-21.1-27.5-26-27.5-26s-36.4-0.1-52.5-0.6C105.4,88.5,103.6,92.8,100.9,99.2z"/>
	</g>
	<g>
		<path class="st1" d="M143.2,28.9c-11.5,0.9-20.4,6.7-27.4,15C105,56.9,97,71.1,95.2,81.8c-0.8,4.9-0.2,10.3,2.8,14.3
			c3.7,4.9,10.2,7,16.4,7c9.7,0,20.2-4.9,27.8-10.9c3.5-2.8,4.4-6.3,4.4-6.3l14.8-0.3c0,0-0.4-9.9-0.4-14.1c3.4,0.8,10.1-1.4,13-7.8
			c5.5-12.2-3.2-21.7-7.4-23.1C163.8,39.7,157.5,28.9,143.2,28.9z"/>
	</g>
	<g>
		<path class="st5" d="M136.4,41.9c-0.1,0-0.2-0.1-0.3-0.2c-1.5-2.7-4.3-4.8-7.4-5.3c-0.2,0-0.3-0.2-0.3-0.4c0-0.2,0.2-0.3,0.4-0.3
			c3.3,0.6,6.3,2.7,7.9,5.7c0.1,0.2,0,0.4-0.1,0.5C136.5,41.9,136.4,41.9,136.4,41.9z"/>
	</g>
	<g>
		<path class="st5" d="M149.4,40.9c-0.3,0-0.5-0.1-0.7-0.1c-1.3-0.4-2.5-0.9-3.6-1.6c-0.2-0.1-0.2-0.3-0.1-0.5
			c0.1-0.2,0.3-0.2,0.5-0.1c1.1,0.6,2.3,1.2,3.5,1.5c0.2,0.1,0.5,0.1,0.7,0.1c0.4-0.1,0.6-0.4,0.9-0.8c0.3-0.4,0.6-0.8,0.8-1.2
			l0.2-0.3l0.3,0.2c0.4,0.3,0.9,0.5,1.4,0.6c0,0,0.2,0.1,0.2,0c0,0,0.1-0.1,0.1-0.1c0.4-0.4,0.7-0.9,0.9-1.4
			c0.1-0.2,0.3-0.3,0.4-0.2c0.2,0.1,0.3,0.3,0.2,0.4c-0.2,0.6-0.6,1.2-1,1.7c-0.1,0.1-0.2,0.2-0.4,0.3c-0.3,0.1-0.5,0-0.7-0.1
			c-0.4-0.1-0.8-0.3-1.2-0.5c-0.2,0.3-0.5,0.7-0.7,1c-0.3,0.5-0.7,0.9-1.3,1.1C149.6,40.9,149.5,40.9,149.4,40.9z"/>
	</g>
	<g>
		<g>
			<path class="st3" d="M150.3,29.4c1.2-0.4,3.6-0.3,5.3,1.8c1.6,1.9,1.9,4.2,1.9,5.3c0,2.3-0.5,4.7-2.1,7.1
				C156.4,38.2,154.1,31,150.3,29.4z"/>
		</g>
		<g>
			<path class="st3" d="M130.4,31.4c0.7-1.1,2.5-2.4,4.9-2.4c3,0.1,7.4,1.7,8.8,9.6c0.3,2,0.2,5.1-0.1,7.1c-0.6,3.3-3,7.7-4.7,9.3
				c0.3-3.9,1-7.4-0.4-12.6C137.7,38.6,134.6,33.8,130.4,31.4z"/>
		</g>
	</g>
	<g>
		<g>
			<path class="st2" d="M151.9,25.3c0.1,3.6,0.3,7.1,0.4,10.7c0,0.2,0,0.5-0.1,0.7c-0.4,0.9-1.7,0.6-2.5,0.1c-2.6-1.5-5-3-7.2-5.1
				c-0.3-0.3-0.6-0.6-0.7-1c-0.1-0.3-0.1-0.6-0.1-0.9c0-1.2,0-2.9,0-4.2c0.1,0,0.2,0,0.3,0"/>
		</g>
		<g>
			<circle class="st2" cx="146.7" cy="15.8" r="11.5"/>
		</g>
		<g>
			<path class="st6" d="M146.8,28.1c-0.1,0-0.1,0-0.2,0c-1.7-0.1-3.2-0.4-4.5-1.2c-0.2-0.1-0.2-0.3-0.1-0.5c0.1-0.2,0.3-0.2,0.5-0.1
				c1.2,0.7,2.6,1,4.2,1.1c1.4,0,3.4-0.5,4.4-1.1c0.2-0.1,0.4-0.1,0.5,0.1c0.1,0.2,0.1,0.4-0.1,0.5
				C150.4,27.5,148.4,28.1,146.8,28.1z"/>
		</g>
		<g>
			<path class="st7" d="M148.7,16.7c2.9-2.3,5.5-5.4,5.9-7.7c0.3,0.8,1.2,1.1,2,1.4c1.3,0.4,2.7-0.7,2.5-2.1
				c-0.9-4.9-8.8-8.4-12.9-8.2c-2.1,0.1-4.2,0.3-6.3,1.7c-1.9,1.3-2.3,1.6-3.7,3.4c-0.9,1.1-2.2,3.6-2.7,5.6
				c-0.6,2.5-0.5,5.6,0.5,7.8c0.7,1.5,2.3,4.1,5.2,6.1c-0.7-0.7-1.5-1.7-2-2.6c-0.5-0.9-0.7-2-0.3-2.9s1.3-1.7,2.3-1.6
				c1,0.1,1.8,1.2,1.4,2.2C143.4,19.5,148,17.3,148.7,16.7z"/>
		</g>
		<g>
			<path class="st6" d="M139.7,20.2L139.7,20.2c-0.2,0-0.3-0.2-0.3-0.3c0-0.2-0.1-0.4-0.3-0.6c-0.2-0.1-0.4-0.2-0.6-0.1
				c-0.2,0.1-0.4,0-0.4-0.2c-0.1-0.2,0-0.4,0.2-0.4c0.4-0.1,0.9,0,1.2,0.2c0.3,0.3,0.6,0.7,0.6,1.1C140.1,20,139.9,20.2,139.7,20.2z
				"/>
		</g>
		<g>
			<path class="st6" d="M138.3,21.9c-0.1,0-0.3-0.1-0.3-0.2c-0.2-0.4-0.1-1,0.2-1.3c0.1-0.1,0.4-0.1,0.5,0c0.1,0.1,0.1,0.4,0,0.5
				c-0.1,0.1-0.2,0.4-0.1,0.5c0.1,0.2,0,0.4-0.2,0.5C138.4,21.9,138.3,21.9,138.3,21.9z"/>
		</g>
		<g>
			<circle class="st3" cx="156.1" cy="17.5" r="0.9"/>
		</g>
	</g>
	<g>
		<path class="st2" d="M125.6,56.4c2.7-5,5.5-9,8.9-11.8c8.9-7.1,17.2-2.6,18.6-1.6c1.2,0.9,1.9,2.3,1.6,3.7
			c3.1,0.5,5.8,1.8,6.4,4.9c0.3,1.4,0.1,3.2-1.3,4.8c1.2,0.5,2.6,2.6,2.6,4.1c0,2.4-1.2,4.2-3.3,5.4c0,2.9-1.4,4.5-2.8,5.7
			c-2.4,2.1-6.5,2.9-6.5,2.9s-1.7,2.9-4.5,3.6c-6,1.5-11.7-3-14.9-7.4C127,66,125,62,125.6,56.4z"/>
	</g>
	<g>
		<path class="st2" d="M152.3,43.1c0.6-2.4,2.6-4.2,4.9-5.3c2.2-1.1,5-1.5,7.2-0.3c2.2,1.2,3.4,4.3,2,6.4c1.6-0.1,3.2,0.9,3.9,2.3
			c0.7,1.4,0.6,3.3-0.4,4.6c1.6,0.4,2.6,2.2,2.5,3.9s-1.2,3.1-2.6,4c1.6,0.5,2.2,2.7,1.4,4.2c-0.7,1.5-2.4,2.3-4,2.6
			c-1.7,0.3-3.5,0-4.7-1.2c-1.2-1.2-1.3-3.5,0.1-4.5c-1.6-0.1-3.5-0.4-4-1.9c-0.3-0.9,0-2,0.6-2.7s1.5-1.3,2.3-1.7
			c-1.7,0-3.6-0.1-5-1.2c-1.4-1.1-1.6-3.7,0-4.5C154.3,47.5,151.6,45.8,152.3,43.1z"/>
	</g>
	<g>
		<path class="st6" d="M149.6,73.9c-0.1,0-0.1,0-0.2-0.1c-0.2-0.1-0.2-0.3-0.1-0.5c0.6-0.8,1-1.8,1.1-2.9c0-0.2,0.2-0.3,0.4-0.3
			c0.2,0,0.3,0.2,0.3,0.4c-0.1,1.2-0.5,2.3-1.2,3.2C149.9,73.9,149.7,73.9,149.6,73.9z"/>
	</g>
	<g>
		<path class="st6" d="M158.4,46.4c-0.1,0-0.2-0.1-0.3-0.2c-0.1-0.2-0.1-0.4,0.1-0.5c2.1-1.3,4.7-1.9,7.1-1.6c0.2,0,0.3,0.2,0.3,0.4
			c0,0.2-0.2,0.3-0.4,0.3c-2.3-0.3-4.7,0.3-6.7,1.5C158.5,46.4,158.4,46.4,158.4,46.4z"/>
	</g>
	<g>
		<path class="st6" d="M166,52.6c-0.2,0-0.3-0.1-0.3-0.3c0-0.2,0.1-0.4,0.3-0.4c1.1-0.2,2.1-0.6,3.1-1c0.2-0.1,0.4,0,0.5,0.2
			c0.1,0.2,0,0.4-0.2,0.5C168.3,52,167.2,52.3,166,52.6C166,52.6,166,52.6,166,52.6z"/>
	</g>
	<g>
		<path class="st6" d="M166,60.5c-0.2,0-0.5,0-0.7,0c-0.2,0-0.3-0.2-0.3-0.4c0-0.2,0.2-0.3,0.4-0.3c1.3,0.1,2.6-0.1,3.8-0.8
			c0.2-0.1,0.4,0,0.5,0.1c0.1,0.2,0,0.4-0.1,0.5C168.4,60.2,167.2,60.5,166,60.5z"/>
	</g>
	<g>
		<path class="st6" d="M163,55.8C163,55.8,163,55.8,163,55.8c-0.2,0-0.4-0.2-0.3-0.4c0.1-2.7-1.2-4.5-2-5.3
			c-1.4-1.4-2.8-2.1-4.8-2.5c-1.8-0.4-3.7-0.4-6,0c-0.2,0-0.4-0.1-0.4-0.3c0-0.2,0.1-0.4,0.3-0.4c2.4-0.4,4.4-0.4,6.3,0
			c2.2,0.5,3.7,1.3,5.2,2.7c0.9,0.9,2.4,2.9,2.2,5.8C163.3,55.6,163.2,55.8,163,55.8z"/>
	</g>
	<g>
		<path class="st6" d="M156.7,46.9c-0.1,0-0.2-0.1-0.3-0.2c-1-1.6-2.5-2.9-4.2-3.7c-0.2-0.1-0.3-0.3-0.2-0.5
			c0.1-0.2,0.3-0.3,0.5-0.2c1.8,0.8,3.4,2.2,4.5,3.9c0.1,0.2,0.1,0.4-0.1,0.5C156.9,46.9,156.8,46.9,156.7,46.9z"/>
	</g>
	<g>
		<path class="st6" d="M158.5,65.5c-0.2,0-0.3-0.1-0.3-0.3c-0.5-1.8-2.2-2.9-3.7-3.4c-1.8-0.5-3.6-0.4-5.4-0.3
			c-0.2,0-0.4-0.1-0.4-0.3c0-0.2,0.1-0.4,0.3-0.4c1.8-0.1,3.8-0.2,5.7,0.3c1.7,0.5,3.6,1.7,4.2,3.9
			C158.9,65.3,158.8,65.4,158.5,65.5C158.6,65.5,158.6,65.5,158.5,65.5z"/>
	</g>
	<g>
		<path class="st6" d="M159.8,65.6c-0.1,0-0.3-0.1-0.3-0.2c-0.1-0.2,0-0.4,0.2-0.5c2-0.8,2.9-3.2,3-3.5c0.7-1.8,0-4.8-2.5-6.7
			c-3.4-2.7-7-2.5-10.2-2.2c-0.2,0-0.4-0.1-0.4-0.3c0-0.2,0.1-0.4,0.3-0.4c3.5-0.4,7.3-0.3,10.7,2.3c2,1.6,3.7,4.8,2.7,7.5
			c-0.5,1.3-1.7,3.1-3.3,3.9C159.9,65.6,159.9,65.6,159.8,65.6z"/>
	</g>
	<g>
		<path class="st8" d="M152.1,4.5c-0.1,0-0.2,0-0.3-0.1c-1.4-1.4-3.3-2.3-5.3-2.3c-0.2,0-0.3-0.2-0.3-0.4c0-0.2,0.2-0.3,0.3-0.3
			c0,0,0,0,0,0c2.2,0,4.3,1,5.8,2.6c0.1,0.1,0.1,0.4,0,0.5C152.3,4.4,152.2,4.5,152.1,4.5z"/>
	</g>
	<g>
		<path class="st8" d="M131.4,31.5c-0.1,0-0.2,0-0.2-0.1c-0.1-0.1-0.1-0.4,0-0.5c1.5-1.6,4-2.4,6.2-1.9c0.2,0,0.3,0.2,0.3,0.4
			c0,0.2-0.2,0.3-0.4,0.3c-2-0.4-4.1,0.2-5.5,1.7C131.5,31.4,131.4,31.5,131.4,31.5z"/>
	</g>
	<g>
		<path class="st8" d="M104.6,41.3c-0.6,0-1.2,0-1.8,0c-2.3-0.1-5.3-0.5-7.5-2.2c-0.1-0.1-0.2-0.3,0-0.5c0.1-0.1,0.3-0.2,0.5,0
			c2,1.7,4.8,2,7,2.1c6.3,0.3,12.7-1,18.5-3.7c0.2-0.1,0.4,0,0.5,0.2c0.1,0.2,0,0.4-0.2,0.5C116.3,40,110.5,41.3,104.6,41.3z"/>
	</g>
	<g>
		<path class="st8" d="M90.4,39.6c-1,0-2-0.2-3-0.7c-0.3-0.2-0.7-0.4-0.8-0.8c-0.2-0.5,0-1.2,0.6-1.7c0.9-0.8,2.1-1.3,3.5-1.3
			c1.3-0.1,2.5,0.2,3.6,0.5h0c0.8,0.2,1.2,0.9,1.1,1.4c-0.1,0.5-0.4,0.8-0.7,1C93.6,39.1,92,39.6,90.4,39.6z M91.1,35.8
			c-0.1,0-0.2,0-0.3,0c-1.2,0.1-2.3,0.5-3.1,1.2c-0.3,0.2-0.5,0.6-0.4,0.9c0.1,0.2,0.3,0.3,0.5,0.4c2.1,1,4.8,0.7,6.5-0.8
			c0.2-0.2,0.4-0.4,0.4-0.6c0-0.2-0.1-0.6-0.6-0.7l0,0C93.2,36,92.1,35.8,91.1,35.8z"/>
	</g>
	<g>
		<path class="st8" d="M90.3,42.1C90.3,42.1,90.3,42.1,90.3,42.1c-1,0-1.9-0.6-2.2-1.4c-0.2-0.6-0.1-1.2,0.3-1.8
			c0.3-0.5,0.8-0.9,1.2-1.2c0.7-0.5,1.5-1.2,2.4-1.5c1-0.4,2.1-0.4,2.9-0.1l0.1,0l0.1,0.1c0.4,0.6,0.5,1.2,0.4,1.8
			c-0.2,1.3-1.2,2.4-2.9,3.4C91.9,41.8,91.1,42.1,90.3,42.1z M93.7,36.5c-0.5,0-0.9,0.1-1.4,0.3c-0.8,0.3-1.6,0.9-2.2,1.4
			c-0.4,0.3-0.8,0.6-1,1.1c-0.3,0.4-0.3,0.9-0.2,1.2c0.2,0.6,0.9,0.9,1.5,0.9c0.7,0,1.4-0.3,2-0.7c1.5-0.9,2.4-1.8,2.6-2.9
			c0.1-0.3,0.1-0.7-0.2-1.2C94.3,36.6,94,36.5,93.7,36.5z"/>
	</g>
	<g>
		<path class="st8" d="M89.8,55C89.8,55,89.8,55,89.8,55c-0.3,0-0.4-0.2-0.3-0.4c0.2-1.4,1.1-2.6,2.7-4c0.3-0.3,0.7-0.5,1-0.8
			c0.9-0.7,1.7-1.4,2.4-2.3c0.6-0.8,1-2,0.5-2.7c-0.2-0.3-0.6-0.5-1-0.7c-0.2-0.1-0.5-0.3-0.7-0.4c-0.9-0.7-1.4-1.8-1.3-2.9
			c0-0.4,0.2-0.8,0.3-1.2c-1.6,0.8-3,1.8-4.5,3.1c-0.5,0.4-1.1,1-1.4,1.6c-0.3,0.5-0.3,1.3,0.1,1.9c0.1,0.1,0.2,0.2,0.3,0.3
			c0.1,0.1,0.3,0.3,0.4,0.5c0.5,0.7,0.2,1.6-0.2,2.2c-0.4,0.6-1,0.9-1.6,1.2c-2.1,1.1-4.4,1.8-6.8,2.1c-0.2,0-0.4-0.1-0.4-0.3
			c0-0.2,0.1-0.4,0.3-0.4c2.3-0.3,4.5-1,6.6-2c0.5-0.2,1-0.5,1.4-1c0.3-0.4,0.4-0.9,0.2-1.4c-0.1-0.1-0.2-0.2-0.3-0.4
			c-0.1-0.1-0.2-0.2-0.3-0.3c-0.5-0.7-0.6-1.7-0.2-2.6c0.4-0.8,1-1.4,1.6-1.9c2-1.7,4.1-3,6.4-4l0.3,0.6c-0.8,0.4-1.3,1.2-1.4,2.1
			c-0.1,0.9,0.3,1.7,1,2.3c0.2,0.1,0.4,0.3,0.6,0.4c0.4,0.2,0.9,0.5,1.2,0.9c0.8,1.1,0.3,2.6-0.5,3.6c-0.7,0.9-1.6,1.7-2.5,2.4
			c-0.3,0.3-0.6,0.5-1,0.8c-1.4,1.3-2.2,2.4-2.4,3.6C90.1,54.9,90,55,89.8,55z"/>
	</g>
	<g>
		<path class="st8" d="M137,23.2c-0.1,0-0.2,0-0.2-0.1c-0.7-0.7-1.4-1.5-1.9-2.3c-0.1-0.2-0.1-0.4,0.1-0.5c0.2-0.1,0.4-0.1,0.5,0.1
			c0.5,0.8,1.1,1.5,1.8,2.2c0.1,0.1,0.1,0.4,0,0.5C137.2,23.1,137.1,23.2,137,23.2z"/>
	</g>
	<g>
		<g>
			<path class="st3" d="M148.2,185.2c0,0-1.9,2.2-2.4,3.6c-0.6,1.7-0.9,3.3-0.9,5.2c0.1,3.8,1.4,7.5,2.9,12c0.2,0.6,0.6,3,0.6,3.6
				c0.1,1-0.7,2.9-1.4,3.6c-2.4,2.2-2.5,2.2-5.5,3.5c-0.5,0.2-1,0.4-1.5,0.4c-0.5,0-1-0.2-1.4-0.4c-5.2-2.1-8.7-7-11.1-12.1
				c-2.4-5-1.6-9.6-4.3-14.5c-1.4-2.5-1.4-3-3.2-5.2c-1.4-1.9-3.7-5.5-4.1-7.8c-0.3-1.8-0.8-4.4-0.2-6.1c0.4-1.1,1.4-2.6,2.2-3.5
				c1-0.9,2.6-1.8,4-2.1c4.5-1.1,14.6-3.8,14.6-3.8s-2,3.7,1.9,11.4C143,182.6,148.2,185.2,148.2,185.2z"/>
		</g>
		<g>
			<path class="st3" d="M144.6,189.6c2.3-3.1,4.1-4.4,7-5.2c0.7-0.2,1.4-0.4,1.7-1.1c0.1-0.3,0.1-0.7,0-1c-0.4-1.3-1.5-2.3-2.7-3
				c-0.7-0.4-1.4-0.8-2.2-0.7c-0.7,0.1-1.3,0.6-1.7,1.1c-1.4,1.4-2.5,3.1-3.4,4.8c-0.4,0.8-0.8,1.8-0.6,2.7S143.8,189.1,144.6,189.6
				z"/>
		</g>
		<g>
			<path class="st8" d="M143.6,204c-0.2,0-0.3-0.1-0.3-0.3c-1-3.7-1.5-6.7-1.6-9.5c0-3.5,0.7-6.7,2.1-9.4c0.1-0.2,0.3-0.2,0.5-0.1
				c0.2,0.1,0.2,0.3,0.1,0.5c-1.4,2.5-2.1,5.7-2,9c0,2.7,0.5,5.7,1.5,9.3C144,203.8,143.9,204,143.6,204
				C143.7,204,143.6,204,143.6,204z"/>
		</g>
		<g>
			<path class="st8" d="M145.6,205.3c0,0-0.1,0-0.1,0c-0.3-0.1-0.5-0.3-0.6-0.6c-0.1-0.4,0.1-0.7,0.3-1c0.1-0.1,0.2-0.3,0.2-0.4
				c0-0.1-0.2-0.2-0.5-0.3c-0.3-0.1-0.8-0.2-1-0.6c-0.4-0.6,0.1-1.2,0.4-1.6c0.3-0.4,0.5-0.7,0.4-0.9c-0.1-0.2-0.3-0.3-0.6-0.4
				c-0.4-0.1-0.8-0.3-1-0.7l-0.2-0.3l0.3-0.2c0.4-0.2,0.8-0.5,1-0.9c0.2-0.3,0.2-0.7,0-0.9c-0.1,0-0.1-0.1-0.2-0.1
				c-0.2-0.1-0.3-0.2-0.5-0.4c-0.4-0.6,0.1-1.2,0.5-1.7c0.4-0.4,0.6-0.7,0.5-0.8c-0.1-0.1-0.2-0.2-0.4-0.2c-0.3-0.1-0.6-0.2-0.7-0.5
				c-0.1-0.2-0.1-0.4-0.1-0.7c0.1-0.4,0.6-0.8,0.9-0.9c0.5-0.3,0.8-0.5,0.7-0.7c0-0.1-0.2-0.3-0.4-0.4c-0.2-0.2-0.5-0.4-0.6-0.7
				c-0.2-0.6,0.1-1.2,0.6-1.5c0.2-0.2,0.5-0.3,0.7-0.4c0.2-0.1,0.3-0.1,0.4-0.2c0.2-0.1,0.3-0.2,0.3-0.3c0-0.1,0-0.1,0-0.1
				c-0.1-0.2-0.4-0.4-0.8-0.5c-0.2-0.1-0.3-0.2-0.2-0.4c0.1-0.2,0.2-0.3,0.4-0.2c0.3,0.1,0.9,0.3,1.2,0.8c0.1,0.2,0.1,0.5,0.1,0.7
				c-0.1,0.3-0.3,0.5-0.6,0.7c-0.2,0.1-0.3,0.2-0.5,0.2c-0.2,0.1-0.4,0.2-0.6,0.3c-0.2,0.2-0.4,0.5-0.3,0.7c0.1,0.1,0.2,0.3,0.4,0.4
				c0.2,0.2,0.6,0.4,0.6,0.8c0.1,0.8-0.8,1.3-1.1,1.4c-0.3,0.1-0.5,0.4-0.6,0.5c0,0.1,0,0.1,0,0.1c0.1,0.1,0.2,0.2,0.4,0.2
				c0.2,0.1,0.5,0.2,0.7,0.5c0.4,0.6-0.1,1.2-0.6,1.7c-0.4,0.4-0.6,0.6-0.5,0.8c0,0.1,0.1,0.1,0.2,0.2c0.1,0.1,0.2,0.1,0.3,0.2
				c0.5,0.5,0.5,1.3,0.2,1.8c-0.2,0.4-0.5,0.6-0.8,0.8c0.1,0.1,0.2,0.1,0.4,0.1c0.4,0.1,0.9,0.3,1.1,0.8c0.2,0.6-0.2,1.1-0.6,1.6
				c-0.4,0.4-0.5,0.6-0.4,0.8c0.1,0.1,0.3,0.2,0.6,0.3c0.4,0.1,0.9,0.2,1,0.7c0.1,0.4-0.1,0.8-0.2,1c-0.1,0.1-0.2,0.3-0.2,0.5
				c0,0,0,0,0,0c0.1-0.1,0.3-0.1,0.4,0c0.2,0.1,0.2,0.3,0.1,0.5C146,205.2,145.8,205.3,145.6,205.3z"/>
		</g>
		<g>
			<path class="st8" d="M148.5,185.8c0,0-0.1,0-0.1,0c-0.2-0.1-0.3-0.2-0.4-0.3c-0.6-0.7-1.3-1.5-1.8-2l-0.2-0.2l0.1-0.2
				c0.5-0.8,1.1-1.5,1.9-2.1c0.4-0.3,1-0.7,1.6-0.7c0,0,0,0,0,0c0.7,0,1.2,0.4,1.7,0.8c0.7,0.6,1.5,1.2,2.1,2.1
				c0.2,0.3,0.2,0.6,0.1,0.8c-0.2,0.3-0.5,0.4-0.7,0.4c-1.4,0.3-2.7,0.7-3.9,1.4C148.8,185.8,148.7,185.8,148.5,185.8z M146.8,183.2
				c0.5,0.5,1.1,1.2,1.7,1.9c0,0,0,0,0,0c0,0,0.1,0,0.1,0c1.3-0.7,2.7-1.1,4.1-1.4c0.1,0,0.1,0,0.2,0c0,0,0-0.1-0.1-0.1
				c-0.5-0.8-1.2-1.3-1.9-1.9c-0.4-0.4-0.8-0.7-1.3-0.7c0,0,0,0,0,0c-0.4,0-0.8,0.3-1.2,0.6C147.8,182,147.3,182.6,146.8,183.2z"/>
		</g>
		<g>
			<path class="st8" d="M141.3,216.3c0,0-0.1,0-0.1,0c-3.1-0.9-5.8-3.2-8.3-6.9c-2.5-3.6-3.2-6.1-4.1-9.5c-0.3-1.1-0.5-2.1-0.7-3
				c-0.4-2.3-0.9-4.5-2.4-7.2c-0.9-1.6-2.7-4-4.1-5.7c-1.8-2.1-3-4.4-3.6-6.8c-0.7-2.7-0.5-5.4,0.5-7.7c0.1-0.2,0.3-0.3,0.5-0.2
				c0.2,0.1,0.3,0.3,0.2,0.5c-0.9,2.1-1.1,4.7-0.4,7.2c0.6,2.2,1.8,4.4,3.5,6.5c1.4,1.7,3.3,4.1,4.2,5.8c1.6,2.8,2,5,2.4,7.4
				c0.2,1,0.4,2,0.7,3c0.9,3.3,1.6,5.7,4,9.2c2.4,3.5,5,5.7,8,6.6c0.2,0.1,0.3,0.3,0.2,0.4C141.6,216.2,141.4,216.3,141.3,216.3z"/>
		</g>
	</g>
	<g>
		<g>
			<g>
				<path class="st3" d="M96.4,211.2c0,0,0.3,3.4,1,5c0.9,1.9,2,3.5,3.5,4.9c3.2,3.1,7.3,5,12.2,7.5c0.6,0.3,2.9,2,3.4,2.4
					c0.9,0.8,1.9,2.9,1.8,4.1c-0.2,3.7-0.2,3.8-1.5,7.3c-0.2,0.6-0.5,1.1-0.9,1.6c-0.4,0.4-0.9,0.7-1.5,0.9
					c-5.9,2.5-12.8,1.3-18.9-0.9c-6.1-2.2-9.2-6.6-15.4-8.4c-3.1-0.9-3.6-1.3-6.9-1.7c-2.7-0.3-7.5-1.5-9.7-3
					c-1.8-1.2-4.3-3-5.2-4.9c-0.6-1.2-1.1-3.3-1-4.6c0-1.5,0.7-3.6,1.5-4.9c2.8-4.6,8.7-14.9,8.7-14.9s1.4,4.6,10.9,7.8
					C90.1,213.3,96.4,211.2,96.4,211.2z"/>
			</g>
			<g>
				<path class="st3" d="M97.1,217.7c-0.7-4.4-0.3-6.9,1.4-9.9c0.4-0.7,0.8-1.5,0.5-2.2c-0.2-0.3-0.5-0.6-0.8-0.8
					c-1.4-0.8-3.1-0.6-4.6-0.3c-0.9,0.2-1.8,0.5-2.4,1.2c-0.5,0.6-0.5,1.5-0.5,2.3c0,2.3,0.4,4.6,1.2,6.7c0.3,1,0.8,2.1,1.7,2.7
					C94.4,217.9,96,218,97.1,217.7z"/>
			</g>
		</g>
		<g>
			<path class="st8" d="M107.7,228.6c-0.9,0-1.9-0.3-3-0.9c-4.8-2.7-8.9-6.8-11.6-11.7c-0.1-0.2,0-0.4,0.1-0.5
				c0.2-0.1,0.4,0,0.5,0.1c2.6,4.8,6.6,8.8,11.3,11.4c1,0.6,2.8,1.3,4,0.4c0.1-0.1,0.4-0.1,0.5,0c0.1,0.1,0.1,0.4,0,0.5
				C109,228.4,108.4,228.6,107.7,228.6z"/>
		</g>
		<g>
			<path class="st8" d="M107.6,227.9c0,0-0.1,0-0.1,0c-0.2-0.1-0.3-0.3-0.2-0.5c0-0.1,0-0.2-0.1-0.3c-0.1-0.1-0.2-0.2-0.3-0.2
				c-0.1,0-0.2,0-0.2,0.1c-0.3,0.1-0.6,0.2-0.9-0.1c-0.2-0.2-0.3-0.5-0.3-0.7c0-0.1,0-0.2,0-0.2c-0.1-0.2-0.4-0.2-0.8-0.2
				c-0.5,0-1.1,0-1.4-0.5c-0.1-0.2-0.1-0.3-0.1-0.5c0-0.1,0-0.2-0.1-0.3c-0.1-0.2-0.3-0.2-0.7-0.3c-0.4-0.1-0.9-0.1-1.2-0.6
				c-0.2-0.3-0.2-0.5-0.2-0.8c0-0.2,0-0.3-0.1-0.4c-0.1-0.3-0.6-0.4-1-0.5l-0.1,0c-0.8-0.2-1.3-0.7-1.3-1.3c0-0.2,0.1-0.4,0.1-0.5
				c0-0.1,0.1-0.3,0.1-0.3c0-0.2-0.3-0.2-0.7-0.3c-0.5-0.1-1.1-0.2-1.3-0.7c-0.1-0.3,0-0.7,0.1-0.9c0.1-0.2,0.1-0.3,0.1-0.4
				c0-0.2-0.2-0.3-0.4-0.3c-0.3,0-0.6,0-0.9,0.1c-0.2,0-0.4-0.1-0.4-0.2c0-0.2,0.1-0.4,0.2-0.4c0.3-0.1,0.7-0.2,1.1-0.1
				c0.5,0.1,0.9,0.5,1,0.9c0,0.3,0,0.6-0.1,0.8c-0.1,0.2-0.1,0.4-0.1,0.5c0.1,0.2,0.3,0.2,0.8,0.3c0.5,0.1,1.2,0.2,1.3,0.8
				c0.1,0.3,0,0.5-0.1,0.7c0,0.1-0.1,0.2-0.1,0.3c0,0.3,0.4,0.5,0.8,0.6l0.1,0c0.5,0.1,1.2,0.3,1.5,0.9c0.1,0.2,0.1,0.4,0.1,0.6
				c0,0.2,0,0.4,0.1,0.5c0.1,0.2,0.4,0.2,0.8,0.3c0.5,0.1,1,0.1,1.3,0.7c0.1,0.2,0.1,0.3,0.1,0.5c0,0.1,0,0.2,0.1,0.3
				c0.1,0.2,0.4,0.2,0.8,0.2c0.5,0,1.2,0,1.4,0.6c0.1,0.1,0.1,0.3,0.1,0.4c0,0.1,0,0.2,0.1,0.2c0,0,0.2,0,0.3-0.1
				c0.1,0,0.2-0.1,0.4-0.1c0.3,0,0.7,0.1,0.9,0.4c0.2,0.3,0.3,0.7,0.1,1C107.8,227.8,107.7,227.9,107.6,227.9z"/>
		</g>
		<g>
			<path class="st8" d="M95.1,212.9c-0.1,0-0.2,0-0.2,0c-0.5,0-1-0.1-1.5-0.2c-0.3,0-0.7-0.1-1-0.4c-0.2-0.3-0.3-0.6-0.3-0.8
				c-0.2-1.4-0.2-2.8-0.1-4.2c0-0.4,0.1-0.8,0.3-1.1c0.4-0.8,1.3-1.1,2-1.3c1.2-0.2,2.5-0.1,3.6,0.4c0.2-0.1,0.5-0.1,0.6,0
				c0.2,0.1,0.2,0.4,0.1,0.7l-2.7,6.4c-0.1,0.1-0.1,0.3-0.3,0.4C95.5,212.9,95.3,212.9,95.1,212.9z M95.4,205.5c-0.3,0-0.6,0-1,0.1
				c-0.4,0.1-1.2,0.3-1.5,0.9c-0.1,0.3-0.2,0.6-0.2,0.9c-0.1,1.3-0.1,2.7,0.1,4.1c0,0.2,0.1,0.4,0.1,0.5c0.1,0.1,0.3,0.2,0.6,0.2
				c0.5,0.1,1,0.1,1.4,0.2c0.1,0,0.3,0,0.3,0c0,0,0.1-0.1,0.1-0.2l2.5-6l-0.1,0C97.1,205.7,96.2,205.5,95.4,205.5z"/>
		</g>
		<g>
			<path class="st8" d="M106.7,244c-5.3,0-10.7-1.6-15.1-4.5c-1-0.7-2-1.4-3-2.2c-1.8-1.4-3.7-2.8-5.8-3.7c-2.3-1-4.9-1.3-7.3-1.6
				c-1.6-0.2-3.4-0.4-5-0.8c-3.1-0.8-6-2.2-8.5-4.2c-1.3-1-2.8-3.3-3.2-5.7c0-0.2,0.1-0.4,0.3-0.4c0.2,0,0.4,0.1,0.4,0.3
				c0.4,2.2,1.8,4.4,2.9,5.3c2.4,1.9,5.2,3.4,8.2,4.1c1.6,0.4,3.3,0.6,4.9,0.8c2.5,0.3,5.1,0.6,7.5,1.6c2.2,0.9,4.1,2.4,6,3.8
				c0.9,0.7,1.9,1.5,2.9,2.1c6.1,4,13.9,5.4,21,3.6c0.2,0,0.4,0.1,0.4,0.3c0,0.2-0.1,0.4-0.3,0.4C111,243.8,108.9,244,106.7,244z"/>
		</g>
	</g>
	<g>
		<path class="st5" d="M147.1,85.3c-0.1,0-0.1,0-0.2,0c-0.2-0.1-0.2-0.3-0.1-0.5c1.2-2.2,1.5-4.9,0.8-7.3c-0.1-0.2,0.1-0.4,0.2-0.4
			c0.2-0.1,0.4,0.1,0.4,0.2c0.7,2.6,0.4,5.5-0.9,7.8C147.3,85.2,147.2,85.3,147.1,85.3z"/>
	</g>
	<g>
		<path class="st5" d="M102.3,86.3c-0.1,0-0.1,0-0.2,0c-0.2-0.1-0.2-0.3-0.2-0.5l6.9-13.5c2.6-5.2,5.3-10.5,9.5-14.7
			c2.1-2.2,4-3.2,6-3.4c0.2,0,0.4,0.1,0.4,0.3c0,0.2-0.1,0.4-0.3,0.4c-1.8,0.1-3.5,1.1-5.5,3.2c-4.1,4.2-6.7,9.5-9.3,14.6l-6.9,13.5
			C102.6,86.3,102.4,86.3,102.3,86.3z"/>
	</g>
	<g>
		<path class="st5" d="M161,71.7C160.9,71.7,160.9,71.7,161,71.7c-1-0.2-1.9-0.6-2.6-1.2c-0.2-0.1-0.2-0.3-0.1-0.5
			c0.1-0.2,0.3-0.2,0.5-0.1c0.7,0.5,1.5,0.9,2.3,1.1c0.2,0,0.3,0.2,0.3,0.4C161.3,71.6,161.1,71.7,161,71.7z"/>
	</g>
	<g>
		<path class="st5" d="M140.9,81.9c-1.7,0-3.4-0.4-5.1-1.1c-2.8-1.3-5.3-3.4-7.9-6.8c-2-2.6-3.3-4.9-4.2-7.3
			c-1.1-2.9-1.3-5.8-0.9-8.4c0-0.2,0.2-0.3,0.4-0.3c0.2,0,0.3,0.2,0.3,0.4c-0.5,2.5-0.2,5.3,0.8,8c0.8,2.3,2.2,4.6,4.1,7.1
			c2.5,3.3,5,5.4,7.7,6.6c3.3,1.5,7,1.4,9.6-0.3c0.2-0.1,0.4-0.1,0.5,0.1c0.1,0.2,0.1,0.4-0.1,0.5C144.6,81.4,142.8,81.9,140.9,81.9
			z"/>
	</g>
	<g>
		<path class="st5" d="M124,57.9c-0.1,0-0.2,0-0.2-0.1c-0.1-0.1-0.1-0.4,0-0.5c0.3-0.3,0.6-0.5,0.9-0.6c0.2-0.1,0.4,0,0.5,0.2
			c0.1,0.2,0,0.4-0.2,0.5c-0.3,0.1-0.5,0.3-0.7,0.5C124.2,57.9,124.1,57.9,124,57.9z"/>
	</g>
	<g>
		<path class="st5" d="M123.8,60.7c-0.1,0-0.2-0.1-0.3-0.2c-0.1-0.2-0.1-0.4,0.1-0.5l1-0.7c0.2-0.1,0.4-0.1,0.5,0.1
			c0.1,0.2,0.1,0.4-0.1,0.5l-1,0.7C123.9,60.7,123.8,60.7,123.8,60.7z"/>
	</g>
	<g>
		<path class="st5" d="M124.3,63.8c-0.1,0-0.2,0-0.3-0.1c-0.1-0.1-0.1-0.4,0-0.5c0.3-0.3,0.7-0.6,1.1-0.8c0.2-0.1,0.4,0,0.5,0.1
			c0.1,0.2,0,0.4-0.1,0.5c-0.4,0.2-0.7,0.5-1,0.7C124.4,63.7,124.3,63.8,124.3,63.8z"/>
	</g>
	<g>
		<path class="st5" d="M125.3,66.8c-0.1,0-0.2,0-0.3-0.1c-0.1-0.1-0.1-0.4,0-0.5c0.4-0.3,0.8-0.6,1.2-0.9c0.2-0.1,0.4-0.1,0.5,0.1
			c0.1,0.2,0.1,0.4-0.1,0.5c-0.4,0.2-0.8,0.5-1.1,0.8C125.4,66.8,125.3,66.8,125.3,66.8z"/>
	</g>
	<g>
		<path class="st5" d="M127.1,69.8c-0.1,0-0.2,0-0.2-0.1c-0.1-0.1-0.2-0.3-0.1-0.5c0.3-0.4,0.7-0.7,1.1-0.9c0.2-0.1,0.4,0,0.5,0.1
			s0,0.4-0.1,0.5c-0.3,0.2-0.6,0.4-0.9,0.7C127.3,69.8,127.2,69.8,127.1,69.8z"/>
	</g>
	<g>
		<path class="st5" d="M129.3,73.1c-0.1,0-0.1,0-0.2-0.1c-0.2-0.1-0.2-0.3-0.1-0.5c0.3-0.4,0.7-0.7,1.1-0.9c0.2-0.1,0.4,0,0.5,0.1
			c0.1,0.2,0,0.4-0.1,0.5c-0.3,0.2-0.6,0.4-0.9,0.7C129.5,73.1,129.4,73.1,129.3,73.1z"/>
	</g>
	<g>
		<path class="st5" d="M131.6,75.8c-0.1,0-0.2,0-0.3-0.1c-0.1-0.1-0.1-0.4,0-0.5l0.9-0.9c0.1-0.1,0.4-0.1,0.5,0
			c0.1,0.1,0.1,0.4,0,0.5l-0.9,0.9C131.7,75.8,131.7,75.8,131.6,75.8z"/>
	</g>
	<g>
		<path class="st5" d="M134.7,78.7c-0.1,0-0.2,0-0.2-0.1c-0.2-0.1-0.2-0.3-0.1-0.5c0.4-0.5,0.8-0.9,1.2-1.3c0.1-0.1,0.4-0.1,0.5,0
			c0.1,0.1,0.1,0.4,0,0.5c-0.4,0.3-0.8,0.7-1.1,1.2C134.9,78.6,134.8,78.7,134.7,78.7z"/>
	</g>
	<g>
		<path class="st5" d="M137.8,80c-0.1,0-0.2,0-0.2-0.1c-0.1-0.1-0.2-0.3,0-0.5l0.8-1c0.1-0.1,0.3-0.2,0.5,0c0.1,0.1,0.2,0.3,0,0.5
			l-0.8,1C138,80,137.9,80,137.8,80z"/>
	</g>
	<g>
		<path class="st5" d="M140.9,80.6c-0.1,0-0.1,0-0.2,0c-0.2-0.1-0.2-0.3-0.1-0.5c0.2-0.4,0.5-0.8,0.9-1c0.2-0.1,0.4-0.1,0.5,0.1
			c0.1,0.2,0.1,0.4-0.1,0.5c-0.3,0.2-0.5,0.5-0.7,0.8C141.2,80.5,141.1,80.6,140.9,80.6z"/>
	</g>
	<g>
		<path class="st5" d="M144.3,80.2c-0.1,0-0.2,0-0.2-0.1c-0.1-0.1-0.2-0.3,0-0.5l0.7-0.9c0.1-0.1,0.3-0.2,0.5,0
			c0.1,0.1,0.2,0.3,0,0.5l-0.7,0.9C144.5,80.2,144.4,80.2,144.3,80.2z"/>
	</g>
	<g>
		<path class="st5" d="M146.3,79.4c-0.1,0-0.2,0-0.2-0.1c-0.1-0.1-0.2-0.3,0-0.5l0.7-0.9c0.1-0.1,0.3-0.2,0.5,0
			c0.1,0.1,0.2,0.3,0,0.5l-0.7,0.9C146.5,79.4,146.4,79.4,146.3,79.4z"/>
	</g>
	<g>
		<path class="st5" d="M174.3,52.7C174.3,52.7,174.3,52.7,174.3,52.7l-2.2-0.4c-0.2,0-0.3-0.2-0.3-0.4c0-0.2,0.2-0.3,0.4-0.3
			l2.1,0.4c0.2,0,0.3,0.2,0.3,0.4C174.7,52.5,174.5,52.7,174.3,52.7z"/>
	</g>
	<g>
		<path class="st9" d="M147.8,112.2c0,0-0.1,0-0.1,0c-0.2-0.1-0.3-0.3-0.2-0.5c2.6-5.9,4.4-12.1,5.5-18.5c0-0.2,0.2-0.3,0.4-0.3
			c0.2,0,0.3,0.2,0.3,0.4c-1.1,6.4-3,12.7-5.6,18.6C148.1,112.1,148,112.2,147.8,112.2z"/>
	</g>
	<g>
		<path class="st5" d="M90.9,155c0,0-0.1,0-0.1,0c-0.2-0.1-0.3-0.3-0.2-0.4l2.9-8.5c0.1-0.2,0.3-0.3,0.4-0.2
			c0.2,0.1,0.3,0.3,0.2,0.4l-2.9,8.5C91.2,154.9,91.1,155,90.9,155z"/>
	</g>
	<g>
		<path class="st5" d="M94.8,156c0,0-0.1,0-0.1,0c-0.2-0.1-0.3-0.3-0.2-0.5c1.3-2.8,2.4-5.7,3.3-8.7c0.1-0.2,0.3-0.3,0.4-0.2
			c0.2,0.1,0.3,0.3,0.2,0.4c-1,3-2.1,5.9-3.4,8.7C95.1,156,94.9,156,94.8,156z"/>
	</g>
	<g>
		<path class="st5" d="M99.6,158.5c0,0-0.1,0-0.1,0c-0.2-0.1-0.3-0.3-0.2-0.4l3.2-9c0.1-0.2,0.3-0.3,0.4-0.2
			c0.2,0.1,0.3,0.3,0.2,0.4l-3.2,9C99.8,158.4,99.7,158.5,99.6,158.5z"/>
	</g>
	<g>
		<path class="st5" d="M104.9,160.6c-0.1,0-0.1,0-0.1,0c-0.2-0.1-0.2-0.3-0.2-0.5c1.3-2.8,2.5-5.8,3.5-8.7c0.1-0.2,0.3-0.3,0.4-0.2
			c0.2,0.1,0.3,0.3,0.2,0.4c-1,3-2.2,6-3.5,8.8C105.2,160.5,105.1,160.6,104.9,160.6z"/>
	</g>
	<g>
		<path class="st5" d="M109.8,163.3c0,0-0.1,0-0.1,0c-0.2-0.1-0.3-0.3-0.2-0.4c1-3,2.3-5.9,3.9-8.7c0.1-0.2,0.3-0.2,0.5-0.1
			c0.2,0.1,0.2,0.3,0.1,0.5c-1.5,2.7-2.8,5.6-3.8,8.6C110,163.2,109.9,163.3,109.8,163.3z"/>
	</g>
	<g>
		<path class="st5" d="M113.1,164.7c-0.1,0-0.1,0-0.2,0c-0.2-0.1-0.2-0.3-0.2-0.5c1.3-2.5,2.4-5.1,3.3-7.8c0.1-0.2,0.3-0.3,0.4-0.2
			c0.2,0.1,0.3,0.3,0.2,0.4c-0.9,2.7-2,5.3-3.3,7.9C113.3,164.6,113.2,164.7,113.1,164.7z"/>
	</g>
	<g>
		<path class="st5" d="M158.3,144.2c-0.1,0-0.1,0-0.2,0c-0.2-0.1-0.2-0.3-0.2-0.5c1.2-2.4,1.6-5.1,1.2-7.7c0-0.2,0.1-0.4,0.3-0.4
			c0.2,0,0.4,0.1,0.4,0.3c0.4,2.7,0,5.6-1.3,8.1C158.6,144.2,158.4,144.2,158.3,144.2z"/>
	</g>
	<g>
		<path class="st5" d="M162.8,143.9c-0.1,0-0.1,0-0.2,0c-0.2-0.1-0.2-0.3-0.1-0.5c1.4-2.5,1.5-5.6,0.4-8.2c-0.1-0.2,0-0.4,0.2-0.5
			c0.2-0.1,0.4,0,0.5,0.2c1.2,2.8,1,6.2-0.4,8.8C163,143.8,162.9,143.9,162.8,143.9z"/>
	</g>
	<g>
		<path class="st5" d="M166.7,143.7c0,0-0.1,0-0.1,0c-0.2-0.1-0.3-0.3-0.2-0.5c1.2-2.9,1.9-6,2.1-9.2c0-0.2,0.2-0.3,0.4-0.3
			c0.2,0,0.3,0.2,0.3,0.4c-0.3,3.2-1,6.4-2.2,9.4C167,143.6,166.9,143.7,166.7,143.7z"/>
	</g>
	<g>
		<path class="st5" d="M172.3,143.2C172.3,143.2,172.2,143.2,172.3,143.2c-0.3-0.1-0.4-0.3-0.3-0.4c0.8-2.8,1.7-5.6,2.7-8.3
			c0.1-0.2,0.3-0.3,0.4-0.2c0.2,0.1,0.3,0.3,0.2,0.4c-1,2.7-1.9,5.5-2.7,8.3C172.6,143.1,172.4,143.2,172.3,143.2z"/>
	</g>
	<g>
		<path class="st5" d="M177.8,143.1c-0.1,0-0.1,0-0.2,0c-0.2-0.1-0.2-0.3-0.1-0.5c1.1-2,1.6-4.4,1.4-6.7c0-0.2,0.1-0.4,0.3-0.4
			c0.2,0,0.4,0.1,0.4,0.3c0.2,2.4-0.3,5-1.5,7.1C178.1,143,177.9,143.1,177.8,143.1z"/>
	</g>
</g>
<g class="st10">
	<g class="st11">
		<path class="st12" d="M219.2,0.7l-10.3,20.7l-12.3,30.6c-3,6.4-1.2,14.1,4.4,18.4l3.4,2.7L119,265.9h110.8l0.1-265.2"/>
	</g>
	<g class="st11">
		<g>
			<path class="st4" d="M111.5,14.9c-0.4-3.2-3.5-7.2-6-9.3c-4.1-3.4-6.5-4.5-11.8-4.8c-2.4-0.2-6.8,0.4-8.9,1.6
				c-1.7,1-5.1,3.1-6.3,4.7c-2.3,3-3.6,4.1-5.2,7.6c-1.9,4.2-1.7,10.2-3.5,14.5c-3.7,8.8-11.4,16-20.6,18.5
				c-5.4,1.5-11.7,1.6-15.8,5.5c-1.3,1.2-2.2,3.4-1,4.7c1.7-2,4.4-3.1,7-2.9c-5.7,3.8-9.1,10.4-9.9,17.1c-0.9,6.7,0.6,13.6,3.1,19.9
				c2.5-1.4,5.5-3.5,8.1-2.4c2.6,1.1,3.5,3.3,4.3,6c0.8,2.7,0.8,6.8-0.8,9.2c4.2,0.7,11,1.5,15.2,2.2c0.3-6.1,0.8-9.2,3.6-13.7
				c1.1-1.8,2.6-3.3,4.7-3.7c3.7-0.6,6.4,0.6,8.6,3.7c3.1-1.9,6.4-3.4,9.9-4.6c-2.8-7.8-2.6-16.6-2.3-22.2c0.3-5.7,1-17.3,5-22.2
				c0.9-1.2,2.2-4.4,2.2-4.4s-0.4-5.1-0.4-5.9c-0.3-3.2,0.9-7.7,1.9-9.3c0.9-1.4,2.7-4,6.6-4.6c1.1-0.2,4.7,1,6.5,2.9
				C106.3,20.4,107.9,17.4,111.5,14.9z"/>
		</g>
	</g>
	<g class="st11">
		<path class="st1" d="M124.7,47.9c3.3-0.6,5.9-3.6,6.2-6.9c0.3-3.3-1.7-6.7-4.8-7.9c-3.1-1.2-6.5-0.8-10.3-0.3
			c-7.1,0.9-11.9,2.4-18.9,4.2c-2,0.5-4,1.1-5.7,2.3c-1.2,0.9-2,2.1-2.9,3.4c-11.3,16.4-19,29.2-25.8,47.9
			c-3.2,8.9-5.6,17.6-5.6,24.6c0,9.5,10.5,17.9,19.9,19.5c4,0.7,8.1-0.1,12.1-1.1c3.8-1,7.4-2.2,11-3.6c2.3-0.9,4.6-2,6.4-3.6
			c5.7-5.1,2.4-5.1,2.8-12.7C110.5,91.6,120.4,73.3,124.7,47.9z"/>
	</g>
	<g class="st11">
		<path class="st13" d="M90.8,121.7c-1.4,2.3-2.6,5.7-2.4,9c0.1,1.7,0.8,5.2,0.8,5.2s-9.1,27.3-9.6,28.9c-4,12.4-7.2,23-11.6,36.7
			c-0.4,1.1-1,2.6-0.9,3.8c0.1,1.4,0.9,2.1,1.8,3.1c5.5,5.8,12.4,5.8,20.4,5.5c1.6-0.1,5.4,0.6,5.9-0.9c0.7-2.2,1.2-3.2,4.4-12.7
			c6.1-17.9,12.8-35.6,19.4-52.9c0.5-1.5,2.1-5.8,2.1-5.8s4.9-3.5,7.8-5.5c0.7,1-0.1,2.6,4.1,6.9c0.8,0.8,14.8,7.2,16,7.3
			c1,0.1,1.7,0.5,3.3-1.7c4.5-6.3,10.6-13.6,15-19.8c5-7.1,8.3-14.2,8.5-21.8c0.2-7.6-5.8-14.4-12.9-17.1c-4.7-1.8-9.9-1.9-14.8-0.9
			C125.7,93.6,101.9,102.9,90.8,121.7z"/>
	</g>
	<g class="st11">
		<path class="st14" d="M129.3,94c0,0-2.6,5.5-3.2,12.3c-0.6,6,0,10.9,1.5,16.1c1.8,6.1,4.6,9.6,4.6,9.6s-4.4,5.7-5.9,6.2
			c-4-4-6.7-11.1-8-17.2c-2.8-12.5,1.9-23.4,2.6-23.8C123.2,96.3,129.3,94,129.3,94z"/>
	</g>
	<g class="st11">
		<g>
			<path class="st4" d="M67.8,201.8c1.8,2,9.2,6.5,14.5,7.7c2.9,0.7,9,1.5,14.1,0c-1,4.4-2,9.5,0.3,13.6c1,1.9,2.2,3.4,3.8,4.8
				c3.4,2.9,7.6,4.6,12.6,6.8c0.6,0.3,3,1.8,3.6,2.2c1,0.8,2,2.9,2.1,4.1c0.1,3.8,0.1,3.9-1.1,7.5c-0.2,0.6-0.4,1.2-0.8,1.7
				c-0.4,0.4-0.9,0.7-1.4,1c-5.8,2.9-12.7,2.2-18.9,0.4c-6.2-1.8-9.6-6-15.9-7.5c-3.2-0.7-3.7-1.1-6.9-1.3c-2.7-0.2-7.6-1-9.9-2.4
				c-1.8-1.1-4.4-2.7-5.5-4.6c-0.7-1.2-1.3-3.2-1.3-4.6c-0.1-1.6,0.5-3.7,1.2-5.1C62.6,217.9,65.1,211.6,67.8,201.8z"/>
		</g>
		<g>
			<path class="st4" d="M130.9,130.2c2.6,4,5.4,7.7,8.7,10.3c3.2,2.4,8.8,5.6,13.6,6.8c-2.8,3.6-5.7,7.5-6.1,10.2
				c-0.3,2.1-0.1,5.3,4.2,7.7c0.4,0.2,7.7-2.1,12.5,2.7c0.5,0.5,2.2,2.8,2.5,3.4c0.6,1,0.9,3.4,0.5,4.6c-0.6,1.6-1.6,2.6-2.5,3.4
				c-0.5,0.4-2.2,1.6-3,2.2c-0.6,0.4-1.2,0.8-2.4,1.4c-2.8,1.6-14.6,6.2-19.7,2.3s-6.8-9.1-12.2-12.7c-2.7-1.8-3-2.3-6-3.7
				c-2.5-1.1-6.7-3.7-8.4-5.8c-1.3-1.7-3.2-4.1-3.5-6.3c-0.2-1.4,0-3.5,0.4-4.8c0.5-1.5,1.8-3.3,2.9-4.3
				C119.5,141.4,124.9,138.3,130.9,130.2z"/>
		</g>
	</g>
	<g class="st11">
		<g>
			<path class="st3" d="M114.6,44.2c-17,3.8-33.4,10.2-43.6,16.3c-4.4,2.6-8,5.2-10,10.5c-2.2,6.1,1.3,13,6.3,17.1
				c5,4.1,11.9,6.6,18,8.5c3.2,1,7.3,2.4,10.6,3.4c-4.7,9.1-8.3,19.4-7.7,28.7c2.8-12,11.2-17.5,20.7-23.8
				c5.9-3.9,22.2-12.3,33.5-14.1c-2.4-1.3-3.5-3.2-4-5.8c1.6-1.6,1.2-3.2-0.2-6.5c-1.3-3-3.3-6.1-4.5-9.3c11.6-1,16.5-0.4,34-4.8
				c0.6-0.2,23.5-7.6,32.6-13.7c0.7-0.5,0.5-3.8,0.4-5c-0.1-1.4-0.3-3.4-1-5.4c-1.3-4.1-2.5-5.6-3.8-7.6c-1.4-2.1-4.1-5-6.6-6.1
				c-6.3,3.5-13.7,7.6-21.4,9.8c-7.6,2.2-14.1,4.7-22.1,5.2C134.2,42.3,120.7,42.9,114.6,44.2z"/>
		</g>
		<g>
			<circle class="st2" cx="119.8" cy="29.4" r="12.2"/>
		</g>
		<g>
			<g>
				<path class="st15" d="M130.9,56.9c-0.4-1.2,1.4-3.2,1.2-4.1c-3.5,2.4-10.2,3-14.3,3.2c-0.3,1.3,0.2,1.8,0.1,3.3
					c2.8,0.2,5.2,0,8-0.5c0.8,2.2,0.9,4.3,0.9,6.5c0.8-0.2,2-0.4,3-0.6c0.1-1.2-0.1-4.3-0.8-6.7C129.8,57.7,130.5,57.3,130.9,56.9z"
					/>
			</g>
		</g>
		<g>
			<path class="st1" d="M123.8,43.4c0.8-0.9,3.4-2.6,6.2-0.7c2.1,1.4,2.8,4.5,2.9,6.1c0.3,3.2-0.3,5.9-2.6,9.2
				C131,52.3,127.9,44.8,123.8,43.4z"/>
		</g>
		<g>
			<path class="st2" d="M125.3,39.5c0.1,3.8,0.3,7.6,0.4,11.3c0,0.3,0,0.5-0.1,0.8c-0.4,0.9-1.8,0.6-2.7,0.1
				c-2.8-1.6-5.4-3.2-7.7-5.5c-0.3-0.3-0.6-0.6-0.7-1c-0.1-0.3-0.1-0.7-0.1-1c0-1.3,0-3.1,0-4.4c0.1,0,0.2,0,0.3,0"/>
		</g>
		<g>
			<path class="st16" d="M152.9,147.7c0.5-0.6,1.3-1.7,1.8-2.4c-1.7,0.1-8.3-2-13.3-6c-5.3-4.2-8.3-9.2-9-11.1
				c-0.9,1.2-1.3,1.7-1.9,2.4c0.8,2.2,5.3,7.8,9.3,10.9C142.9,143.8,149.1,146.8,152.9,147.7z"/>
		</g>
		<g>
			<path class="st16" d="M96.3,210.2c0.3-0.8,0.7-2.1,0.9-2.9c-1.6,0.7-9.1,1.2-15.5-0.9c-6.7-2.2-11.6-6-13-7.6
				c-0.4,1.5-0.7,2.2-1,3c1.6,1.8,7.6,5.9,13.2,7.6C86.7,211.1,92.1,210.7,96.3,210.2z"/>
		</g>
	</g>
	<g class="st11">
		<path class="st4" d="M120.1,27.6c-0.1,0.9,0.9,1.7,1.8,1.8c0.9,0,1.8-0.4,2.6-1c2-1.5,3.4-3.8,3.9-6.3c0.3,0.8,1.3,1.2,2.1,1.5
			c0.5,0.2,1.1,0.3,1.7,0.2c0.6-0.2,1.1-1.4,0.9-2.4c-0.6-3.3-3.2-5-6.1-6.6c-1.9-1.1-4.6-2.3-7.6-2.2c-2.2,0.1-4.5,0.3-6.8,1.9
			c-2,1.3-2.4,1.7-3.9,3.6c-0.9,1.2-2.4,3.8-2.9,6c-0.6,2.7-0.1,6.9,0.5,8.3c0.7,1.6,2.3,4.1,5.4,6.2c-0.8-0.8-1.5-1.5-2-2.5
			c-0.5-1-0.7-2.1-0.3-3.1s1.4-1.8,2.5-1.7s1.9,1.3,1.5,2.3C116.4,33.2,119.1,30.8,120.1,27.6z"/>
	</g>
	<g class="st11">
		<path class="st1" d="M102.8,47.1c0.7-1.3,2.5-2.8,5-2.9c3.2-0.2,8,1.3,10.1,9.5c0.5,2,0.7,5.4,0.4,7.5c-0.4,3.6-2.6,8.5-4.3,10.2
			c0-4.2,0.5-7.9-1.4-13.4C111.2,54.1,107.4,49.3,102.8,47.1z"/>
	</g>
	<g class="st11">
		<path d="M214.7,11.6c3,0.5,4.8,2.5,4.4,3.7c2.4,0,4.3,3.1,3.1,5.2c-1.2,2.3-4.3,2.5-6.7,3.4c-2.2,0.8-4.2,2.3-5.5,4.3
			c-0.7,1.1-1.2,2.6-0.5,3.7c0.9,1.3,2.9,1.1,4.4,0.5c1.5-0.6,3-1.5,4.5-1.1c1.8,0.5,2.7,2.7,2.4,4.5c-0.3,1.8-1.6,3.4-2.9,4.7
			c-4.8,5-11,8.8-17.7,10.4c2-9.3-3.1-20.3-10.7-24.6c3.7-4.3,6.7-8,11.4-11C205.7,12.4,210,11.1,214.7,11.6z"/>
	</g>
	<g class="st11">
		<g>
			<path class="st9" d="M142.3,166.3c-0.1,0-0.2,0-0.2-0.1c-0.2-0.1-0.2-0.4,0-0.5c1.6-1.8,3.9-3,6.3-3.2c0.2,0,0.4,0.1,0.4,0.3
				c0,0.2-0.1,0.4-0.3,0.4c-2.2,0.2-4.3,1.3-5.8,3C142.5,166.2,142.4,166.3,142.3,166.3z"/>
		</g>
		<g>
			<path class="st9" d="M144.7,172.5C144.7,172.5,144.7,172.5,144.7,172.5c-0.3-0.1-0.4-0.3-0.4-0.5c0.7-2.8,3.5-5.5,6-6.8
				c0.2-0.1,0.4,0,0.5,0.2c0.1,0.2,0,0.4-0.2,0.5c-2.4,1.3-5,3.7-5.7,6.3C145.1,172.4,144.9,172.5,144.7,172.5z"/>
		</g>
		<g>
			<path class="st9" d="M140.4,162.4c-0.1,0-0.2,0-0.3-0.1c-0.1-0.2-0.1-0.4,0-0.5c1.9-1.7,4.5-2.6,7-2.3c0.2,0,0.4,0.2,0.3,0.4
				c0,0.2-0.2,0.3-0.4,0.3c-2.3-0.2-4.7,0.5-6.4,2.1C140.6,162.4,140.5,162.4,140.4,162.4z"/>
		</g>
		<g>
			<path class="st9" d="M91.4,229.5c-0.1,0-0.2,0-0.2-0.1c-0.2-0.1-0.2-0.4,0-0.5c1.8-2,4.5-3.1,7.1-3.1c0,0,0,0,0.1,0
				c0.2,0,0.4,0.2,0.4,0.4c0,0.2-0.2,0.4-0.4,0.4c0,0,0,0-0.1,0c-2.5,0-4.9,1.1-6.6,2.9C91.6,229.5,91.5,229.5,91.4,229.5z"/>
		</g>
		<g>
			<path class="st9" d="M96.6,234.8c-0.1,0-0.1,0-0.2-0.1c-0.2-0.1-0.2-0.3-0.1-0.5c1.4-2.3,4-4,6.7-4.2c0.2,0,0.4,0.1,0.4,0.3
				c0,0.2-0.1,0.4-0.3,0.4c-2.5,0.2-4.8,1.7-6.1,3.9C96.9,234.8,96.8,234.8,96.6,234.8z"/>
		</g>
		<g>
			<path class="st9" d="M88.2,226.4c-0.1,0-0.1,0-0.2,0c-1.1,0-2.3-0.6-2.4-1.8c-0.1-0.7,0.2-1.4,0.9-2.1c2.3-2.5,6.1-3.1,9-1.6
				c0.1,0,0.1,0.1,0.2,0.1c0.2-0.2,0.5-0.4,0.7-0.6c2.1-1.6,4.5-2.5,7-2.6c0.8-0.1,1.9,0,2.7,0.7c1,1,0.8,2.8,0,3.9
				c-0.7,0.9-1.8,1.4-3.3,1.7c-2.3,0.4-4.1-0.6-6.6-1.9c-0.1-0.1-0.2-0.1-0.3-0.2c-0.3,0.3-0.7,0.6-1,0.9c-0.6,0.5-1.2,1.1-1.8,1.6
				C91.3,225.8,89.7,226.4,88.2,226.4z M92,220.8c-1.9,0-3.7,0.8-5,2.2c-0.5,0.6-0.7,1.1-0.7,1.5c0.1,0.7,1,1.1,1.7,1.2
				c1.4,0.1,2.8-0.5,4.4-1.8c0.6-0.5,1.2-1,1.8-1.6c0.3-0.3,0.5-0.5,0.8-0.8C94.1,221.1,93.1,220.8,92,220.8z M96.3,221.4
				C96.4,221.4,96.4,221.4,96.3,221.4c2.5,1.4,4.2,2.2,6.2,1.9c1.4-0.2,2.3-0.7,2.9-1.4c0.6-0.8,0.8-2.2,0.1-2.9
				c-0.4-0.4-1.1-0.6-2.1-0.5c-2.4,0.2-4.7,1-6.6,2.5C96.6,221.2,96.5,221.3,96.3,221.4z"/>
		</g>
		<g>
			<path class="st9" d="M152.3,162.2c-1,0-1.6-0.9-1.9-1.2c-0.3-0.5-0.6-0.9-0.9-1.4c-0.6-0.9-1.2-1.8-1.7-2.3l0,0
				c-0.2-0.2-0.3-0.3-0.5-0.5c-1,0.3-1.9,0.7-2.8,1.3c-0.5,0.2-0.9,0.5-1.4,0.7c-1.7,0.8-4,1.3-5.3,0.1c-0.5-0.5-0.7-1.1-0.7-1.9
				c0.1-1.1,0.8-2.1,1.8-2.7c1.8-1.1,4-0.9,5.4-0.3c1.2,0.5,2.3,1.3,3.1,2.1c0.1,0,0.2,0,0.3-0.1c1.2-0.2,2.5,0,3.8,0.6
				c1.7,0.7,3.3,2.4,2.6,4.2c-0.2,0.6-0.8,1.3-1.7,1.5C152.5,162.2,152.4,162.2,152.3,162.2z M148.3,156.7c0.6,0.6,1.2,1.5,1.8,2.5
				c0.3,0.5,0.6,0.9,0.9,1.4c0.5,0.7,0.9,1,1.4,0.9c0.5-0.1,0.9-0.6,1.1-1c0.5-1.4-0.8-2.7-2.2-3.3
				C150.3,156.7,149.2,156.5,148.3,156.7C148.2,156.7,148.3,156.7,148.3,156.7L148.3,156.7z M141.9,154.2c-0.9,0-1.7,0.2-2.6,0.7
				c-0.8,0.5-1.4,1.3-1.5,2.2c0,0.4,0,0.9,0.4,1.2c1,0.9,3,0.5,4.5-0.2c0.5-0.2,0.9-0.5,1.4-0.7c0.8-0.4,1.6-0.9,2.5-1.2
				c-0.8-0.6-1.6-1.2-2.6-1.6C143.5,154.4,142.7,154.2,141.9,154.2z"/>
		</g>
	</g>
	<g class="st11">
		<g>
			<path class="st8" d="M69.3,203c-0.1,0-0.1,0-0.2,0c-0.2-0.1-0.3-0.3-0.2-0.5l0.8-1.6c0.1-0.2,0.3-0.3,0.5-0.2
				c0.2,0.1,0.3,0.3,0.2,0.5l-0.8,1.6C69.6,202.9,69.4,203,69.3,203z"/>
		</g>
		<g>
			<path class="st8" d="M71.8,204.4c0,0-0.1,0-0.1,0c-0.2-0.1-0.3-0.3-0.2-0.5l0.6-1.5c0.1-0.2,0.3-0.3,0.5-0.2
				c0.2,0.1,0.3,0.3,0.2,0.5l-0.6,1.5C72.1,204.3,71.9,204.4,71.8,204.4z"/>
		</g>
		<g>
			<path class="st8" d="M74.6,206.2c0,0-0.1,0-0.1,0c-0.2-0.1-0.3-0.3-0.2-0.5l0.5-1.4c0.1-0.2,0.3-0.3,0.5-0.2
				c0.2,0.1,0.3,0.3,0.2,0.5l-0.5,1.4C74.9,206.1,74.8,206.2,74.6,206.2z"/>
		</g>
		<g>
			<path class="st8" d="M77.1,207.6C77,207.6,77,207.6,77.1,207.6c-0.3-0.1-0.4-0.3-0.4-0.5c0.1-0.6,0.4-1.1,0.6-1.7
				c0.1-0.2,0.3-0.3,0.5-0.2c0.2,0.1,0.3,0.3,0.2,0.5c-0.2,0.5-0.4,1-0.6,1.5C77.4,207.4,77.2,207.6,77.1,207.6z"/>
		</g>
		<g>
			<path class="st8" d="M79.9,208.5C79.8,208.5,79.8,208.5,79.9,208.5c-0.3,0-0.4-0.2-0.4-0.4l0.3-1.5c0-0.2,0.2-0.3,0.4-0.3
				c0.2,0,0.3,0.2,0.3,0.4l-0.3,1.5C80.2,208.4,80,208.5,79.9,208.5z"/>
		</g>
		<g>
			<path class="st8" d="M82.9,209.4C82.9,209.4,82.9,209.4,82.9,209.4c-0.2,0-0.4-0.2-0.4-0.4c0-0.5,0.1-1,0.3-1.5
				c0.1-0.2,0.3-0.3,0.5-0.2c0.2,0.1,0.3,0.3,0.2,0.5c-0.1,0.4-0.2,0.8-0.2,1.3C83.2,209.2,83.1,209.4,82.9,209.4z"/>
		</g>
		<g>
			<path class="st8" d="M86,210C86,210,86,210,86,210c-0.2,0-0.4-0.2-0.4-0.4c0-0.5,0.1-1,0.2-1.4c0.1-0.2,0.3-0.3,0.5-0.2
				c0.2,0.1,0.3,0.3,0.2,0.5c-0.1,0.4-0.2,0.8-0.2,1.2C86.3,209.9,86.2,210,86,210z"/>
		</g>
		<g>
			<path class="st8" d="M88.9,210.5C88.9,210.5,88.9,210.5,88.9,210.5c-0.2,0-0.4-0.2-0.4-0.4l0.1-1.4c0-0.2,0.2-0.4,0.4-0.4
				c0.2,0,0.4,0.2,0.4,0.4l-0.1,1.4C89.3,210.3,89.1,210.5,88.9,210.5z"/>
		</g>
		<g>
			<path class="st8" d="M91.5,210.5C91.5,210.5,91.5,210.5,91.5,210.5c-0.2,0-0.4-0.2-0.4-0.4l0.1-1.3c0-0.2,0.2-0.4,0.4-0.4
				c0.2,0,0.4,0.2,0.4,0.4l-0.1,1.3C91.9,210.3,91.7,210.5,91.5,210.5z"/>
		</g>
		<g>
			<path class="st8" d="M94.3,210C94.3,210,94.3,210,94.3,210c-0.2,0-0.4-0.2-0.4-0.4l0.1-1c0-0.2,0.2-0.4,0.4-0.3
				c0.2,0,0.4,0.2,0.3,0.4l-0.1,1C94.6,209.8,94.5,210,94.3,210z"/>
		</g>
	</g>
	<g class="st11">
		<g>
			<path class="st8" d="M131.7,131.8c-0.1,0-0.2,0-0.3-0.1c-0.2-0.1-0.2-0.4,0-0.5l1.1-1.2c0.1-0.2,0.4-0.2,0.5,0
				c0.2,0.1,0.2,0.4,0,0.5l-1.1,1.2C131.9,131.8,131.8,131.8,131.7,131.8z"/>
		</g>
		<g>
			<path class="st8" d="M133.2,133.8c-0.1,0-0.2,0-0.2-0.1c-0.2-0.1-0.2-0.4-0.1-0.5l0.8-1.1c0.1-0.2,0.4-0.2,0.5-0.1
				c0.2,0.1,0.2,0.4,0.1,0.5l-0.8,1.1C133.5,133.7,133.4,133.8,133.2,133.8z"/>
		</g>
		<g>
			<path class="st8" d="M134.7,135.7c-0.1,0-0.2,0-0.3-0.1c-0.2-0.1-0.2-0.4,0-0.5l0.9-1c0.1-0.2,0.4-0.2,0.5,0
				c0.2,0.1,0.2,0.4,0,0.5l-0.9,1C134.9,135.7,134.8,135.7,134.7,135.7z"/>
		</g>
		<g>
			<path class="st8" d="M136,137.2c-0.1,0-0.2,0-0.2-0.1c-0.2-0.1-0.2-0.4-0.1-0.5c0.3-0.4,0.6-0.7,1-1c0.2-0.1,0.4-0.1,0.5,0.1
				c0.1,0.2,0.1,0.4-0.1,0.5c-0.3,0.2-0.6,0.5-0.9,0.8C136.2,137.1,136.1,137.2,136,137.2z"/>
		</g>
		<g>
			<path class="st8" d="M137.8,138.9c-0.1,0-0.2,0-0.2-0.1c-0.2-0.1-0.2-0.4-0.1-0.5l0.7-0.9c0.1-0.2,0.4-0.2,0.5-0.1
				c0.2,0.1,0.2,0.4,0.1,0.5l-0.7,0.9C138,138.8,137.9,138.9,137.8,138.9z"/>
		</g>
		<g>
			<path class="st8" d="M139.3,140.2c-0.1,0-0.2,0-0.3-0.1c-0.1-0.1-0.1-0.4,0-0.5l0.7-0.7c0.1-0.1,0.4-0.1,0.5,0
				c0.1,0.1,0.1,0.4,0,0.5l-0.7,0.7C139.5,140.2,139.4,140.2,139.3,140.2z"/>
		</g>
		<g>
			<path class="st8" d="M141,141.9c-0.1,0-0.1,0-0.2-0.1c-0.2-0.1-0.2-0.3-0.1-0.5l0.8-1.2c0.1-0.2,0.3-0.2,0.5-0.1s0.2,0.3,0.1,0.5
				l-0.8,1.2C141.2,141.8,141.1,141.9,141,141.9z"/>
		</g>
		<g>
			<path class="st8" d="M143,143c-0.1,0-0.1,0-0.2-0.1c-0.2-0.1-0.2-0.3-0.1-0.5l0.7-1.1c0.1-0.2,0.3-0.2,0.5-0.1
				c0.2,0.1,0.2,0.3,0.1,0.5l-0.7,1.1C143.2,143,143.1,143,143,143z"/>
		</g>
		<g>
			<path class="st8" d="M144.3,143.9c-0.1,0-0.1,0-0.2-0.1c-0.2-0.1-0.2-0.3-0.1-0.5l0.8-1.1c0.1-0.2,0.3-0.2,0.5-0.1
				c0.2,0.1,0.2,0.3,0.1,0.5l-0.8,1.1C144.6,143.9,144.4,143.9,144.3,143.9z"/>
		</g>
		<g>
			<path class="st8" d="M146.3,144.8c-0.1,0-0.1,0-0.2-0.1c-0.2-0.1-0.2-0.3-0.1-0.5l0.5-0.9c0.1-0.2,0.3-0.2,0.5-0.1
				c0.2,0.1,0.2,0.3,0.1,0.5l-0.5,0.9C146.5,144.7,146.4,144.8,146.3,144.8z"/>
		</g>
		<g>
			<path class="st8" d="M148.1,145.3c-0.1,0-0.2,0-0.2-0.1c-0.2-0.1-0.2-0.4,0-0.5l0.5-0.6c0.1-0.2,0.4-0.2,0.5,0
				c0.2,0.1,0.2,0.4,0,0.5l-0.5,0.6C148.4,145.3,148.2,145.3,148.1,145.3z"/>
		</g>
		<g>
			<path class="st8" d="M150.3,146.5c-0.1,0-0.2,0-0.2-0.1c-0.2-0.1-0.2-0.4-0.1-0.5l0.7-0.9c0.1-0.2,0.4-0.2,0.5-0.1
				c0.2,0.1,0.2,0.4,0.1,0.5l-0.7,0.9C150.5,146.5,150.4,146.5,150.3,146.5z"/>
		</g>
		<g>
			<path class="st8" d="M151.8,147c-0.1,0-0.1,0-0.2-0.1c-0.2-0.1-0.2-0.3-0.1-0.5l0.6-0.9c0.1-0.2,0.3-0.2,0.5-0.1
				c0.2,0.1,0.2,0.3,0.1,0.5l-0.6,0.9C152.1,146.9,151.9,147,151.8,147z"/>
		</g>
	</g>
	<g class="st11">
		<g>
			<path class="st8" d="M131.7,84.6c-0.1,0-0.1,0-0.2,0c-0.2-0.1-0.3-0.3-0.2-0.5c0.7-1.3,0.7-2.9,0.2-4.2l-0.3-0.5
				c-2.1-4.3-4.2-8.7-4.4-13.4c0-0.2,0.2-0.4,0.4-0.4c0.2,0,0.4,0.2,0.4,0.4c0.2,4.6,2.3,8.9,4.3,13.1l0.3,0.6
				c0.7,1.6,0.6,3.4-0.2,4.9C132,84.5,131.8,84.6,131.7,84.6z"/>
		</g>
		<g>
			<path class="st8" d="M131.3,93.2c-0.2,0-0.3-0.1-0.4-0.3l-0.6-2.1c-0.1-0.2,0.1-0.4,0.3-0.5c0.2-0.1,0.4,0.1,0.5,0.3l0.6,2.1
				c0.1,0.2-0.1,0.4-0.3,0.5C131.3,93.2,131.3,93.2,131.3,93.2z"/>
		</g>
	</g>
	<g class="st11">
		<path class="st8" d="M102.3,74.2C102.3,74.2,102.3,74.2,102.3,74.2c-5.3-0.1-10.6-0.4-15.9-0.8c-0.2,0-0.4-0.2-0.3-0.4
			c0-0.2,0.2-0.4,0.4-0.3c5.2,0.4,10.6,0.7,15.8,0.8c0.2,0,0.4,0.2,0.4,0.4C102.7,74,102.5,74.2,102.3,74.2z"/>
	</g>
	<g class="st11">
		<path class="st5" d="M133.6,127.8c-0.1,0-0.2,0-0.2-0.1c-0.2-0.1-0.2-0.4-0.1-0.5c4.7-6.1,11.3-15,15.2-20.7
			c0.1-0.2,0.3-0.2,0.5-0.1c0.2,0.1,0.2,0.3,0.1,0.5c-3.9,5.7-10.4,14.6-15.2,20.7C133.9,127.7,133.8,127.8,133.6,127.8z"/>
	</g>
	<g class="st11">
		<path class="st5" d="M100.3,46.5C100.3,46.5,100.3,46.5,100.3,46.5c-0.2,0-0.4-0.2-0.4-0.4c0.1-2-0.7-4-2.2-5.1
			c-1.5-1.2-3.7-1.5-5.3-0.7c-0.2,0.1-0.4,0-0.5-0.2c-0.1-0.2,0-0.4,0.2-0.5c1.9-0.9,4.4-0.6,6.1,0.8c1.6,1.3,2.5,3.5,2.4,5.7
			C100.7,46.3,100.5,46.5,100.3,46.5z"/>
	</g>
	<g class="st11">
		<path class="st5" d="M105.8,147.5c-3.1,0-5.4-0.8-6.6-1.3c-2.7-1.2-7.5-5-9.5-9.5c-0.1-0.2,0-0.4,0.2-0.5c0.2-0.1,0.4,0,0.5,0.2
			c2,4.3,6.6,8,9.2,9.1c2,0.9,7.2,2.6,14.1-0.5c0.2-0.1,0.4,0,0.5,0.2c0.1,0.2,0,0.4-0.2,0.5C110.8,147,108.1,147.5,105.8,147.5z"/>
	</g>
	<g class="st11">
		<path class="st9" d="M84.5,38.1C84.5,38.1,84.5,38.1,84.5,38.1c-0.2,0-0.4-0.2-0.4-0.4c0.6-4.5,1.6-8,3.2-10.8
			c2.1-3.6,5.2-6.2,8.6-7.1c0.2-0.1,0.4,0.1,0.5,0.3c0.1,0.2-0.1,0.4-0.3,0.5c-3.2,0.8-6.2,3.3-8.2,6.7c-1.6,2.7-2.5,6.1-3.1,10.5
			C84.9,37.9,84.7,38.1,84.5,38.1z"/>
	</g>
	<g class="st11">
		<path class="st3" d="M205.4,19.2c-0.1,0-0.2,0-0.2-0.1c-0.2-0.1-0.2-0.4,0-0.5c3.1-3.6,8.2-5.4,12.8-4.3c0.2,0,0.3,0.2,0.3,0.4
			c0,0.2-0.2,0.3-0.4,0.3c-4.4-1-9.2,0.6-12.1,4.1C205.6,19.2,205.5,19.2,205.4,19.2z"/>
	</g>
	<g class="st11">
		<path class="st6" d="M120,42.4c-0.1,0-0.2,0-0.2,0c-1.8-0.1-3.4-0.5-4.8-1.2c-0.2-0.1-0.2-0.3-0.1-0.5c0.1-0.2,0.3-0.2,0.5-0.1
			c1.3,0.7,2.8,1.1,4.5,1.1c1.5,0,3.6-0.5,4.7-1.2c0.2-0.1,0.4-0.1,0.5,0.1c0.1,0.2,0.1,0.4-0.1,0.5C123.7,41.8,121.6,42.4,120,42.4
			z"/>
	</g>
	<g class="st11">
		<path class="st6" d="M112.3,34.1c-0.2,0-0.4-0.2-0.4-0.4c0-0.2-0.1-0.5-0.3-0.6c-0.2-0.1-0.4-0.2-0.7-0.1
			c-0.2,0.1-0.4-0.1-0.5-0.2c-0.1-0.2,0.1-0.4,0.2-0.5c0.4-0.1,0.9,0,1.3,0.2c0.4,0.3,0.6,0.7,0.6,1.2
			C112.7,33.9,112.5,34.1,112.3,34.1z"/>
	</g>
	<g class="st11">
		<path class="st6" d="M110.8,35.9c-0.1,0-0.3-0.1-0.3-0.2c-0.2-0.5-0.1-1,0.3-1.4c0.1-0.1,0.4-0.2,0.5,0c0.1,0.1,0.2,0.4,0,0.5
			c-0.1,0.1-0.2,0.4-0.1,0.6c0.1,0.2,0,0.4-0.2,0.5C110.9,35.8,110.8,35.9,110.8,35.9z"/>
	</g>
	<g class="st11">
		<path class="st5" d="M129.1,42.8c-0.1,0-0.1,0-0.2-0.1c-0.7-0.5-1.7-0.6-2.5-0.4c-0.2,0-0.4-0.1-0.4-0.3c0-0.2,0.1-0.4,0.3-0.4
			c1-0.2,2.1,0,3,0.5c0.2,0.1,0.2,0.3,0.1,0.5C129.3,42.7,129.2,42.8,129.1,42.8z"/>
	</g>
	<g class="st11">
		<path class="st5" d="M103.5,46.5c-0.1,0-0.1,0-0.2,0c-0.2-0.1-0.3-0.3-0.2-0.5c0.4-0.9,1.2-1.6,2.4-2.1c1.8-0.7,3.7-0.7,5.5,0
			c0.2,0.1,0.3,0.3,0.2,0.5c-0.1,0.2-0.3,0.3-0.5,0.2c-1.6-0.6-3.4-0.6-5,0c-1,0.4-1.7,1-2,1.7C103.8,46.4,103.7,46.5,103.5,46.5z"
			/>
	</g>
	<g class="st11">
		<path d="M110.5,150.1c-0.7,1.3-1.6,2.6-3,3.3c0.1,0,0.2,0.2,0.4,0.4c0.8,1.2,1.1,2.8,0.7,4.3c-0.1,0.5-0.2,0.8-0.2,0.8
			s2.1,1,2.2,1.3c0.7,0.9,0,3,0,3s1.9,0.2,2.3,0.6c1,1.1,0.2,2.7,0.2,2.7s2-0.4,2.8,0.3c0.9,0.8,0.7,2.5,0.7,2.5s1.9-1.1,3.2-0.2
			c1.7,1,0.9,3,0.9,3s2.2,0,2.7,0.4c0.5,0.4,0.7,2.3,0.7,2.3s2-0.5,2.5-0.1c0.9,0.9,0.6,1.9,0.4,3c0.7-0.4,1.7-0.7,2.5-0.5
			c2,0.4,1.7,3.4,1.7,3.4s2-1,3.3,0c0.9,0.7,0.9,2.6,0.9,2.6s1.6-0.3,2.5,0.5c1.1,0.8,0.9,2.8,0.9,2.8l0.7-0.2
			c1.1-0.3,2.4,0.3,2.7,1.4c0.1,0.2,0.1,0.4,0.1,0.6c0.5-0.8,1.2-1.6,2-1.3c0.9,0.4,1.2,1.6,1.2,1.6s1.2-1.5,1.8-1.6
			c1.3-0.2,1.9,0.5,2.6,1.2c-0.1-0.9,1.2-1.6,2-1.9c0.8-0.3,2,0,2.5,0.7c0.1-0.8,0.9-1.4,1.7-1.6c0.8-0.2,1.3,0.4,2.1,0.5
			c0.1-2.1,1-2.2,2.3-1.6c0.3-2,2.7-1.3,2.7-1.3s0.4-1.3,0.5-1.6c0.8-1.1,1.5-0.8,2.5-0.5c-0.4-1.5,1.2-2.3,1.9-2.3
			c-0.8-1.2-0.7-1.7-1-3.1c-3,4.4-7.3,6.5-12.6,8.6c-1.5,0.6-6,1.4-7.7,1.1c-2.6-0.3-4.8-0.9-7.1-2.3c-3.5-2.2-5.7-6-8.3-8.3
			c-6.5-5.9-10.6-7-14.1-10.1C113.8,161.2,109.8,156.7,110.5,150.1z"/>
	</g>
	<g class="st11">
		<path d="M57.2,229.1c-0.2,1.4-0.8,3.4-1.9,4.5c0.1,0,0.3,0.1,0.5,0.3c1.2,0.9,2,2.3,2.1,3.8c0,0.5,0.1,0.8,0.1,0.8
			s2.3,0.3,2.5,0.4c0.9,0.6,1,2.8,1,2.8s1.9-0.5,2.3-0.2c1.3,0.7,1.1,2.5,1.1,2.5s1.8-1,2.8-0.6c1.1,0.5,1.4,2.1,1.4,2.1
			s1.4-1.7,2.9-1.2c2,0.4,1.9,2.5,1.9,2.5s2-0.7,2.6-0.5c0.6,0.2,1.4,1.9,1.4,1.9s1.7-1.2,2.3-0.9c1.2,0.5,1.2,1.6,1.3,2.7
			c0.5-0.6,1.4-1.2,2.2-1.3c2-0.3,2.7,2.6,2.7,2.6s1.5-1.6,3.1-1.1c1.1,0.4,1.7,2.2,1.7,2.2s1.4-1.2,2.5-0.7
			c1.3,0.4,1.8,2.3,1.8,2.3l0.6-0.4c1-0.7,1.9-0.6,2.6,0.3c0.1,0.2,0.3,0.9,0.4,1.1c0.4-1.1,1.5-1.3,2.3-1c0.9,0.3,1.3,1.9,1.3,1.9
			s1-1.2,1.7-1.1c1.1,0,1.9,0.8,2.1,1.6c0.5-1.4,1-1.2,1.4-1.4c0.4-0.2,1.5-0.2,1.9,1.1c0.2-1.2,0.6-1.5,1.1-1.6
			c0.5-0.1,1.3,0,2.1,0.9c0-1.5,0.6-1.9,1.8-1.5c0.1-1.4,1.7-0.8,1.7-0.8s-0.2-0.7-0.1-1c0.3-0.8,0.6-0.7,1.5-0.7
			c0-0.9-0.2-2.1,2.3-2.3c-1.5-1.2-1.5-1.9-1.7-2.9c-0.8,2.5-2.8,4.3-6,5.8c-1.5,0.7-4.6,1-7.1,1c-2.6,0-6.1-1.2-8.7-1.7
			c-4-0.9-8.5-4.5-11.7-5.8c-8.1-3.3-12.3-3.1-16.7-4.9C63.9,238.8,58.8,235.6,57.2,229.1z"/>
	</g>
	<g class="st11">
		<path class="st9" d="M106.5,251.5c-4,0-8.3-1.2-11.9-3.1c-1.4-0.7-2.6-1.4-3.8-2c-1.6-0.9-3.1-1.7-5-2.6c-3.4-1.6-6.2-2.1-9.5-2.6
			c-3.6-0.5-7.8-1.8-11.1-3.5c-3.8-1.9-6.2-5.1-6.6-8.4c0-0.2,0.1-0.4,0.3-0.4c0.2,0,0.4,0.1,0.4,0.3c0.3,3.1,2.7,6.1,6.2,7.9
			c3.2,1.7,7.3,2.9,10.9,3.5c3.4,0.5,6.3,1,9.7,2.7c2,0.9,3.5,1.8,5.1,2.7c1.1,0.6,2.3,1.3,3.7,2c7,3.6,16.3,4.7,21.5-0.8
			c0.1-0.2,0.4-0.2,0.5,0c0.2,0.1,0.2,0.4,0,0.5C114.2,250.4,110.5,251.5,106.5,251.5z"/>
	</g>
	<g class="st11">
		<path class="st9" d="M148.6,183.7c-1.5,0-3-0.2-4.4-0.6c-2.6-0.9-4.6-2.1-6.2-3.6l0,0c-0.7-0.9-1.4-1.7-1.9-2.3
			c-2-2.5-3.2-3.9-6.2-6.4c-1.5-1.3-3.8-2.7-6.1-4.1c-2.4-1.5-4.9-3.1-6.6-4.5c-3.2-2.8-5.5-7.9-5.5-12.3c0-0.2,0.2-0.4,0.4-0.4
			c0,0,0,0,0,0c0.2,0,0.4,0.2,0.4,0.4c0,4.2,2.3,9.1,5.3,11.8c1.6,1.4,4.1,2.9,6.5,4.4c2.2,1.4,4.6,2.8,6.1,4.1c3,2.5,4.2,4,6.3,6.5
			c0.6,0.7,1.2,1.4,1.9,2.3c1.6,1.5,3.5,2.6,5.9,3.5c7,1.9,15.8-1.3,21.5-7.7c0.1-0.2,0.4-0.2,0.5,0c0.2,0.1,0.2,0.4,0,0.5
			C161.7,180.5,154.9,183.7,148.6,183.7z"/>
	</g>
	<g class="st11">
		<path class="st5" d="M71.2,126.9c-0.4,0-0.9,0-1.3-0.1c-3.2-0.4-6.3-2.2-8.2-4.9c-0.1-0.2-0.1-0.4,0.1-0.5
			c0.2-0.1,0.4-0.1,0.5,0.1c1.8,2.5,4.6,4.2,7.7,4.6c3,0.4,6.2-0.6,8.5-2.6c1.7-1.5,2.9-3.4,3.9-5.3c2.9-5.2,5-10.9,6.4-16.7
			c0-0.2,0.2-0.3,0.4-0.3c0.2,0,0.3,0.2,0.3,0.4c-1.3,5.9-3.5,11.6-6.4,16.9c-1.1,1.9-2.3,4-4.1,5.5
			C76.9,125.9,74.1,126.9,71.2,126.9z"/>
	</g>
	<g class="st11">
		<path class="st5" d="M74.5,107c-2.5,0-4.7-0.5-6.5-1.5c-3.1-1.8-4.9-5.2-4.3-8.2c0-0.2,0.2-0.3,0.4-0.3c0.2,0,0.3,0.2,0.3,0.4
			c-0.5,2.7,1.1,5.9,3.9,7.5c3,1.7,6.5,1.6,9,1.2c2.4-0.4,4.6-1.1,6.8-2.1c0.2-0.1,0.4,0,0.5,0.2c0.1,0.2,0,0.4-0.2,0.5
			c-2.2,1.1-4.6,1.8-7,2.2C76.4,106.9,75.4,107,74.5,107z"/>
	</g>
	<g class="st11">
		<path class="st5" d="M70.2,103.8c-0.2,0-0.3-0.1-0.4-0.3c0-0.2,0.1-0.4,0.3-0.4l2.6-0.6c0.2,0,0.4,0.1,0.4,0.3
			c0,0.2-0.1,0.4-0.3,0.4L70.2,103.8C70.2,103.8,70.2,103.8,70.2,103.8z"/>
	</g>
	<g class="st11">
		<path class="st5" d="M72,104.4c-0.1,0-0.2-0.1-0.3-0.2l-1.5-2.2c-0.1-0.2-0.1-0.4,0.1-0.5c0.2-0.1,0.4-0.1,0.5,0.1l1.5,2.2
			c0.1,0.2,0.1,0.4-0.1,0.5C72.2,104.4,72.1,104.4,72,104.4z"/>
	</g>
	<g class="st11">
		<path class="st5" d="M84.6,98.6c0,0-0.1,0-0.1,0c-4.9-1.9-10-3.7-15-5.4c-0.7-0.2-1.4-0.5-2.1-0.4c-1.1,0.1-2,1.1-2.4,2
			c-0.5,1.1-0.6,2.3-0.7,3.4c0,0.2-0.2,0.4-0.4,0.3c-0.2,0-0.4-0.2-0.3-0.4c0.1-1.1,0.2-2.5,0.7-3.6c0.6-1.3,1.7-2.3,2.9-2.4
			c0.9-0.1,1.8,0.2,2.5,0.4c5,1.7,10.1,3.5,15,5.4c0.2,0.1,0.3,0.3,0.2,0.5C84.9,98.5,84.8,98.6,84.6,98.6z"/>
	</g>
	<g class="st11">
		<path class="st5" d="M60.4,119.6c-0.2,0-0.3-0.1-0.4-0.3c-1.2-4-1.2-8.5,0-12.5c0.1-0.2,0.3-0.3,0.5-0.3c0.2,0.1,0.3,0.3,0.3,0.5
			c-1.1,3.9-1.1,8.2,0,12.1c0.1,0.2-0.1,0.4-0.3,0.5C60.5,119.6,60.4,119.6,60.4,119.6z"/>
	</g>
	<g class="st11">
		<path class="st4" d="M72.9,264.5l1.4-6.2c0.1-0.6,0.8-1.1,1.4-0.9h0c0.6,0.1,1.1,0.8,0.9,1.4l-1.4,6.2c-0.1,0.6-0.8,1.1-1.4,0.9h0
			C73.2,265.8,72.8,265.2,72.9,264.5z"/>
	</g>
	<g class="st11">
		<g>
			<path class="st17" d="M101.8,101l-2.4-0.5c0,0-5.1,4.5-6.4,6.3c-1.3,1.8-1.9,4-2.9,8.4c3.3-5.1,11.8-12.3,14.7-13.7
				C105.4,101.2,101.8,101,101.8,101z"/>
		</g>
		<g>
			<path class="st17" d="M125.4,91.1c0,0,10.3-2.5,14.2-3.1c-0.6-1-0.9-2-1.1-3.2c-3.8,0.7-13.2,2.7-13.2,2.7L125.4,91.1z"/>
		</g>
	</g>
	<g class="st11">
		<path class="st9" d="M87,217.2c-0.5,0-0.9-0.1-1.3-0.1c-3.2-0.4-6.6-0.8-9.7-1.8c-3.6-1.2-6.5-3-8.4-5.4c-0.1-0.2-0.1-0.4,0.1-0.5
			c0.2-0.1,0.4-0.1,0.5,0.1c1.8,2.2,4.6,4,8,5.1c3.1,1,6.4,1.4,9.6,1.8c0.7,0.1,1.5,0.2,2.2,0c1.4-0.4,2.3-2,3-3.4
			c0.1-0.2,0.3-0.3,0.5-0.2c0.2,0.1,0.3,0.3,0.2,0.5c-0.7,1.6-1.7,3.4-3.4,3.8C87.7,217.2,87.3,217.2,87,217.2z"/>
	</g>
	<g class="st11">
		<path d="M78,260.4l39.3-170.9c0.4-1.5-0.6-3-2.1-3.4h0c-1.5-0.4-3,0.6-3.4,2.1L72.5,259.2c-0.4,1.5,0.6,3,2.1,3.4h0
			C76.1,262.9,77.7,262,78,260.4z"/>
	</g>
	<g class="st11">
		<path d="M103.3,73.8c2.2-0.3,4.4-1.1,6.3-2.2c1-0.6,1.9-1.3,3-1.7c2.5-0.9,4.1,0.1,5.8,2.1c0.8,1,0.1,2.2,1,3
			c1.4-0.2,3.8-0.3,5.3,1c1.1,0.9,1.7,2.5,1,3.8c1.9,2.1,1.9,5.7,0,7.8c1.5,1.6,0.7,4.2-0.6,6c-2.8,4-7.2,6.5-11.9,7.6
			c-4.7,1.1-9.2,0.6-13.9-0.4c2.7-2.3,4.6-9.8,4.7-15.1C104.1,82,104.6,78.6,103.3,73.8z"/>
	</g>
	<g class="st11">
		<path class="st8" d="M197.2,50.9C197.2,50.9,197.2,50.9,197.2,50.9c-0.2,0-0.4-0.2-0.4-0.4c0.5-10.4-4.7-17.8-9.4-21.1
			c-0.2-0.1-0.2-0.3-0.1-0.5c0.1-0.2,0.3-0.2,0.5-0.1c4.8,3.4,10.3,11.1,9.7,21.8C197.6,50.7,197.4,50.9,197.2,50.9z"/>
	</g>
	<g class="st11">
		<path class="st8" d="M95.4,98.8c-0.1,0-0.1,0-0.2,0c-0.2-0.1-0.3-0.3-0.2-0.5c2.6-5.7,5-15.1,3.3-23c0-0.2,0.1-0.4,0.3-0.4
			c0.2,0,0.4,0.1,0.4,0.3c1.8,8.1-0.7,17.7-3.3,23.5C95.7,98.8,95.6,98.8,95.4,98.8z"/>
	</g>
	<g class="st11">
		<g>
			<path class="st3" d="M121,86.3c-0.1,0-0.2-0.1-0.3-0.2c-0.1-0.2-0.1-0.4,0.1-0.5c1.9-1.4,3.4-3.3,4.2-5.5
				c0.1-0.2,0.3-0.3,0.5-0.2c0.2,0.1,0.3,0.3,0.2,0.5c-0.9,2.3-2.4,4.4-4.4,5.9C121.1,86.3,121,86.3,121,86.3z"/>
		</g>
		<g>
			<path class="st3" d="M119.9,93.9c-0.1,0-0.2-0.1-0.3-0.2c-0.1-0.2-0.1-0.4,0.1-0.5c2-1.5,3.7-3.4,4.9-5.5
				c0.1-0.2,0.3-0.2,0.5-0.1s0.2,0.3,0.1,0.5c-1.3,2.3-3,4.3-5.1,5.8C120,93.9,120,93.9,119.9,93.9z"/>
		</g>
		<g>
			<path class="st3" d="M108.4,102.3c-0.2,0-0.4-0.2-0.4-0.4c0-0.2,0.2-0.4,0.4-0.4c2,0,4-0.3,6.3-1c0.2-0.1,0.4,0.1,0.5,0.3
				c0.1,0.2-0.1,0.4-0.3,0.5C112.6,102,110.5,102.3,108.4,102.3z"/>
		</g>
	</g>
	<g class="st11">
		<path class="st3" d="M112.2,14.9c0.5-0.3,0.8-1,0.2-1.6c-0.3-0.3-1-0.4-2.2,0.3c-0.6,0.4-2.4,1.9-3.5,3.3
			c-1.3,1.7-1.7,2.9-2.3,4.8c-0.1,0.4-0.1,0.8,0.1,1.2c0.1,0.4,0.5,0.7,0.9,0.8c0.5,0.1,0.9-0.2,1.2-0.6c0.3-0.4,0.4-0.8,0.5-1.2
			c0.3-1.1,0.4-1.8,1.6-3.5c0.5-0.8,1.6-2,2.8-3C111.5,15.2,111.9,15.1,112.2,14.9z"/>
	</g>
	<g class="st11">
		<path class="st8" d="M133.4,68.7c-0.2,0-0.3-0.1-0.4-0.3c-0.9-3.2-1.8-6.4-2.7-9.6c-0.1-0.2,0.1-0.4,0.2-0.5
			c0.2-0.1,0.4,0.1,0.5,0.2c1,3.2,1.9,6.4,2.7,9.6C133.8,68.5,133.7,68.7,133.4,68.7C133.4,68.7,133.4,68.7,133.4,68.7z"/>
	</g>
	<g class="st11">
		<path class="st9" d="M94.3,217.5c-0.1,0-0.3-0.1-0.3-0.2c-0.6-1.2-0.8-2.7-0.7-4c0-0.2,0.2-0.4,0.4-0.3c0.2,0,0.3,0.2,0.3,0.4
			c-0.2,1.2,0.1,2.5,0.6,3.6c0.1,0.2,0,0.4-0.2,0.5C94.4,217.5,94.3,217.5,94.3,217.5z"/>
	</g>
	<g class="st11">
		<path class="st9" d="M142.2,149.1c-0.8,0-1.7-0.1-2.6-0.4c-2.4-0.7-4.4-2.2-6.3-3.7c-2.6-2.1-5.5-4.5-6.3-8c0-0.2,0.1-0.4,0.3-0.4
			c0.2,0,0.4,0.1,0.4,0.3c0.8,3.2,3.5,5.6,6,7.6c1.8,1.5,3.8,2.9,6.1,3.6c1.9,0.6,4.6,0.6,6.5-1.1c0.2-0.1,0.4-0.1,0.5,0
			c0.1,0.2,0.1,0.4,0,0.5C145.7,148.5,144,149.1,142.2,149.1z"/>
	</g>
	<g class="st11">
		<path class="st9" d="M148.1,154.1c-0.2,0-0.3-0.1-0.4-0.3c-0.3-1.9,0-3.9,0.8-5.6c0.1-0.2,0.3-0.3,0.5-0.2
			c0.2,0.1,0.3,0.3,0.2,0.5c-0.8,1.6-1,3.4-0.7,5.2C148.5,153.9,148.4,154.1,148.1,154.1C148.2,154.1,148.1,154.1,148.1,154.1z"/>
	</g>
	<g class="st11">
		<circle class="st3" cx="129.8" cy="31.2" r="1"/>
	</g>
	<g class="st11">
		<path class="st4" d="M117.9,59.4c-2.5,0.1-4.7,1.6-5.6,3.9c-0.1,0.2-0.2,0.5-0.2,0.7c-0.2,0.8-0.2,1.8,0.2,2.6
			c0.3,0.6,0.7,1,0.9,1.6c0.3,1-0.3,2.1-0.7,3.1s-0.6,1.5-0.2,3.1c0.1,0.4,0.9,2.8,2.1,2.9c1.3,0.1,3.4,0,4.6-0.5
			c1.4-0.7,1.8-1.8,2.2-3.5c0.4-1.7,0.5-2.1,1-4.2c0.5-1.9,0.7-3.2,0.9-4.4c0.4-2.8-0.6-4-1.1-4.4C120.9,59.5,119.7,59.3,117.9,59.4
			z"/>
	</g>
	<g class="st11">
		<path class="st9" d="M116.5,65.6c-1.1,0-2.3-0.3-3.3-0.8c-0.2-0.1-0.3-0.3-0.2-0.5c0.1-0.2,0.3-0.3,0.5-0.2c1.4,0.7,3,0.9,4.5,0.5
			c1.5-0.4,2.8-1.4,3.7-2.7c0.1-0.2,0.3-0.2,0.5-0.1c0.2,0.1,0.2,0.3,0.1,0.5c-0.9,1.5-2.4,2.6-4.1,3
			C117.7,65.5,117.1,65.6,116.5,65.6z"/>
	</g>
</g>
</svg>
